<svg width="443" height="337" viewBox="0 0 443 337" fill="none" xmlns="http://www.w3.org/2000/svg">
<path d="M67.4 212V208.4H76.6L54 162L50.2 163V208.4H59.4V212H2V208.4H13V65.6H1.2V62H50.2V159L53.4 157.8L98.4 120.4H79.6V116.8H119V120.4H105L81.2 140.6L115.8 208.4H123V212H67.4ZM130.623 214V178.2H133.023C136.49 189.8 141.157 197.933 147.023 202.6C152.89 207.267 160.223 209.6 169.023 209.6C182.623 209.6 189.423 205.267 189.423 196.6C189.423 192.867 187.757 190.067 184.423 188.2C179.223 185.267 172.557 183 164.423 181.4C155.357 179 147.757 175.8 141.623 171.8C134.29 167 130.623 159.4 130.623 149C130.623 138.6 133.823 130.333 140.223 124.2C146.623 117.933 155.157 114.8 165.823 114.8C172.357 114.8 179.09 116.333 186.023 119.4C188.557 120.467 190.49 121 191.823 121C193.157 121 194.29 120.533 195.223 119.6C196.157 118.667 197.29 116.933 198.623 114.4H200.823V145H198.423C191.623 127.667 181.09 119 166.823 119C160.557 119 155.89 120.133 152.823 122.4C149.757 124.533 148.223 127.267 148.223 130.6C148.223 132.6 148.69 134.2 149.623 135.4C150.557 136.467 151.29 137.267 151.823 137.8C152.357 138.333 153.223 138.933 154.423 139.6C155.623 140.133 156.623 140.6 157.423 141C158.223 141.267 159.423 141.667 161.023 142.2C162.757 142.733 164.023 143.067 164.823 143.2C173.89 145.467 180.423 147.467 184.423 149.2C188.423 150.8 192.223 152.8 195.823 155.2C203.157 160.267 206.823 168.467 206.823 179.8C206.823 191 203.49 199.533 196.823 205.4C190.157 211.133 181.023 214 169.423 214C161.157 214 153.157 212.067 145.423 208.2C143.823 207.133 142.557 206.6 141.623 206.6C138.69 206.6 135.823 209.067 133.023 214H130.623ZM211.775 116.8H259.975V135.2C262.108 129.067 265.375 124.133 269.775 120.4C274.175 116.667 280.842 114.8 289.775 114.8C310.442 114.8 320.775 125.933 320.775 148.2V208.4H331.975V212H275.375V208.4H283.575V143.4C283.575 135.4 283.042 130.267 281.975 128C280.908 125.6 278.975 124.4 276.175 124.4C271.908 124.4 268.108 127.2 264.775 132.8C261.575 138.4 259.975 145.2 259.975 153.2V208.4H268.575V212H211.775V208.4H222.775V120.4H211.775V116.8ZM382.617 165H388.417V149.6C388.417 136.933 387.684 128.467 386.217 124.2C384.884 119.8 382.217 117.6 378.217 117.6C375.817 117.6 373.617 118.267 371.617 119.6C369.751 120.8 368.817 122.533 368.817 124.8C368.817 126.933 369.217 129.133 370.017 131.4H375.017C376.084 134.2 376.617 137.6 376.617 141.6C376.617 145.467 374.951 148.867 371.617 151.8C368.284 154.6 364.084 156 359.017 156C347.551 156 341.817 150.467 341.817 139.4C341.817 123 355.751 114.8 383.617 114.8C399.484 114.8 410.417 117.533 416.417 123C422.551 128.333 425.617 138.2 425.617 152.6V193.2C425.617 200.133 427.551 203.6 431.417 203.6C435.951 203.6 438.617 196.733 439.417 183L442.417 183.2C441.884 194.933 439.684 203 435.817 207.4C431.951 211.8 425.617 214 416.817 214C400.817 214 391.617 209.067 389.217 199.2C387.484 204.267 384.884 208 381.417 210.4C377.951 212.8 372.884 214 366.217 214C346.484 214 336.617 205.933 336.617 189.8C336.617 180.333 340.351 173.867 347.817 170.4C355.417 166.8 367.017 165 382.617 165ZM374.617 189.6C374.617 196.533 374.951 201 375.617 203C376.417 205 377.817 206 379.817 206C381.951 206 383.884 204.333 385.617 201C387.484 197.533 388.417 192.8 388.417 186.8V168.2H387.017C378.751 168.2 374.617 174.267 374.617 186.4V189.6Z" fill="#ED8936"/>
<path d="M336.1 309C333.233 309 331.067 308.167 329.6 306.5C328.2 304.767 327.5 302.7 327.5 300.3C327.5 297.833 328.233 295.767 329.7 294.1C331.233 292.433 333.367 291.6 336.1 291.6C338.833 291.6 341 292.3 342.6 293.7C344.2 295.1 345 297.2 345 300C345 302.8 344.233 305 342.7 306.6C341.233 308.2 339.033 309 336.1 309ZM365.165 253.5C361.632 253.5 359.098 252.6 357.565 250.8C356.098 249 355.365 246.767 355.365 244.1C355.365 241.433 356.165 239.233 357.765 237.5C359.432 235.767 361.932 234.9 365.265 234.9C368.598 234.9 371.132 235.7 372.865 237.3C374.598 238.833 375.465 241.067 375.465 244C375.465 246.867 374.632 249.167 372.965 250.9C371.298 252.633 368.698 253.5 365.165 253.5ZM350.065 260.4H374.565V306.2H380.165V308H350.465V306.2H355.965V262.2H350.065V260.4ZM382.403 260.4H406.503V269.6C407.57 266.533 409.203 264.067 411.403 262.2C413.603 260.333 416.936 259.4 421.403 259.4C431.736 259.4 436.903 264.967 436.903 276.1V306.2H442.503V308H414.203V306.2H418.303V273.7C418.303 269.7 418.036 267.133 417.503 266C416.97 264.8 416.003 264.2 414.603 264.2C412.47 264.2 410.57 265.6 408.903 268.4C407.303 271.2 406.503 274.6 406.503 278.6V306.2H410.803V308H382.403V306.2H387.903V262.2H382.403V260.4Z" fill="#ED8936"/>
</svg>
