<svg fill="none" height="289" viewBox="0 0 471 289" width="471" xmlns="http://www.w3.org/2000/svg"><g fill="#fff"><path d="m57.29 180v-3.06h7.82l-19.21-39.44-3.23.85v38.59h7.82v3.06h-48.79v-3.06h9.35v-121.38h-10.03v-3.06h41.65v82.45l2.72-1.02 38.25-31.79h-15.98v-3.06h33.49v3.06h-11.9l-20.23 17.17 29.41 57.63h6.12v3.06zm53.74 1.7v-30.43h2.04c2.947 9.86 6.913 16.773 11.9 20.74s11.22 5.95 18.7 5.95c11.56 0 17.34-3.683 17.34-11.05 0-3.173-1.417-5.553-4.25-7.14-4.42-2.493-10.087-4.42-17-5.78-7.707-2.04-14.167-4.76-19.38-8.16-6.233-4.08-9.35-10.54-9.35-19.38s2.72-15.867 8.16-21.08c5.44-5.327 12.693-7.99 21.76-7.99 5.553 0 11.277 1.3033 17.17 3.91 2.153.907 3.797 1.36 4.93 1.36s2.097-.397 2.89-1.19 1.757-2.2667 2.89-4.42h1.87v26.01h-2.04c-5.78-14.733-14.733-22.1-26.86-22.1-5.327 0-9.293.963-11.9 2.89-2.607 1.813-3.91 4.137-3.91 6.97 0 1.7.397 3.06 1.19 4.08.793.907 1.417 1.587 1.87 2.04s1.19.963 2.21 1.53c1.02.453 1.87.85 2.55 1.19.68.227 1.7.567 3.06 1.02 1.473.453 2.55.737 3.23.85 7.707 1.927 13.26 3.627 16.66 5.1 3.4 1.36 6.63 3.06 9.69 5.1 6.233 4.307 9.35 11.277 9.35 20.91 0 9.52-2.833 16.773-8.5 21.76-5.667 4.873-13.43 7.31-23.29 7.31-7.027 0-13.827-1.643-20.4-4.93-1.36-.907-2.437-1.36-3.23-1.36-2.493 0-4.93 2.097-7.31 6.29zm110.601-41.65h4.93v-13.09c0-10.767-.623-17.963-1.87-21.59-1.133-3.74-3.4-5.61-6.8-5.61-2.04 0-3.91.567-5.61 1.7-1.587 1.02-2.38 2.493-2.38 4.42 0 1.813.34 3.683 1.02 5.61h4.25c.907 2.38 1.36 5.27 1.36 8.67 0 3.287-1.417 6.177-4.25 8.67-2.833 2.38-6.403 3.57-10.71 3.57-9.747 0-14.62-4.703-14.62-14.11 0-13.94 11.843-20.91 35.53-20.91 13.487 0 22.78 2.3233 27.88 6.97 5.213 4.533 7.82 12.92 7.82 25.16v34.51c0 5.893 1.643 8.84 4.93 8.84 3.853 0 6.12-5.837 6.8-17.51l2.55.17c-.453 9.973-2.323 16.83-5.61 20.57s-8.67 5.61-16.15 5.61c-13.6 0-21.42-4.193-23.46-12.58-1.473 4.307-3.683 7.48-6.63 9.52s-7.253 3.06-12.92 3.06c-16.773 0-25.16-6.857-25.16-20.57 0-8.047 3.173-13.543 9.52-16.49 6.46-3.06 16.32-4.59 29.58-4.59zm-6.8 20.91c0 5.893.283 9.69.85 11.39.68 1.7 1.87 2.55 3.57 2.55 1.813 0 3.457-1.417 4.93-4.25 1.587-2.947 2.38-6.97 2.38-12.07v-15.81h-1.19c-7.027 0-10.54 5.157-10.54 15.47zm59.641-61.88h40.97v15.64c1.813-5.213 4.59-9.407 8.33-12.58 3.74-3.1733 9.406-4.76 17-4.76 17.566 0 26.35 9.463 26.35 28.39v51.17h9.52v3.06h-48.11v-3.06h6.97v-55.25c0-6.8-.454-11.163-1.36-13.09-.907-2.04-2.55-3.06-4.93-3.06-3.627 0-6.857 2.38-9.69 7.14-2.72 4.76-4.08 10.54-4.08 17.34v46.92h7.31v3.06h-48.28v-3.06h9.35v-74.8h-9.35zm145.216 40.97h4.93v-13.09c0-10.767-.624-17.963-1.87-21.59-1.134-3.74-3.4-5.61-6.8-5.61-2.04 0-3.91.567-5.61 1.7-1.587 1.02-2.38 2.493-2.38 4.42 0 1.813.34 3.683 1.02 5.61h4.25c.906 2.38 1.36 5.27 1.36 8.67 0 3.287-1.417 6.177-4.25 8.67-2.834 2.38-6.404 3.57-10.711 3.57-9.746 0-14.619-4.703-14.619-14.11 0-13.94 11.843-20.91 35.53-20.91 13.486 0 22.78 2.3233 27.88 6.97 5.213 4.533 7.82 12.92 7.82 25.16v34.51c0 5.893 1.643 8.84 4.93 8.84 3.853 0 6.12-5.837 6.8-17.51l2.55.17c-.454 9.973-2.324 16.83-5.61 20.57-3.287 3.74-8.67 5.61-16.15 5.61-13.6 0-21.42-4.193-23.46-12.58-1.474 4.307-3.684 7.48-6.63 9.52-2.947 2.04-7.254 3.06-12.92 3.06-16.774 0-25.16-6.857-25.16-20.57 0-8.047 3.173-13.543 9.52-16.49 6.46-3.06 16.32-4.59 29.58-4.59zm-6.8 20.91c0 5.893.283 9.69.85 11.39.68 1.7 1.87 2.55 3.57 2.55 1.813 0 3.456-1.417 4.93-4.25 1.586-2.947 2.38-6.97 2.38-12.07v-15.81h-1.19c-7.027 0-10.54 5.157-10.54 15.47z"/><path d="m364.1 261c-2.867 0-5.033-.833-6.5-2.5-1.4-1.733-2.1-3.8-2.1-6.2 0-2.467.733-4.533 2.2-6.2 1.533-1.667 3.667-2.5 6.4-2.5s4.9.7 6.5 2.1 2.4 3.5 2.4 6.3-.767 5-2.3 6.6c-1.467 1.6-3.667 2.4-6.6 2.4zm29.065-55.5c-3.533 0-6.067-.9-7.6-2.7-1.467-1.8-2.2-4.033-2.2-6.7s.8-4.867 2.4-6.6c1.667-1.733 4.167-2.6 7.5-2.6s5.867.8 7.6 2.4c1.733 1.533 2.6 3.767 2.6 6.7 0 2.867-.833 5.167-2.5 6.9s-4.267 2.6-7.8 2.6zm-15.1 6.9h24.5v45.8h5.6v1.8h-29.7v-1.8h5.5v-44h-5.9zm32.338 0h24.1v9.2c1.067-3.067 2.7-5.533 4.9-7.4s5.533-2.8 10-2.8c10.333 0 15.5 5.567 15.5 16.7v30.1h5.6v1.8h-28.3v-1.8h4.1v-32.5c0-4-.267-6.567-.8-7.7-.533-1.2-1.5-1.8-2.9-1.8-2.133 0-4.033 1.4-5.7 4.2-1.6 2.8-2.4 6.2-2.4 10.2v27.6h4.3v1.8h-28.4v-1.8h5.5v-44h-5.5z"/></g></svg>