<svg xmlns="http://www.w3.org/2000/svg" xmlns:xlink="http://www.w3.org/1999/xlink" id="Layer_1" width="406" height="306" class="illustration styles_illustrationTablet__1DWOa" data-name="Layer 1" viewBox="0 0 383.64 294.17"><defs><linearGradient id="linear-gradient" x1="200.38" x2="209.39" y1="232.38" y2="25.16" gradientTransform="matrix(1, 0, 0, -1, 0, 352)" gradientUnits="userSpaceOnUse"><stop offset=".01"/><stop offset=".08" stop-opacity=".69"/><stop offset=".21" stop-opacity=".32"/><stop offset="1" stop-opacity="0"/></linearGradient><linearGradient id="linear-gradient-2" x1="114.3" x2="158.99" y1="176.95" y2="180.14" xlink:href="#linear-gradient"/><linearGradient id="linear-gradient-3" x1="121.05" x2="204.52" y1="153.26" y2="36.4" xlink:href="#linear-gradient"/></defs><title>9</title><path fill="#ed8936" d="M25.84,223.61c-1.91,9.14-3.21,18.41-2,27.63,2.62,20.59,17.53,38.05,35.43,48.56,21.57,12.66,45,14.92,68.73,19.33,26.14,4.85,51.42,5.7,77.65.52,15.22-3,30.26-7.64,45.75-8,11.75-.3,23.4,1.83,35,3.38,39.42,5.26,110.59,8.35,119.72-42.55,2.29-12.78-.15-25-3.6-37.31a44,44,0,0,0-7.1-14.22c-16.51-23.57-23.61-46.2-32.14-73.45-6.85-21.91-19.42-44.91-41.41-51.48-10.9-3.26-22.77-2-33.68-5.22C266.4,84.27,253.87,61.94,235.88,48,208.44,26.78,170.29,26.6,136,31.9c-10.13,1.56-20.48,3.62-29.14,9.1-7.1,4.49-12.63,11-18,17.43C80.67,68.08,72.47,77.8,66.22,88.77c-7.43,13-11.93,27.46-16.17,41.83Q37.6,172.81,27.61,215.68C27,218.31,26.39,221,25.84,223.61Z" opacity=".18" transform="translate(-23.37 -29)" style="isolation:isolate"/><path fill="url(#linear-gradient)" d="M135.28,229c-4.05,2-8.1,5-9,9.39-1.86,8.7,9.17,15.78,8.47,24.65-.37,4.75-4,8.47-6.72,12.39-5.84,8.4-7.49,20.71-.87,28.51,5.36,6.32,14.76,8,22.83,6.09s15.08-6.77,21.64-11.84c12.8-9.9,25.66-21.38,41.67-23.72,8.23-1.21,16.61.16,24.92-.19A120.11,120.11,0,0,0,255.31,272l22.84-4.28c3.72-.7,7.68-1.52,10.34-4.21,5.13-5.19,2.53-14.23-2.25-19.74-12.78-14.75-35.35-15.63-54.58-12.23-9.52,1.69-19,4.14-28.63,4.34C178.69,236.33,160.47,216.81,135.28,229Z" transform="translate(-23.37 -29)"/><path fill="#f99885" d="M227,238.07c-5-1.12-4,5.93-5.31,8.55a14,14,0,0,1-3.07,3.52,6.33,6.33,0,0,0-2.24,4,1.58,1.58,0,0,0,.18.85,1.67,1.67,0,0,0,1,.59,11.41,11.41,0,0,0,8.5-.84A6.61,6.61,0,0,0,229,252a9.47,9.47,0,0,0,.76-4C229.86,245.08,231.16,239,227,238.07Z" transform="translate(-23.37 -29)"/><path fill="#ed8936" d="M222.62,252.58s-14.14.61-8.16,5,14.94-1.09,15.81-2.1.16-2.75.16-2.75Z" transform="translate(-23.37 -29)"/><path fill="#fff" d="M229.65,254.53c-1.26,1.54-7.9,3.6-10.84,3.39s-5.58-1.58-5.29-3.48,5.48-6.33,6.45-6.31,1.76,2.27,3.72,2.74a5.25,5.25,0,0,0,4.79-1.72,1.29,1.29,0,0,1,1.61-.41A6.25,6.25,0,0,1,229.65,254.53Z" transform="translate(-23.37 -29)"/><path fill="#f99885" d="M244.06,240.86c-5-1.16-4,5.89-5.3,8.5a14,14,0,0,1-3.07,3.53,6.25,6.25,0,0,0-2.23,4,1.44,1.44,0,0,0,.17.84,1.61,1.61,0,0,0,1,.6,11.54,11.54,0,0,0,8.51-.84,6.71,6.71,0,0,0,2.92-2.71,9.31,9.31,0,0,0,.75-4C246.9,247.81,248.21,241.74,244.06,240.86Z" transform="translate(-23.37 -29)"/><path fill="#ed8936" d="M239.67,255.3s-14.15.59-8.16,5,14.94-1.07,15.81-2.09.16-2.75.16-2.75Z" transform="translate(-23.37 -29)"/><path fill="#fff" d="M246.7,257.22c-1.26,1.55-7.9,3.61-10.84,3.4s-5.58-1.58-5.3-3.48,5.49-6.33,6.46-6.32,1.76,2.27,3.72,2.74a5.24,5.24,0,0,0,4.78-1.72,1.32,1.32,0,0,1,1.61-.41A6.23,6.23,0,0,1,246.7,257.22Z" transform="translate(-23.37 -29)"/><path fill="#473f47" d="M231.25,176.71l6.64,69.92,9.58-1.18c3.79-17.06,2.86-68.11,2.86-68.11Z" transform="translate(-23.37 -29)"/><path fill="#473f47" d="M237.89,174.82l-6.64,69.92-9.6-1.18c-5.48-44.25-1-71.79-1-71.79Z" transform="translate(-23.37 -29)"/><path fill="#fff" d="M255.32,155c0,.71-.08,1.42-.14,2.12-.41,5.36-.85,10.91-2.37,16.08-.48,1.62-1,3.25-2.49,4.12a11.84,11.84,0,0,1-6.52,1.16c-2.18-.11-4.39-.5-6.23-.76-5.06-.72-10.26-1.48-14.75-3.93a4.19,4.19,0,0,1-2.13-2c-.4-1.1.08-2.29.42-3.41,1.52-5,.34-10.25.34-15.35,0-.92.12-1.87.12-2.79v-.69c-.12-1.28-.46-2.55-.6-3.86a28.22,28.22,0,0,1,.06-7.23v-.06a4.48,4.48,0,0,1,.09-.64,29.72,29.72,0,0,1,2.5-8.08c1.1-2.22,3.1-3.16,5.34-4.27a19,19,0,0,1,6-2,15.18,15.18,0,0,1,4.46.24c4.51.86,10.46,3.19,13.54,6.75a9.94,9.94,0,0,1,2.06,4.21,26.69,26.69,0,0,1,.61,5.84Q255.77,147.71,255.32,155Z" transform="translate(-23.37 -29)"/><path fill="#020202" d="M255.32,155c0,.71-.08,1.42-.14,2.12-.41,5.36-.85,10.91-2.37,16.08-.48,1.62-1,3.25-2.49,4.12a11.84,11.84,0,0,1-6.52,1.16c-2.09-2.1-3.1-5.23-3.57-8.22-.56-3.56-.59-7.26-1.89-10.62C235,151,224.34,147,221,138.41v-.07h0l16,3.25c2.33.47,9.58,3,11.36,1.09.92-1,1-3.1,1.92-4.29a16.08,16.08,0,0,1,4.26-3.62c.14-.09.28-.18.43-.26a26.69,26.69,0,0,1,.61,5.84Q255.77,147.71,255.32,155Z" opacity=".1" transform="translate(-23.37 -29)" style="isolation:isolate"/><path fill="#fff" d="M195,111.25a11.16,11.16,0,0,0,.51,2.86,23.35,23.35,0,0,0,4.47,7.3,148.82,148.82,0,0,0,11.24,12.31c1.9,1.86,8.08,9.6,11.29,7.83,1.06-.58,1.19-2,1.31-3.22a18.42,18.42,0,0,1,2.51-7.29c.66-1.18,1.4-2.32,2.13-3.47.54-.86,1.94-1.91,2.08-2.88-.29,2-15.95-6.61-17.07-7.27a170.75,170.75,0,0,1-16.85-11.49A7.85,7.85,0,0,0,195,111.25Z" transform="translate(-23.37 -29)"/><path fill="#f99885" d="M231.27,116.33a34.92,34.92,0,0,1,.25-4c.12-1.16.31-2.33.54-3.48a2.33,2.33,0,0,1,.89-1.77,11,11,0,0,1,6-1.64,4.82,4.82,0,0,1,5.5,4,4.49,4.49,0,0,1,.06.73c.32,2.94-.45,5.87-.87,8.79a35.55,35.55,0,0,0-.36,6.84,8.16,8.16,0,0,1-3.69,1.31,5.94,5.94,0,0,1-1.82-.31,1.25,1.25,0,0,1-.81-.53,1.41,1.41,0,0,1-.06-.76c0-.24.06-.47.06-.72h0a21.39,21.39,0,0,0-.08-4,.39.39,0,0,0-.12-.3.42.42,0,0,0-.27,0h-.37a13.35,13.35,0,0,1-2,0,3.31,3.31,0,0,1-2.08-1A4.34,4.34,0,0,1,231.27,116.33Z" transform="translate(-23.37 -29)"/><path fill="#473f47" d="M234,107.72a1.92,1.92,0,0,1-1.45,0,3,3,0,0,1-1.16-1.14,4.25,4.25,0,0,1-.49-1.06,4,4,0,0,1,1.5-4.08,5.72,5.72,0,0,1,4.39-1,3.22,3.22,0,0,1,1.31-.5,12,12,0,0,1,5.55-.34,8.69,8.69,0,0,1,2.91,1.47,7.18,7.18,0,0,1,2.12,2.13,10.27,10.27,0,0,1,1,3.46,20.09,20.09,0,0,1,.46,3.94,4.65,4.65,0,0,1-.32,1.69,5.06,5.06,0,0,1-1.11,1.59,10.3,10.3,0,0,1-2.32,1.78c-.6.33-1.29.67-1.49,1.32a4.88,4.88,0,0,0-.09.93,2.07,2.07,0,0,1-.52,1.23c-.2.22-.56.77-.86.82s-.56-.29-.65-.59a6,6,0,0,1,.27-4,4.59,4.59,0,0,0,.65-2c-.07-.71-1-1.27-1.5-.85s-.55,1.44-1.12,1.24c.65-2-.2-4.6-2.16-5.41a10.44,10.44,0,0,0-3.24-.45,9.31,9.31,0,0,0-1.58-.17Z" transform="translate(-23.37 -29)"/><path fill="#de9f93" d="M236.09,120.44a23.11,23.11,0,0,0,4.53-1.34c.13,4.72-3.71,5.69-3.71,5.69h0a21.39,21.39,0,0,0-.08-4,.39.39,0,0,0-.12-.3.42.42,0,0,0-.27,0h-.35Z" transform="translate(-23.37 -29)"/><path fill="#a67c52" d="M132.14,197.78l.6-2.31,1.57-6a1.37,1.37,0,0,1,.37-.75c.23-.21,1,2.05,1.28,2a19.49,19.49,0,0,1,5.11.37c.45.09-1.38,25.69-1.55,28.2-.37,5.75-.06,17.14.78,17.07-1.68.14-5.12.32-5.85-.43-1.31-1.31.93-9.74-1.51-19.64a35.05,35.05,0,0,1-1-7.42C131.85,205.3,131.24,201.32,132.14,197.78Z" transform="translate(-23.37 -29)"/><path fill="#473f47" d="M139.46,233.73a5,5,0,0,1,1.06-.4,2,2,0,0,1,1.51.78l7.34,6.91c.23.21.47.49.36.78s-.34.32-.56.39c-4.43,1.27-13.76,1.51-17-2.54a4,4,0,0,1,.33-5.65l.3-.24C135.64,231.45,136.77,234.61,139.46,233.73Z" transform="translate(-23.37 -29)"/><path fill="#efac88" d="M144.17,226.26a5.78,5.78,0,0,0,.47-1.08c.4-1.28.1-2.62.19-3.91a14,14,0,0,0,0-2.05c-.13-1.75-.36-3.51-.58-5.25a71.52,71.52,0,0,1-1.07-9c0-2.29,1.86-9.5,1.86-9.5l-1.86-9.38h9.39s1.2,7.86.87,8.73a18.94,18.94,0,0,0-1.2,5.56c0,3.38-.45,6.8-.71,10.16q-.43,5.52-.89,11l-.33,4a13.11,13.11,0,0,0,1,5.67c.31.82.63,1.82.07,2.48s-1.81.43-2.65,0a23.92,23.92,0,0,0-3.65-2,4.58,4.58,0,0,1-1.43-.58,2.65,2.65,0,0,1-.47-3C143.48,227.48,143.81,226.86,144.17,226.26Z" transform="translate(-23.37 -29)"/><path fill="#473f47" d="M147.88,89.93c3.05,1.25,3.79,5.75,3.57,8.6-.27,3.57-3.26,7.14-2.23,10.72a15.61,15.61,0,0,1,.93,5.74c-.2,1.94-1.4,3.93-3.29,4.39a5.47,5.47,0,0,0-1.32.35,3.23,3.23,0,0,0-1.2,1.55,15,15,0,0,1-8.63,7.57,10.79,10.79,0,0,1-10.87-2.63c-2.67-2.89-3.08-7.78-.55-10.78.73-.86,1.7-1.66,1.77-2.78a7.17,7.17,0,0,0-.23-1.52,4.65,4.65,0,0,1,2.51-4.84c1.41-.67,3.21-.64,4.3-1.77s.92-3.27.82-5C132.93,90.35,139.85,86.62,147.88,89.93Z" transform="translate(-23.37 -29)"/><path fill="#ed8936" d="M128.05,166.49c-.73,7.16.55,14.47,1.83,21.6.3,1.68.67,3.48,1.91,4.65a7.24,7.24,0,0,0,3.39,1.51,37.36,37.36,0,0,0,24.22-2.53l-1.92-17.79c-.51-4.73-1.06-9.57-2.76-14.05-.31-.83-5.21-9.06-4.06-9.77-2.32,1.43-5,1.22-7.67,1.84a34.61,34.61,0,0,0-9,3.5,9.1,9.1,0,0,0-5.35,7.25A37.31,37.31,0,0,0,128.05,166.49Z" transform="translate(-23.37 -29)"/><path fill="url(#linear-gradient-2)" d="M128.05,166.49c-.73,7.16.55,14.47,1.83,21.6.3,1.68.67,3.48,1.91,4.65a7.24,7.24,0,0,0,3.39,1.51,37.36,37.36,0,0,0,24.22-2.53l-1.92-17.79c-.51-4.73-1.06-9.57-2.76-14.05-.31-.83-5.21-9.06-4.06-9.77-2.32,1.43-5,1.22-7.67,1.84a34.61,34.61,0,0,0-9,3.5,9.1,9.1,0,0,0-5.35,7.25A37.31,37.31,0,0,0,128.05,166.49Z" transform="translate(-23.37 -29)"/><path fill="#a67c52" d="M147.73,108.82s-2.36,3-2.37,4.83a15.71,15.71,0,0,1-.5,3.61s-.37,2.21-1.59,1.35-5.51-6.61-5.51-6.61l4.68-6.29Z" transform="translate(-23.37 -29)"/><path fill="#ed8936" d="M152.62,161.81s-1.24-4.33-2.83-9.49c.06,3.32-.33,8.3-1,9-.52.53-7.68,2.2-11.61,2.05-1.13,0-2.22-.09-3.17-.15-1.88-.1-3.2-.19-3.2-.19s-1.23-5.63-1-8.32,3.42-8.81,3.79-10.4c.32-1.39-1-6.55-1.32-7.8l-.08-.28a30.54,30.54,0,0,0-.32-3.44,40.69,40.69,0,0,1-1.1-5.68,32.77,32.77,0,0,0-.32-3.84c-.18-1-.52-2-.74-3a4.77,4.77,0,0,1,0-2.75,6,6,0,0,1,2.45-2.49c1.23-.84,2.44-1.72,3.63-2.62,1-.78,2.4-1.38,3.06-2.55.42.38.26,1.16.33,1.7a10.09,10.09,0,0,0,2.94,5.9,2.4,2.4,0,0,0,2.44.85,2,2,0,0,0,.91-1c.67-1.43.21-3.11-.28-4.6l4.66,1.74a2,2,0,0,1,1.51,1.71c.87,3.19,1.64,6.42,2.29,9.66a13.81,13.81,0,0,1,.37,5c-.62,3.74-1.78,7.36-2.13,11.15a10.15,10.15,0,0,0,.35,4.8c1.77,4.29,2.73,15,2.73,15Z" transform="translate(-23.37 -29)"/><path fill="#020202" d="M135.2,152.19a4,4,0,0,0-.09,1.81l-1,1.93a9.73,9.73,0,0,1,1.2,4.63,3.89,3.89,0,0,1-1.38,2.66c-1.88-.1-3.2-.19-3.2-.19s-1.23-5.63-1-8.32,3.42-8.81,3.79-10.4c.32-1.39-1-6.55-1.32-7.8.3-1.06.62-2.13.93-3.19l2-6.65a28,28,0,0,1,2.34,7.42,21.43,21.43,0,0,1,.56,2.62c.06.88.41,3.43.45,4.31a8,8,0,0,1-1,3.45A40.73,40.73,0,0,0,135.2,152.19Z" opacity=".1" transform="translate(-23.37 -29)" style="isolation:isolate"/><path fill="#ed8936" d="M166.59,113.78c5.7-2.2,10.7-5.83,15.93-9,1.17-.7,2.6-1.39,3.82-.8a3.12,3.12,0,0,1,1.36,3.32c-.5,3.32-3.8,5.33-6.49,7.36-4.51,3.39-8,7.91-12.28,11.63s-9.69,6.7-15.29,6a3.86,3.86,0,0,1-2.07-.75,4,4,0,0,1-1-1.44c-1.29-2.82-3.71-13.09,0-14.85,1.8-.86,5.07.42,7,.39A26.61,26.61,0,0,0,166.59,113.78Z" transform="translate(-23.37 -29)"/><path fill="#a67c52" d="M148.93,92.91a.88.88,0,0,1,.27.24,7.4,7.4,0,0,1,.89,2.54c1.23,4.35,2.91,8.51.51,12.84a2.27,2.27,0,0,1-1.73,1.34,7.4,7.4,0,0,1-5.17-.82,25.51,25.51,0,0,1-2.62-1.43,2.71,2.71,0,0,1-.93-1c-.19-.41-.5-.81-.37-1.29a10.53,10.53,0,0,0,.36-1,2.61,2.61,0,0,0-.28-1.55.93.93,0,0,1-.09-.69c.16-.37.69-.34,1.08-.44a2.46,2.46,0,0,0,1.43-1.43,11.8,11.8,0,0,0,.9-2.45,8.39,8.39,0,0,1,.62-2.13,5.65,5.65,0,0,1,2.44-2.15C146.88,93.15,148.18,92.44,148.93,92.91Z" transform="translate(-23.37 -29)"/><path fill="#8a3c1f" d="M150.88,99.25l.39-.34s.11.24.25.22a1.78,1.78,0,0,0,.36-.14s-.22.31-.37.34a3.21,3.21,0,0,1-.62,0Z" transform="translate(-23.37 -29)"/><path fill="#8a3c1f" d="M151.22,98.94l.16-.3s.14.12.22.07a1.54,1.54,0,0,0,.19-.17s-.06.24-.15.3a1.42,1.42,0,0,1-.4.12Z" transform="translate(-23.37 -29)"/><path fill="#020202" d="M187.4,165c-1,.92-2,1.82-3,2.65a36.9,36.9,0,0,0-5.13,4.37,33.79,33.79,0,0,0-3.49,5.57c-1,1.77-2.86,3.15-3.71,4.85a23.78,23.78,0,0,0-2.34,12.46c.35,4.47,1.92,9.09.37,13.31a6.12,6.12,0,0,1-1.49,2.37,7.16,7.16,0,0,1-2.23,1.31,46.1,46.1,0,0,1-5.36,1.78,5.82,5.82,0,0,1-2.72.17c-.52-.1-1.84-1-2.2-1a7.19,7.19,0,0,0,5.82-4.89c.63-2,.32-4.18.33-6.29a41.5,41.5,0,0,1,.89-7.28L165,184.17c.69-3.77,1.81-6.82,4.58-9.49,3.38-3.25,6.07-7.14,9.84-10.07,2.9-2.26,6.17-4,9.24-6,4.33-2.88,7.74-6.51,12.09-9.1,2.54-1.52,4.19-4.13,5.74-6.64l8.27-13.35a2,2,0,0,1,2,1.87,5.58,5.58,0,0,1-.68,2.89c-1.92,4.36-4.06,8.64-6.29,12.84-1.85,3.49-4.85,4.31-8.28,6.06C195.94,155.92,191.91,160.77,187.4,165Z" opacity=".1" transform="translate(-23.37 -29)" style="isolation:isolate"/><path fill="none" d="M224.09,123.29a4.35,4.35,0,0,0-.56,5,11.35,11.35,0,0,0,3.71,3.87,74.31,74.31,0,0,0,21.94,11.16,7,7,0,0,0,3.33.46c4-.69,3.83-5.42,2.54-8.23-1.22-2.65-2.6-3.89-5.53-4.22-4.58-.53-8.76-.62-13.17-2.2A90.56,90.56,0,0,1,224.09,123.29Z" transform="translate(-23.37 -29)"/><path fill="#ed8936" d="M129.05,118.79a21.53,21.53,0,0,0-.48,2.78,37.22,37.22,0,0,1-1.46,6.6l-6.25-3.4c-1.51-.81-5.68-2.33-6.86-.1s3.17,6.31,4.53,7.69a89.79,89.79,0,0,0,7.88,6.82,4.31,4.31,0,0,0,1.87,1,4.15,4.15,0,0,0,3.27-1.38,13.27,13.27,0,0,0,4.3-6c.73-2.53.25-5.23-.27-7.81-.69-3.44-1.76-7.29-4.87-8.89A4.63,4.63,0,0,0,129.05,118.79Z" transform="translate(-23.37 -29)"/><path fill="#a67c52" d="M113.91,120.9a12.78,12.78,0,0,0-5.62-1.35,1,1,0,0,0-.65.1,1,1,0,0,0-.33.47,8.08,8.08,0,0,0,.33,7c.4.72.91,1.38,1.31,2.1a9,9,0,0,0,1,1.65,3.55,3.55,0,0,0,2.43,1.08,5.58,5.58,0,0,0,2.63-.6,2.61,2.61,0,0,0,1.62-1.67c.18-1-.39-1.87-.19-2.86a6.8,6.8,0,0,0,.46-1.93A5.64,5.64,0,0,0,113.91,120.9Z" transform="translate(-23.37 -29)"/><path fill="#262836" d="M143.28,295.67l.06.2c.4,1,1.65,1.35,2.73,1.48a23.18,23.18,0,0,0,3,.14,4.22,4.22,0,0,0,1.41-.2,4.73,4.73,0,0,0,1.2-.72l2.91-2.16a12.4,12.4,0,0,0,2.22-2,4,4,0,0,0,1-2.74,2.42,2.42,0,0,0-1.75-2.16,7,7,0,0,0-1.83,0c-1.24.06-3-.46-3.46-1.72a2.61,2.61,0,0,0-.84-1.4,2.09,2.09,0,0,0-1.35-.16,9.92,9.92,0,0,0-3,.58,3.45,3.45,0,0,0-2.06,2.1,5.18,5.18,0,0,0-.12,1.36,26.9,26.9,0,0,1,0,2.84,28.54,28.54,0,0,0-.2,3.58A3.58,3.58,0,0,0,143.28,295.67Z" transform="translate(-23.37 -29)"/><path fill="#262836" d="M171.54,296a47.86,47.86,0,0,1-6,2.3,3.85,3.85,0,0,1-2.59.15,2.6,2.6,0,0,1-1.38-1.72,7.73,7.73,0,0,1-.23-2.25,19.25,19.25,0,0,1,.73-3.45c.18-1,.32-2.09.47-3.14.21-1.5.41-3,.59-4.51l5.24,1.12c.55.12,1.07,2.23,1.4,2.68a2.78,2.78,0,0,0,2.1,1.11,22.33,22.33,0,0,1,2.71-.22,2.71,2.71,0,0,1,2.07,2.57,4.31,4.31,0,0,1-1.41,3.15,10.82,10.82,0,0,1-3,1.9Z" transform="translate(-23.37 -29)"/><path fill="#ed8936" d="M171.63,290.19a35.75,35.75,0,0,1-4.28,2.05l-.14.05c-2.43.95-5.15-2.85-5.15-2.85s-3.42-21.18-3.27-29.95c.11-6-1.31-14.61-3.46-30.19-.55,15.92-3.24,22.9-2.55,28.61,1.05,8.67-.2,30.22-.2,30.22s-2.29,4.19-4.81,3.63h-.15a33.14,33.14,0,0,1-4.45-1.37s-2.93-29.66-2.93-37.5.33-14.82.33-14.82L139,213.26l6.54-9.49.53-.22.51-.5,7.24-5.31s0,1.24-.14,3.36l5.62,3,.55.41.54.13,9.42,1.68s2.47,38,3.27,45.78S171.63,290.19,171.63,290.19Z" transform="translate(-23.37 -29)"/><path fill="url(#linear-gradient-3)" d="M171.63,290.19a35.75,35.75,0,0,1-4.28,2.05l-.14.05c-2.43.95-5.15-2.85-5.15-2.85s-3.42-21.18-3.27-29.95c.11-6-1.31-14.61-3.46-30.19-.55,15.92-3.24,22.9-2.55,28.61,1.05,8.67-.2,30.22-.2,30.22s-2.29,4.19-4.81,3.63h-.15a33.14,33.14,0,0,1-4.45-1.37s-2.93-29.66-2.93-37.5.33-14.82.33-14.82L139,213.26l6.54-9.49.53-.22.51-.5,7.24-5.31s0,1.24-.14,3.36l5.62,3,.55.41.54.13,9.42,1.68s2.47,38,3.27,45.78S171.63,290.19,171.63,290.19Z" transform="translate(-23.37 -29)"/><path fill="#fdb9a9" d="M163.81,140.21c.59.6,1.49,1.2,1.24,2-.14.42-.58.66-.92,1a4.48,4.48,0,0,0-1.23,3.24,10.69,10.69,0,0,1-.5,3.51,2.6,2.6,0,0,1-2.83,1.7c-.69-.19-1.37-.79-2-.51s-.67.84-.93,1.31a3.61,3.61,0,0,1-3.47,1.57,10.67,10.67,0,0,1-3.79-1.3,2.75,2.75,0,0,1-1.24-1,2,2,0,0,1-.14-1.35,10.66,10.66,0,0,1,2-3.72,15.79,15.79,0,0,0,2.51-7.37c.14-1.83,0-3.85,1.18-5.26,1.59-1.92,5.44-1.91,7.43-.5C163.28,135,162,138.32,163.81,140.21Z" transform="translate(-23.37 -29)"/><path fill="#ff681c" d="M161.45,131.92a2.82,2.82,0,0,1-1,1.11c-.87.51-1.62,1.12-2.47,1.68a3.73,3.73,0,0,0-1.57,2.3c-.35,1.7.58,3.57.05,5.25-.21.34-.77.13-1-.2s-.34-.75-.68-.95c-.57-.33-1.28.23-1.53.84a3,3,0,0,0,1.69,3.74c-.08.53-.78.75-1.32.67a5.68,5.68,0,0,0-1.64-.21c-1.25.23-1.72,2-3,2.19a2.86,2.86,0,0,1-2.16-1.24l-1.51-1.73a7.76,7.76,0,0,0-.8-.92c-.34-.26-.91-.28-1.19-.6s0-1.07-.3-1.46a1.56,1.56,0,0,0-.52-.32,2.13,2.13,0,0,1-1.1-2.45.73.73,0,0,0,0-.36c-.05-.17-.24-.24-.4-.32a2.29,2.29,0,0,1-.85-2.86,4.87,4.87,0,0,1,1-1.54,1.55,1.55,0,0,1,1.52-.67l.23-2.18a3.36,3.36,0,0,1,.32-1.28,3.26,3.26,0,0,1,2.64-1.22l-.5-1.81a.88.88,0,0,1,0-.71.8.8,0,0,1,.53-.3,8.93,8.93,0,0,1,1.79-.3,7.2,7.2,0,0,1-.51-1.57.42.42,0,0,1,0-.31.52.52,0,0,1,.54-.29,1.89,1.89,0,0,0,.67,0s-.33-1.52-.35-1.66a1.84,1.84,0,0,1,.26-1.39,1.59,1.59,0,0,1,1.47-.55,4.53,4.53,0,0,1,1.54.56c0-.59.7-.89,1.3-.93a6.64,6.64,0,0,1,5.79,2.78,2.22,2.22,0,0,0,.37.44,2.51,2.51,0,0,0,.87.38,3.49,3.49,0,0,1,1.94,2.27,10.11,10.11,0,0,1,.3,3,9.63,9.63,0,0,1-.21,2.33A5.41,5.41,0,0,1,161.45,131.92Z" transform="translate(-23.37 -29)"/><path fill="#fff" d="M153.17,150.79a35.53,35.53,0,0,1,4,2,2.92,2.92,0,0,1,1,.88,1.41,1.41,0,0,1,.14,1.39c-.36.63-1.19.4-1.82.18a24.35,24.35,0,0,0-9.12-1.26,1.17,1.17,0,0,1-1.1-.46,1.43,1.43,0,0,1,.12-1.24C148,149.11,150.6,149.62,153.17,150.79Z" transform="translate(-23.37 -29)"/><path fill="#fff" d="M198.41,154.75c-3.45,2-6.91,3.91-9.57,6.82-2,2.17-3.41,4.79-5.41,6.93s-4.5,3.77-6.68,5.73c-4.25,3.83-6.55,11.07-7.05,16.68a24.28,24.28,0,0,0,0,4c.35,4.47,1.92,9.09.37,13.31a6.12,6.12,0,0,1-1.49,2.37,7.16,7.16,0,0,1-2.23,1.31,20.77,20.77,0,0,1-4.45,1.27,19.7,19.7,0,0,1-2.65.29c-3.26.12-6.5-.52-9.75-.35-2.77.14-5.51.85-8.28.76a3.52,3.52,0,0,1-2.78-1.05,3.65,3.65,0,0,1-.56-1.6,101.56,101.56,0,0,1-1.67-18,92.79,92.79,0,0,0-.73-11.78c-.73-5.36-4.32-9.8-7-14.36-1.58-2.65-3.16-5.31-4.9-7.87s-3.51-4.83-5.08-7.36a86.36,86.36,0,0,1-5-10c-1.1-2.42-2.19-4.85-3.06-7.37l3.79-3.14c3.87,3.12,6,7.84,9.18,11.69a45.64,45.64,0,0,0,9.31,8.18,17.6,17.6,0,0,0,5.43,2.87,14.62,14.62,0,0,0,8.18-.52c6.86-2.35,14.51,2.33,21.55,1.58,4.1-.43,7.84-2.6,11.65-4,4.35-1.65,8.77-3.14,13.23-4.45a9.89,9.89,0,0,0,2.76-1.12,10.45,10.45,0,0,0,1.85-1.79,197.79,197.79,0,0,1,13.88-14.49,1.71,1.71,0,0,1,.93-.55,1.68,1.68,0,0,1,1,.36l3.3,2a20.86,20.86,0,0,1-3.58,8.25,50.3,50.3,0,0,0-3.06,4.18c-1.27,2.22-1.78,4.76-3.8,6.42A53.44,53.44,0,0,1,198.41,154.75Z" transform="translate(-23.37 -29)"/><path fill="#fdb9a9" d="M106.42,130.33a2.52,2.52,0,0,1-.59-1.38,1,1,0,0,1,.85-1.09,13.48,13.48,0,0,1-.44-6.15,3.56,3.56,0,0,1,.75-1.85,3.26,3.26,0,0,1,2.37-.81,1.76,1.76,0,0,1,1.29.35,1.9,1.9,0,0,1,.4.67,88.28,88.28,0,0,1,3.31,9.19,5.85,5.85,0,0,1,.32,3.07C113.41,137.23,108.09,132.56,106.42,130.33Z" transform="translate(-23.37 -29)"/><path fill="#fff" d="M240.36,151.14a11,11,0,0,1-3.59-1.84q-7.87-5.42-15.48-11.22c-1.38-1.06-2.89-2.36-2.95-4.1-.06-1.91,1.76-3.45,3.65-3.76a11.88,11.88,0,0,1,5.59.87l11.49,3.75a3,3,0,0,0,1.64.2,3,3,0,0,0,1.51-1.27c1.65-2.11,3.8-4.18,6.48-4.31,6.5-.31,8.09,8.79,5.73,13.34C252.36,146.78,244.83,152.17,240.36,151.14Z" transform="translate(-23.37 -29)"/><path fill="#a67c52" d="M187.88,95.53a1.71,1.71,0,0,1,1.69-.86c.89.19,1.27,1.23,1.45,2.12a22.34,22.34,0,0,1,0,8.47,3.91,3.91,0,0,1-.38,1.2,3.35,3.35,0,0,1-1.1,1.05c-2.53,1.65-5.7-.05-4.67-3.11.44-1.29,1.24-2.42,1.66-3.73C187.09,99.07,187,97,187.88,95.53Z" transform="translate(-23.37 -29)"/><path fill="#f99885" d="M194.23,101.2c-.44-1.91-.82-4-2.17-5.38a1.13,1.13,0,0,0-.43-.32.93.93,0,0,0-1.08.61,3,3,0,0,0-.1,1.35,18.76,18.76,0,0,1-.4,5.44,8.84,8.84,0,0,0-.4,3.5,7.21,7.21,0,0,0,2.49,3.64c.7.66,1.63,1.38,2.52,1a2,2,0,0,0,.63-.45c1-1,2.07-3.17,1.37-4.58-.37-.74-1.18-1.3-1.56-2.11A12.89,12.89,0,0,1,194.23,101.2Z" transform="translate(-23.37 -29)"/><path fill="#f99885" d="M225,128.58a8.48,8.48,0,0,1-.58,5.23,4.69,4.69,0,0,1-3.77,2.34,4.47,4.47,0,0,1-3.91-2,5.75,5.75,0,0,1-.61-4.16,17.36,17.36,0,0,1,1.49-4c.79-1.69,2-5.75,4.58-4.4C224,122.51,225,126.72,225,128.58Z" transform="translate(-23.37 -29)"/><path fill="#fdb9a9" d="M217.42,121.09c.73-1,2-1.86,3.14-1.45s1.61,2.09,1.62,3.44a22.53,22.53,0,0,1-1.69,8.69,4.57,4.57,0,0,1-.73,1.29c-.71.79-3.31,1.7-4.28,1-.77-.58-1-3-1-3.95A17.3,17.3,0,0,1,217.42,121.09Z" transform="translate(-23.37 -29)"/></svg>