<svg height="185" viewBox="0 0 275.15 230.42" width="200" xmlns="http://www.w3.org/2000/svg" xmlns:xlink="http://www.w3.org/1999/xlink"><linearGradient id="a" gradientUnits="userSpaceOnUse" x1="206.37" x2="201.84" y1="182.09" y2="123.73"><stop offset=".01"/><stop offset=".13" stop-opacity=".69"/><stop offset=".25" stop-opacity=".32"/><stop offset="1" stop-opacity="0"/></linearGradient><linearGradient id="b" x1="161.38" x2="212.51" xlink:href="#a" y1="150.67" y2="126.88"/><linearGradient id="c" x1="121.93" x2="100.9" xlink:href="#a" y1="260.13" y2="-112.06"/><linearGradient id="d" x1="183.75" x2="162.71" xlink:href="#a" y1="256.64" y2="-115.56"/><linearGradient id="e" gradientTransform="matrix(-1 0 0 1 1129.59 0)" x1="955.21" x2="974.46" xlink:href="#a" y1="145.56" y2="155.11"/><linearGradient id="f" gradientTransform="matrix(-1 0 0 1 1129.59 0)" x1="939.55" x2="950.72" xlink:href="#a" y1="170.59" y2="145.46"/><linearGradient id="g" gradientTransform="matrix(-1 0 0 1 1129.59 0)" x1="957.62" x2="1028.45" xlink:href="#a" y1="86.47" y2="184.64"/><linearGradient id="h" x1="154.75" x2="111.3" xlink:href="#a" y1="76.42" y2="139.71"/><linearGradient id="i" gradientTransform="matrix(-1 0 0 1 1129.59 0)" x1="983.37" x2="992.55" xlink:href="#a" y1="56.47" y2="76.53"/><linearGradient id="j" x1="71.9" x2="67.36" xlink:href="#a" y1="164.55" y2="106.18"/><linearGradient id="k" x1="26.9" x2="78.04" xlink:href="#a" y1="133.12" y2="109.34"/><linearGradient id="l" x1="202.92" x2="198.38" xlink:href="#a" y1="106.43" y2="48.07"/><linearGradient id="m" x1="157.92" x2="209.05" xlink:href="#a" y1="75.01" y2="51.22"/><linearGradient id="n" x1="153.88" x2="94.78" xlink:href="#a" y1="80.39" y2="35.33"/><path d="m82.85 28.82c-9.41 11.59-15.27 26-23.38 38.66-6 9.46-13.32 17.93-19.42 27.35-12.16 18.76-19.5 41.63-18.16 64.48s12 45.41 29.77 57.92c10.91 7.69 23.82 11.34 36.66 13.71 43.23 8 89.76 1.84 126.7-23.67 6.34-4.38 12.41-9.32 19.29-12.64 17.67-8.54 40.59-6.56 53.4-22.24 7.71-9.44 9.41-22.94 9.15-35.53-.31-15.12-3.27-31-12.48-42.34-12-14.87-31.6-18.85-47.82-28-15.81-8.87-28.56-22.82-42.14-35.28-32.67-29.99-79.67-41.71-111.57-2.42z" fill="#ed8936" opacity=".18" transform="translate(-21.74 -3.78)"/><path d="m239.59 152.93a6.76 6.76 0 0 1 -2.13 4.94 7.09 7.09 0 0 1 -4.23 1.92 5.26 5.26 0 0 1 -.89 0l-49.67-1a7.31 7.31 0 0 1 -7.23-7.19 6.8 6.8 0 0 1 2.11-4.95 7.27 7.27 0 0 1 5.12-2h1.69a13.84 13.84 0 0 1 -.53-3.77 13.39 13.39 0 0 1 4.18-9.74 13.85 13.85 0 0 1 4-2.67 14.45 14.45 0 0 1 6.08-1.2l4.22.09a14.66 14.66 0 0 1 12.69 7.86 8.59 8.59 0 0 1 3.9-.83h1.09a8.68 8.68 0 0 1 8.59 8.53v.41a8 8 0 0 1 -.34 2.3l4.11.08a7.34 7.34 0 0 1 7.24 7.22z" fill="#fff" transform="translate(-21.74 -3.78)"/><path d="m233.23 159.79a5.26 5.26 0 0 1 -.89 0l-49.67-1a7.31 7.31 0 0 1 -7.23-7.19 6.8 6.8 0 0 1 2.11-4.95c-2 12.27 10.85 10.51 10.85 10.51h32.27z" fill="url(#a)" transform="translate(-21.74 -3.78)"/><path d="m188 146.13-3.61-1.37a13.84 13.84 0 0 1 -.53-3.77 13.39 13.39 0 0 1 4.18-9.74 13.85 13.85 0 0 1 4-2.67c-9.99 8.56-4.04 17.55-4.04 17.55z" fill="url(#b)" transform="translate(-21.74 -3.78)"/><ellipse cx="106" cy="161.58" fill="#ed8936" opacity=".23" rx="63.54" ry="57.39"/><g transform="translate(-21.74 -3.78)"><path d="m206.63 155.85a61.13 61.13 0 0 1 -12.35 36.92l-.13.18a61.37 61.37 0 1 1 12.48-37.1z" fill="#ed8936"/><path d="m125.51 125.66c-3.37 1.39-7.09 1.72-10.55 2.86s-6.93 3.44-7.82 7c-.46 1.79-.22 3.78-1.1 5.4-1.17 2.18-3.91 3-5.57 4.8-3.16 3.48-1.08 9.45 2.78 12.14s8.79 3.1 13.41 3.89a6.35 6.35 0 0 1 3.46 1.37c2.69 2.57-.29 7.22.85 10.76.64 2 2.53 3.37 3.39 5.29 1.65 3.66-.85 7.7-2.5 11.36a28.22 28.22 0 0 0 -.75 21.12 4.12 4.12 0 0 1 -.38.47 61.81 61.81 0 0 1 -17.81-11.86c-5.07-7.11-9.08-14.86-8.66-23.38.23-4.62 1.77-9.08 2.06-13.68.48-7.47-2.22-15.58 1.44-22.1 2-3.61 5.9-7.57 3.72-11.07-3.85.56-8 .65-11.53-.69a61.4 61.4 0 0 1 46.18-34.14c3.8 10.86.78 25.66-10.62 30.46z" fill="url(#c)"/><path d="m206.63 155.85a61.25 61.25 0 0 1 -1.09 11.57 41.62 41.62 0 0 0 -4.57 4.33c-4.85 5.68-5.9 13.56-6.69 21 0 .16 0 .32-.05.47 0-.1 0-.19-.08-.29a12.35 12.35 0 0 0 -2.43-5.23c-1.38-1.49-3.83-2.23-5.51-1.06q-1.2-3-2.41-5.95c-5 0-10.16 0-14.86-1.77s-8.59-5.16-12.35-8.47a82.61 82.61 0 0 0 -.32-17.22 59.76 59.76 0 0 0 37.95-19.41 43.36 43.36 0 0 0 -25 6.45c-1.6 1-3.22 2.12-5.09 2.28a11 11 0 0 1 -3.5-.48l-12.09-3.07c-1.51-7.78 3.88-15.59 10.81-19.44 5.2-2.88 11.51-2.32 16.5-4.84 3.42-1.72 4.42-4.73 7.41-6.94h.06a61.26 61.26 0 0 1 23.31 48.07z" fill="url(#d)"/><path d="m164.25 143.42c-.36 1.18-.7 2.56 0 3.55a3 3 0 0 0 1.31.93 3.59 3.59 0 0 0 3.73-.39 4.84 4.84 0 0 0 1.13-2.12 49.31 49.31 0 0 0 2-8.81 1.59 1.59 0 0 0 0-.84 1.43 1.43 0 0 0 -.71-.64c-1.59-.85-4.08-1.53-5 .35-1.13 2.42-1.66 5.41-2.46 7.97z" fill="#fbc4d6"/><path d="m169.06 144.79a2.24 2.24 0 0 1 1 .09 1.76 1.76 0 0 1 .56.49l3.45 3.87c.67.75 1.37 1.78.9 2.67a2 2 0 0 1 -1.48.88 8.77 8.77 0 0 1 -4.84-.95c-1.06-.46-2.11-1-3.14-1.5a5.18 5.18 0 0 1 -1.95-1.54c-.79-1.2-1-4.08.38-5 .71-.45 1.33-.13 2 .18a6.65 6.65 0 0 0 3.12.81z" fill="#ed8936"/><path d="m183.37 156.6a1.48 1.48 0 0 1 -.07.66 1.31 1.31 0 0 1 -.5.49 4.28 4.28 0 0 1 -2.22.75 2.58 2.58 0 0 1 -2.09-.94 4.3 4.3 0 0 1 -.65-1.93 22.45 22.45 0 0 1 -.43-4.48.62.62 0 0 1 .59-.74c1.24-.26 3.71-.91 4.34.61a17.66 17.66 0 0 1 1.03 5.58z" fill="#fbc4d6"/><path d="m188.62 156.45a11.8 11.8 0 0 1 3.13.6 3.89 3.89 0 0 1 2.28 2.09 2.16 2.16 0 0 1 .07 1.5 3.23 3.23 0 0 1 -1.7 1.61 21.68 21.68 0 0 1 -11.58 2.49 4 4 0 0 1 -2.81-1 4.4 4.4 0 0 1 -.74-2.81l-.14-4.7a5.85 5.85 0 0 1 2.58.73c1.48.5 2.06-.7 3.28-1 1.59-.37 4.01.33 5.63.49z" fill="#ed8936"/><path d="m169.06 144.79a2.24 2.24 0 0 1 1 .09 1.76 1.76 0 0 1 .56.49l3.45 3.87c.67.75 1.37 1.78.9 2.67a2 2 0 0 1 -1.48.88 8.77 8.77 0 0 1 -4.84-.95c-1.06-.46-2.11-1-3.14-1.5a5.18 5.18 0 0 1 -1.95-1.54c-.79-1.2-1-4.08.38-5 .71-.45 1.33-.13 2 .18a6.65 6.65 0 0 0 3.12.81z" fill="url(#e)"/><path d="m188.62 156.45a11.8 11.8 0 0 1 3.13.6 3.89 3.89 0 0 1 2.28 2.09 2.16 2.16 0 0 1 .07 1.5 3.23 3.23 0 0 1 -1.7 1.61 21.68 21.68 0 0 1 -11.58 2.49 4 4 0 0 1 -2.81-1 4.4 4.4 0 0 1 -.74-2.81l-.14-4.7a5.85 5.85 0 0 1 2.58.73c1.48.5 2.06-.7 3.28-1 1.59-.37 4.01.33 5.63.49z" fill="url(#f)"/><path d="m131.65 105.53a31.7 31.7 0 0 0 -6.46.1 1.64 1.64 0 0 0 -.79.25 1.4 1.4 0 0 0 -.44 1c-.3 2.9 2 5.42 4.48 6.95 6.71 4.16 15.17 4 22.58 6.72a3.4 3.4 0 0 1 1.79 1.17 4.21 4.21 0 0 1 .44 2c.33 3.91 2.5 7.43 3.22 11.28s-.05 7.88.54 11.76c2.43-2.59 6.57-3 9-5.56 2.28-2.36 2.73-5.88 3.07-9.14l.92-8.94a2.74 2.74 0 0 0 -1.62-3.24c-10.94-7.07-23.76-13.23-36.73-14.35z" fill="url(#g)"/><path d="m175.89 104.63a5.69 5.69 0 0 1 2.71 1.37 5.48 5.48 0 0 1 1 3.76 76.27 76.27 0 0 1 -5.29 27.72 1.91 1.91 0 0 1 -2.79 1.49 63 63 0 0 1 -6.14-2l2.72-18a2.5 2.5 0 0 0 -.08-1.51 2.44 2.44 0 0 0 -.82-.84 72.33 72.33 0 0 0 -9.8-6c-2.73-1.38-5.86-3-6.6-5.92a3.25 3.25 0 0 1 .54-2.95 4.81 4.81 0 0 1 1.5-1c1.81-.89 4.09-2 6.17-1.82 1.67.17 2.31 1.13 3.7 1.84 3.86 1.92 8.99 2.64 13.18 3.86z" fill="#282328"/><path d="m157.31 76c1.34 3.69 2 7.6 3.18 11.33a7.29 7.29 0 0 0 1.36 2.71 7.5 7.5 0 0 0 3 1.76q2.35.91 4.78 1.59c1.08.29 2.37.79 2.49 1.89a2 2 0 0 1 -.22 1.06 5 5 0 0 1 -4.16 2.55 13.46 13.46 0 0 1 -5-.82 7.51 7.51 0 0 1 -3.84-2.07 8.13 8.13 0 0 1 -1.23-2.9 82.51 82.51 0 0 0 -6.79-16.78 19 19 0 0 1 -2-4.5c-.66-2.76-.67-9.3 2.18-6.9 2.3 1.94 5.24 8.34 6.25 11.08z" fill="#fbc4d6"/><path d="m146.4 104.28a40.64 40.64 0 0 0 4.91-2.29c6-3.32 1.09-4.95-.91-8.94-1.43-2.83-.85-6.22-.11-9.29 1.31-5.4 3.06-11 1.8-16.39a6.3 6.3 0 0 0 -1-2.44 6.89 6.89 0 0 0 -1.26-1.21 13.6 13.6 0 0 0 -4.3-2.51c-3-1-6.4-.27-9.25 1.16-11.2 5.62-13.59 19.81-13.14 31.16.12 3.15.61 6.48 2.64 8.89s4.9 3.33 7.84 3.69a26.71 26.71 0 0 0 12.78-1.83z" fill="#fff"/><path d="m129.7 97.86a6.73 6.73 0 0 0 1 3c1 1.41 2.84 1.93 4.53 2.34l7.61 1.88a10 10 0 0 0 2.86.43c2.08-.1 3.87-1.43 5.52-2.71a4.23 4.23 0 0 0 1.08-1.07c-4.2-.4-8.39-.82-12.57-1.43-2.46-.36-5.06-.86-6.87-2.55a8.62 8.62 0 0 1 -2.08-3.29c-.3-.77-.44-2.73-1.31-2.9a22.52 22.52 0 0 0 .23 6.3z" fill="url(#h)"/><path d="m144.72 70a1.19 1.19 0 0 1 -.35.84 1.08 1.08 0 0 1 -.69.14 5.49 5.49 0 0 1 -5.14-6.49c.18-1 .61-1.86.88-2.8.53-1.88.44-4 1.63-5.55a62.17 62.17 0 0 0 3.52 6.86 3.72 3.72 0 0 1 .66 3.13z" fill="#fbc4d6"/><path d="m145.31 65.16-.45 3s-5.15-2.55-4.48-7.28 4.93 4.28 4.93 4.28z" fill="url(#i)"/><path d="m151.33 62.24a4.75 4.75 0 0 1 -1.6 2.44 3.6 3.6 0 0 1 -1.22.53 7.39 7.39 0 0 1 -7.87-3.67 10.81 10.81 0 0 1 -.42-9 6.31 6.31 0 0 1 3-3.71 5.15 5.15 0 0 1 4.84.57 11.79 11.79 0 0 1 4.21 5.32c.73 2.19-.19 5.43-.94 7.52z" fill="#fbc4d6"/><path d="m173.94 117.2a19.49 19.49 0 0 1 3 5.41 107.66 107.66 0 0 1 7.59 29.69 39.11 39.11 0 0 1 -9.67 0 90.56 90.56 0 0 0 -3.31-21.3 13.76 13.76 0 0 0 -1.75-4.22c-1.43-2.07-3.78-3.27-6-4.39a88.48 88.48 0 0 0 -16.21-6c-2.36-.65-4.74-1.25-7.06-2-1.95-.66-7.42-3.08-9-4.39a7.71 7.71 0 0 1 -3-5.25c0 .52 15.24 1.56 16.33 1.44 3.67-.39 8-2.49 11.62-1 2.83 1.16 5.42 3.58 8 5.25 3.13 1.96 6.95 3.86 9.46 6.76z" fill="#473f47"/></g><path d="m135.5 112.65-18.6-9.09 21.81-9.25 18.61 8.13z" fill="#ed8936"/><path d="m128.91 73.75c0 .35-.09.69-.13 1-.55 5.12-.05 10.14.14 15.23.12 3.15.53 9.15 3.88 10.76 6.26 3 18.34 1.86 18.34 1.86a10.64 10.64 0 0 1 4.21.17c.75.23 1.44.62 2.17.9 2.64 1 5.59.5 8.37 0a3.58 3.58 0 0 0 1.36-.45 2.47 2.47 0 0 0 .23-3.46 6.35 6.35 0 0 0 -3.36-1.85 19.88 19.88 0 0 0 -10.86-.42 12.12 12.12 0 0 1 -1.4.38 9.43 9.43 0 0 1 -1.68.12h-4.26c-4.9 0-9.52.06-10.26-5.67a31.12 31.12 0 0 1 -.16-6.4c.29-3.85 1.3-7.67 1.09-11.52a7.64 7.64 0 0 0 -.89-3.5 3.56 3.56 0 0 0 -2.94-1.86 3.67 3.67 0 0 0 -3 2 8 8 0 0 0 -.85 2.71z" fill="#fbc4d6" transform="translate(-21.74 -3.78)"/><path d="m164.98 84.1-26 13.23-3.48 15.32 21.82-10.21z" fill="#ed8936"/><path d="m152.61 56.72a4.18 4.18 0 0 0 -1-2.59 4.42 4.42 0 0 0 -1.1-.92c-.58-.34-.72-.37-1.1.18-.49.71-.65 1.54-1.1 2.28a5.83 5.83 0 0 1 -2 2 5.42 5.42 0 0 1 -3.08.81 4.35 4.35 0 0 0 -1.3 0 1 1 0 0 0 -.69.5 3.34 3.34 0 0 0 -.11 1.15c-.09 1-1.08 1.71-1.63 2.58s-.71 2.16-1.37 3.09a1.29 1.29 0 0 1 -.49.44c-.47.2-1-.06-1.49-.15-1.45-.25-2.62 1.1-3.86 1.92-2.49 1.64-5.75 1.22-8.69.73a8.65 8.65 0 0 1 -2.6-.74 8.76 8.76 0 0 1 -2.33-2c-1.09-1.2-2.17-2.42-3.24-3.64a4.21 4.21 0 0 1 -.93-1.37 2.46 2.46 0 0 1 -.09-1.11 6.71 6.71 0 0 1 .61-2c.78-1.75 1.69-3.65 3.45-4.44s3.84-.2 5.78-.4a1.15 1.15 0 0 0 .66-.21 1.44 1.44 0 0 0 .32-.61c.81-2.69 1.82-5.61 4.24-7a9.71 9.71 0 0 1 6-.79 23.69 23.69 0 0 0 6.11.35c1-.16 2-.49 3-.69a9.79 9.79 0 0 1 6.88 1 7.26 7.26 0 0 1 3.54 5.91 8.28 8.28 0 0 0 0 1.41c.07.44.26.87.33 1.31a2.71 2.71 0 0 1 -2.72 3z" fill="#ff681c" transform="translate(-21.74 -3.78)"/><path d="m128 76.59a44.09 44.09 0 0 0 -.1 8.52 1.22 1.22 0 0 0 .18.7 1.24 1.24 0 0 0 .82.4 27.87 27.87 0 0 0 4.91.47 1.65 1.65 0 0 0 2.14-1.37c.9-3.76 1.79-7.52 2.47-11.33.27-1.53.46-3.25-.46-4.49-1.33-1.8-4.92-2-6.65-.69-2.09 1.61-2.98 5.37-3.31 7.79z" fill="#fff" transform="translate(-21.74 -3.78)"/><path d="m156.3 71.79 2.83 6.78a1.46 1.46 0 0 1 .16.86 1.36 1.36 0 0 1 -.4.63 16.31 16.31 0 0 1 -4.84 3.52 16.9 16.9 0 0 1 -4-5.34c-.94-2.41-.73-5.09-.45-7.66.17-1.63.11-6.87 2.88-4.84 1.93 1.39 2.95 3.96 3.82 6.05z" fill="#fff" transform="translate(-21.74 -3.78)"/><path d="m105.11 135.39a6.8 6.8 0 0 1 -2.12 4.94 7.12 7.12 0 0 1 -4.23 1.92 8.7 8.7 0 0 1 -.89 0l-49.67-1a7.32 7.32 0 0 1 -7.24-7.2 6.8 6.8 0 0 1 2.12-4.94 7.17 7.17 0 0 1 5.12-2h1.69a13.54 13.54 0 0 1 -.53-3.78 13.38 13.38 0 0 1 4.18-9.74 13.68 13.68 0 0 1 4-2.66 14.42 14.42 0 0 1 6.08-1.2l4.22.09a14.69 14.69 0 0 1 12.67 7.74 8.86 8.86 0 0 1 3.9-.83h1.09a8.69 8.69 0 0 1 8.58 8.54v.41a7.83 7.83 0 0 1 -.33 2.29l4.11.09a7.32 7.32 0 0 1 7.25 7.33z" fill="#fff" transform="translate(-21.74 -3.78)"/><path d="m98.76 142.25a8.7 8.7 0 0 1 -.89 0l-49.67-1a7.32 7.32 0 0 1 -7.24-7.2 6.8 6.8 0 0 1 2.12-4.94c-1.95 12.26 10.85 10.51 10.85 10.51h32.27z" fill="url(#j)" transform="translate(-21.74 -3.78)"/><path d="m53.49 128.59-3.6-1.37a13.54 13.54 0 0 1 -.53-3.78 13.38 13.38 0 0 1 4.18-9.74 13.68 13.68 0 0 1 4-2.66c-9.97 8.56-4.05 17.55-4.05 17.55z" fill="url(#k)" transform="translate(-21.74 -3.78)"/><path d="m236.13 77.27a6.78 6.78 0 0 1 -2.13 4.94 7.15 7.15 0 0 1 -4.24 1.92 5.21 5.21 0 0 1 -.89 0l-49.66-1a7.31 7.31 0 0 1 -7.21-7.13 6.8 6.8 0 0 1 2.11-5 7.3 7.3 0 0 1 5.13-2h1.68a13.84 13.84 0 0 1 -.53-3.77 13.39 13.39 0 0 1 4.18-9.74 13.76 13.76 0 0 1 4-2.67 14.39 14.39 0 0 1 6.08-1.2l4.22.09a14.66 14.66 0 0 1 12.66 7.75 8.62 8.62 0 0 1 3.9-.83h1.09a8.68 8.68 0 0 1 8.59 8.53v.41a8 8 0 0 1 -.34 2.3l4.11.08a7.34 7.34 0 0 1 7.25 7.32z" fill="#fff" transform="translate(-21.74 -3.78)"/><path d="m229.77 84.13a5.21 5.21 0 0 1 -.89 0l-49.66-1a7.31 7.31 0 0 1 -7.22-7.13 6.8 6.8 0 0 1 2.11-5c-2 12.27 10.85 10.51 10.85 10.51h32.27z" fill="url(#l)" transform="translate(-21.74 -3.78)"/><path d="m184.51 70.47-3.61-1.37a13.84 13.84 0 0 1 -.53-3.77 13.39 13.39 0 0 1 4.18-9.74 13.76 13.76 0 0 1 4-2.67c-9.96 8.56-4.04 17.55-4.04 17.55z" fill="url(#m)" transform="translate(-21.74 -3.78)"/><path d="m142 58.5a1 1 0 0 0 -.69.5 3.34 3.34 0 0 0 -.11 1.15c-.09 1-1.08 1.71-1.63 2.58s-.71 2.16-1.37 3.09a1.29 1.29 0 0 1 -.49.44c-.47.2-1-.06-1.49-.15-1.45-.25-2.62 1.1-3.86 1.92-2.49 1.64-5.75 1.22-8.69.73a8.65 8.65 0 0 1 -2.67-.76 8.76 8.76 0 0 1 -2.33-2c-1.09-1.2-2.17-2.42-3.24-3.64a4.21 4.21 0 0 1 -.93-1.37 2.46 2.46 0 0 1 -.09-1.11 12.41 12.41 0 0 1 1.45-.75 6.73 6.73 0 0 1 5-.55c1.34.52 2.29 1.71 3.44 2.56a8.25 8.25 0 0 0 10.64-1 9.17 9.17 0 0 1 1.76-1.76c1.19-.65 3.61-.55 5.3.12z" fill="url(#n)" transform="translate(-21.74 -3.78)"/></svg>