<svg width="512" height="513" viewBox="0 0 512 513" fill="none"
  xmlns="http://www.w3.org/2000/svg">
  <rect y="0.360901" width="512" height="512" rx="29" fill="#FF0080"/>
  <path d="M290.258 150.873C281.633 141.975 271.75 135.532 260.609 131.544C249.469 127.555 237.969 125.561 226.109 125.561H223.953V80H224.492C246.055 80 266.179 83.0681 284.867 89.2042C303.554 95.3404 320.265 104.545 335 116.817L290.258 150.873ZM59 253.5C59 227.114 62.5937 203.797 69.7812 183.548C76.9687 162.992 86.8515 145.657 99.4296 131.544C112.008 117.124 127.101 105.772 144.711 97.4881C162.32 89.2042 181.367 83.9885 201.851 81.8408V127.862C191.07 130.317 181.008 134.458 171.664 140.288C162.68 146.117 154.594 154.248 147.406 164.679C140.578 174.804 135.187 187.229 131.234 201.956C127.281 216.376 125.125 233.557 124.766 253.5C125.125 273.443 127.281 290.931 131.234 305.964C135.187 320.998 140.578 334.037 147.406 345.082C154.594 355.821 162.68 364.411 171.664 370.854C181.008 377.297 191.07 381.746 201.851 384.2V426.08C181.367 423.932 162.32 418.716 144.711 410.432C127.101 401.842 112.008 390.336 99.4296 375.916C86.8515 361.496 76.9687 344.162 69.7812 323.912C62.5937 303.356 59 279.886 59 253.5ZM355.484 249.818H422.468V219.976L490 265.263L422.468 317.019V287.556H355.484V467.5C345 467.5 295.109 471 295.109 467.5C295.109 464 295.109 424.699 295.109 416.875C283.969 420.557 272.289 423.165 260.07 424.699C248.211 426.233 236.351 427 224.492 427H223.953V386.501C228.265 386.501 233.476 386.348 239.586 386.041C246.054 385.427 252.523 384.661 258.992 383.74C265.82 382.513 272.109 380.979 277.859 379.138C283.969 377.297 288.461 374.689 291.336 371.314V287.556H223.953V249.818H355.484Z" fill="#7928CA"/>
</svg>
