<svg width="512" height="512" viewBox="0 0 512 512" fill="none" xmlns="http://www.w3.org/2000/svg">
<rect width="512" height="512" rx="29" fill="#ED8936"/>
<path d="M102.4 289V285.4H111.6L89 239L85.2 240V285.4H94.4V289H37V285.4H48V142.6H36.2V139H85.2V236L88.4 234.8L133.4 197.4H114.6V193.8H154V197.4H140L116.2 217.6L150.8 285.4H158V289H102.4ZM165.623 291V255.2H168.023C171.49 266.8 176.157 274.933 182.023 279.6C187.89 284.267 195.223 286.6 204.023 286.6C217.623 286.6 224.423 282.267 224.423 273.6C224.423 269.867 222.757 267.067 219.423 265.2C214.223 262.267 207.557 260 199.423 258.4C190.357 256 182.757 252.8 176.623 248.8C169.29 244 165.623 236.4 165.623 226C165.623 215.6 168.823 207.333 175.223 201.2C181.623 194.933 190.157 191.8 200.823 191.8C207.357 191.8 214.09 193.333 221.023 196.4C223.557 197.467 225.49 198 226.823 198C228.157 198 229.29 197.533 230.223 196.6C231.157 195.667 232.29 193.933 233.623 191.4H235.823V222H233.423C226.623 204.667 216.09 196 201.823 196C195.557 196 190.89 197.133 187.823 199.4C184.757 201.533 183.223 204.267 183.223 207.6C183.223 209.6 183.69 211.2 184.623 212.4C185.557 213.467 186.29 214.267 186.823 214.8C187.357 215.333 188.223 215.933 189.423 216.6C190.623 217.133 191.623 217.6 192.423 218C193.223 218.267 194.423 218.667 196.023 219.2C197.757 219.733 199.023 220.067 199.823 220.2C208.89 222.467 215.423 224.467 219.423 226.2C223.423 227.8 227.223 229.8 230.823 232.2C238.157 237.267 241.823 245.467 241.823 256.8C241.823 268 238.49 276.533 231.823 282.4C225.157 288.133 216.023 291 204.423 291C196.157 291 188.157 289.067 180.423 285.2C178.823 284.133 177.557 283.6 176.623 283.6C173.69 283.6 170.823 286.067 168.023 291H165.623ZM246.775 193.8H294.975V212.2C297.108 206.067 300.375 201.133 304.775 197.4C309.175 193.667 315.842 191.8 324.775 191.8C345.442 191.8 355.775 202.933 355.775 225.2V285.4H366.975V289H310.375V285.4H318.575V220.4C318.575 212.4 318.042 207.267 316.975 205C315.908 202.6 313.975 201.4 311.175 201.4C306.908 201.4 303.108 204.2 299.775 209.8C296.575 215.4 294.975 222.2 294.975 230.2V285.4H303.575V289H246.775V285.4H257.775V197.4H246.775V193.8ZM417.617 242H423.417V226.6C423.417 213.933 422.684 205.467 421.217 201.2C419.884 196.8 417.217 194.6 413.217 194.6C410.817 194.6 408.617 195.267 406.617 196.6C404.751 197.8 403.817 199.533 403.817 201.8C403.817 203.933 404.217 206.133 405.017 208.4H410.017C411.084 211.2 411.617 214.6 411.617 218.6C411.617 222.467 409.951 225.867 406.617 228.8C403.284 231.6 399.084 233 394.017 233C382.551 233 376.817 227.467 376.817 216.4C376.817 200 390.751 191.8 418.617 191.8C434.484 191.8 445.417 194.533 451.417 200C457.551 205.333 460.617 215.2 460.617 229.6V270.2C460.617 277.133 462.551 280.6 466.417 280.6C470.951 280.6 473.617 273.733 474.417 260L477.417 260.2C476.884 271.933 474.684 280 470.817 284.4C466.951 288.8 460.617 291 451.817 291C435.817 291 426.617 286.067 424.217 276.2C422.484 281.267 419.884 285 416.417 287.4C412.951 289.8 407.884 291 401.217 291C381.484 291 371.617 282.933 371.617 266.8C371.617 257.333 375.351 250.867 382.817 247.4C390.417 243.8 402.017 242 417.617 242ZM409.617 266.6C409.617 273.533 409.951 278 410.617 280C411.417 282 412.817 283 414.817 283C416.951 283 418.884 281.333 420.617 278C422.484 274.533 423.417 269.8 423.417 263.8V245.2H422.017C413.751 245.2 409.617 251.267 409.617 263.4V266.6Z" fill="white"/>
<path d="M371.1 386C368.233 386 366.067 385.167 364.6 383.5C363.2 381.767 362.5 379.7 362.5 377.3C362.5 374.833 363.233 372.767 364.7 371.1C366.233 369.433 368.367 368.6 371.1 368.6C373.833 368.6 376 369.3 377.6 370.7C379.2 372.1 380 374.2 380 377C380 379.8 379.233 382 377.7 383.6C376.233 385.2 374.033 386 371.1 386ZM400.165 330.5C396.632 330.5 394.098 329.6 392.565 327.8C391.098 326 390.365 323.767 390.365 321.1C390.365 318.433 391.165 316.233 392.765 314.5C394.432 312.767 396.932 311.9 400.265 311.9C403.598 311.9 406.132 312.7 407.865 314.3C409.598 315.833 410.465 318.067 410.465 321C410.465 323.867 409.632 326.167 407.965 327.9C406.298 329.633 403.698 330.5 400.165 330.5ZM385.065 337.4H409.565V383.2H415.165V385H385.465V383.2H390.965V339.2H385.065V337.4ZM417.403 337.4H441.503V346.6C442.57 343.533 444.203 341.067 446.403 339.2C448.603 337.333 451.936 336.4 456.403 336.4C466.736 336.4 471.903 341.967 471.903 353.1V383.2H477.503V385H449.203V383.2H453.303V350.7C453.303 346.7 453.036 344.133 452.503 343C451.97 341.8 451.003 341.2 449.603 341.2C447.47 341.2 445.57 342.6 443.903 345.4C442.303 348.2 441.503 351.6 441.503 355.6V383.2H445.803V385H417.403V383.2H422.903V339.2H417.403V337.4Z" fill="white"/>
</svg>
