<svg xmlns="http://www.w3.org/2000/svg" width="1280" height="641" fill="none" viewBox="0 0 1280 641"><rect width="1280" height="640" fill="#fff"/><path fill="#ED8936" d="M383.29 362V358.94H391.11L371.9 319.5L368.67 320.35V358.94H376.49V362H327.7V358.94H337.05V237.56H327.02V234.5H368.67V316.95L371.39 315.93L409.64 284.14H393.66V281.08H427.15V284.14H415.25L395.02 301.31L424.43 358.94H430.55V362H383.29ZM437.03 363.7V333.27H439.07C442.017 343.13 445.983 350.043 450.97 354.01C455.957 357.977 462.19 359.96 469.67 359.96C481.23 359.96 487.01 356.277 487.01 348.91C487.01 345.737 485.593 343.357 482.76 341.77C478.34 339.277 472.673 337.35 465.76 335.99C458.053 333.95 451.593 331.23 446.38 327.83C440.147 323.75 437.03 317.29 437.03 308.45C437.03 299.61 439.75 292.583 445.19 287.37C450.63 282.043 457.883 279.38 466.95 279.38C472.503 279.38 478.227 280.683 484.12 283.29C486.273 284.197 487.917 284.65 489.05 284.65C490.183 284.65 491.147 284.253 491.94 283.46C492.733 282.667 493.697 281.193 494.83 279.04H496.7V305.05H494.66C488.88 290.317 479.927 282.95 467.8 282.95C462.473 282.95 458.507 283.913 455.9 285.84C453.293 287.653 451.99 289.977 451.99 292.81C451.99 294.51 452.387 295.87 453.18 296.89C453.973 297.797 454.597 298.477 455.05 298.93C455.503 299.383 456.24 299.893 457.26 300.46C458.28 300.913 459.13 301.31 459.81 301.65C460.49 301.877 461.51 302.217 462.87 302.67C464.343 303.123 465.42 303.407 466.1 303.52C473.807 305.447 479.36 307.147 482.76 308.62C486.16 309.98 489.39 311.68 492.45 313.72C498.683 318.027 501.8 324.997 501.8 334.63C501.8 344.15 498.967 351.403 493.3 356.39C487.633 361.263 479.87 363.7 470.01 363.7C462.983 363.7 456.183 362.057 449.61 358.77C448.25 357.863 447.173 357.41 446.38 357.41C443.887 357.41 441.45 359.507 439.07 363.7H437.03ZM547.631 322.05H552.561V308.96C552.561 298.193 551.938 290.997 550.691 287.37C549.558 283.63 547.291 281.76 543.891 281.76C541.851 281.76 539.981 282.327 538.281 283.46C536.694 284.48 535.901 285.953 535.901 287.88C535.901 289.693 536.241 291.563 536.921 293.49H541.171C542.078 295.87 542.531 298.76 542.531 302.16C542.531 305.447 541.114 308.337 538.281 310.83C535.448 313.21 531.878 314.4 527.571 314.4C517.824 314.4 512.951 309.697 512.951 300.29C512.951 286.35 524.794 279.38 548.481 279.38C561.968 279.38 571.261 281.703 576.361 286.35C581.574 290.883 584.181 299.27 584.181 311.51V346.02C584.181 351.913 585.824 354.86 589.111 354.86C592.964 354.86 595.231 349.023 595.911 337.35L598.461 337.52C598.008 347.493 596.138 354.35 592.851 358.09C589.564 361.83 584.181 363.7 576.701 363.7C563.101 363.7 555.281 359.507 553.241 351.12C551.768 355.427 549.558 358.6 546.611 360.64C543.664 362.68 539.358 363.7 533.691 363.7C516.918 363.7 508.531 356.843 508.531 343.13C508.531 335.083 511.704 329.587 518.051 326.64C524.511 323.58 534.371 322.05 547.631 322.05ZM540.831 342.96C540.831 348.853 541.114 352.65 541.681 354.35C542.361 356.05 543.551 356.9 545.251 356.9C547.064 356.9 548.708 355.483 550.181 352.65C551.768 349.703 552.561 345.68 552.561 340.58V324.77H551.371C544.344 324.77 540.831 329.927 540.831 340.24V342.96ZM600.472 281.08H641.442V296.72C643.255 291.507 646.032 287.313 649.772 284.14C653.512 280.967 659.178 279.38 666.772 279.38C684.338 279.38 693.122 288.843 693.122 307.77V358.94H702.642V362H654.532V358.94H661.502V303.69C661.502 296.89 661.048 292.527 660.142 290.6C659.235 288.56 657.592 287.54 655.212 287.54C651.585 287.54 648.355 289.92 645.522 294.68C642.802 299.44 641.442 305.22 641.442 312.02V358.94H648.752V362H600.472V358.94H609.822V284.14H600.472V281.08ZM745.688 322.05H750.618V308.96C750.618 298.193 749.994 290.997 748.748 287.37C747.614 283.63 745.348 281.76 741.948 281.76C739.908 281.76 738.038 282.327 736.338 283.46C734.751 284.48 733.958 285.953 733.958 287.88C733.958 289.693 734.298 291.563 734.978 293.49H739.228C740.134 295.87 740.588 298.76 740.588 302.16C740.588 305.447 739.171 308.337 736.338 310.83C733.504 313.21 729.934 314.4 725.627 314.4C715.881 314.4 711.008 309.697 711.008 300.29C711.008 286.35 722.851 279.38 746.538 279.38C760.024 279.38 769.318 281.703 774.418 286.35C779.631 290.883 782.238 299.27 782.238 311.51V346.02C782.238 351.913 783.881 354.86 787.168 354.86C791.021 354.86 793.288 349.023 793.968 337.35L796.518 337.52C796.064 347.493 794.194 354.35 790.908 358.09C787.621 361.83 782.238 363.7 774.758 363.7C761.158 363.7 753.338 359.507 751.298 351.12C749.824 355.427 747.614 358.6 744.668 360.64C741.721 362.68 737.414 363.7 731.748 363.7C714.974 363.7 706.588 356.843 706.588 343.13C706.588 335.083 709.761 329.587 716.108 326.64C722.568 323.58 732.428 322.05 745.688 322.05ZM738.888 342.96C738.888 348.853 739.171 352.65 739.738 354.35C740.418 356.05 741.608 356.9 743.308 356.9C745.121 356.9 746.764 355.483 748.238 352.65C749.824 349.703 750.618 345.68 750.618 340.58V324.77H749.428C742.401 324.77 738.888 329.927 738.888 340.24V342.96Z"/><path fill="#ED8936" d="M675.942 455C673.075 455 670.909 454.167 669.442 452.5C668.042 450.767 667.342 448.7 667.342 446.3C667.342 443.833 668.075 441.767 669.542 440.1C671.075 438.433 673.209 437.6 675.942 437.6C678.675 437.6 680.842 438.3 682.442 439.7C684.042 441.1 684.842 443.2 684.842 446C684.842 448.8 684.075 451 682.542 452.6C681.075 454.2 678.875 455 675.942 455ZM705.007 399.5C701.474 399.5 698.94 398.6 697.407 396.8C695.94 395 695.207 392.767 695.207 390.1C695.207 387.433 696.007 385.233 697.607 383.5C699.274 381.767 701.774 380.9 705.107 380.9C708.44 380.9 710.974 381.7 712.707 383.3C714.44 384.833 715.307 387.067 715.307 390C715.307 392.867 714.474 395.167 712.807 396.9C711.14 398.633 708.54 399.5 705.007 399.5ZM689.907 406.4H714.407V452.2H720.007V454H690.307V452.2H695.807V408.2H689.907V406.4ZM722.245 406.4H746.345V415.6C747.412 412.533 749.045 410.067 751.245 408.2C753.445 406.333 756.779 405.4 761.245 405.4C771.579 405.4 776.745 410.967 776.745 422.1V452.2H782.345V454H754.045V452.2H758.145V419.7C758.145 415.7 757.879 413.133 757.345 412C756.812 410.8 755.845 410.2 754.445 410.2C752.312 410.2 750.412 411.6 748.745 414.4C747.145 417.2 746.345 420.6 746.345 424.6V452.2H750.645V454H722.245V452.2H727.745V408.2H722.245V406.4Z"/><path fill="#000" d="M362.58 83.42C362.58 86.9 361.38 89.8 358.98 92.12C356.62 94.4 353 95.54 348.12 95.54H340.08V113H334.62V71.18H348.12C352.84 71.18 356.42 72.32 358.86 74.6C361.34 76.88 362.58 79.82 362.58 83.42ZM348.12 91.04C351.16 91.04 353.4 90.38 354.84 89.06C356.28 87.74 357 85.86 357 83.42C357 78.26 354.04 75.68 348.12 75.68H340.08V91.04H348.12ZM399.366 95.3C399.366 96.34 399.306 97.44 399.186 98.6H372.906C373.106 101.84 374.206 104.38 376.206 106.22C378.246 108.02 380.706 108.92 383.586 108.92C385.946 108.92 387.906 108.38 389.466 107.3C391.066 106.18 392.186 104.7 392.826 102.86H398.706C397.826 106.02 396.066 108.6 393.426 110.6C390.786 112.56 387.506 113.54 383.586 113.54C380.466 113.54 377.666 112.84 375.186 111.44C372.746 110.04 370.826 108.06 369.426 105.5C368.026 102.9 367.326 99.9 367.326 96.5C367.326 93.1 368.006 90.12 369.366 87.56C370.726 85 372.626 83.04 375.066 81.68C377.546 80.28 380.386 79.58 383.586 79.58C386.706 79.58 389.466 80.26 391.866 81.62C394.266 82.98 396.106 84.86 397.386 87.26C398.706 89.62 399.366 92.3 399.366 95.3ZM393.726 94.16C393.726 92.08 393.266 90.3 392.346 88.82C391.426 87.3 390.166 86.16 388.566 85.4C387.006 84.6 385.266 84.2 383.346 84.2C380.586 84.2 378.226 85.08 376.266 86.84C374.346 88.6 373.246 91.04 372.966 94.16H393.726ZM446.113 79.52C448.673 79.52 450.953 80.06 452.953 81.14C454.953 82.18 456.533 83.76 457.693 85.88C458.853 88 459.433 90.58 459.433 93.62V113H454.033V94.4C454.033 91.12 453.213 88.62 451.573 86.9C449.973 85.14 447.793 84.26 445.033 84.26C442.193 84.26 439.933 85.18 438.253 87.02C436.573 88.82 435.733 91.44 435.733 94.88V113H430.333V94.4C430.333 91.12 429.513 88.62 427.873 86.9C426.273 85.14 424.093 84.26 421.333 84.26C418.493 84.26 416.233 85.18 414.553 87.02C412.873 88.82 412.033 91.44 412.033 94.88V113H406.573V80.12H412.033V84.86C413.113 83.14 414.553 81.82 416.353 80.9C418.193 79.98 420.213 79.52 422.413 79.52C425.173 79.52 427.613 80.14 429.733 81.38C431.853 82.62 433.433 84.44 434.473 86.84C435.393 84.52 436.913 82.72 439.033 81.44C441.153 80.16 443.513 79.52 446.113 79.52ZM498.39 95.3C498.39 96.34 498.33 97.44 498.21 98.6H471.93C472.13 101.84 473.23 104.38 475.23 106.22C477.27 108.02 479.73 108.92 482.61 108.92C484.97 108.92 486.93 108.38 488.49 107.3C490.09 106.18 491.21 104.7 491.85 102.86H497.73C496.85 106.02 495.09 108.6 492.45 110.6C489.81 112.56 486.53 113.54 482.61 113.54C479.49 113.54 476.69 112.84 474.21 111.44C471.77 110.04 469.85 108.06 468.45 105.5C467.05 102.9 466.35 99.9 466.35 96.5C466.35 93.1 467.03 90.12 468.39 87.56C469.75 85 471.65 83.04 474.09 81.68C476.57 80.28 479.41 79.58 482.61 79.58C485.73 79.58 488.49 80.26 490.89 81.62C493.29 82.98 495.13 84.86 496.41 87.26C497.73 89.62 498.39 92.3 498.39 95.3ZM492.75 94.16C492.75 92.08 492.29 90.3 491.37 88.82C490.45 87.3 489.19 86.16 487.59 85.4C486.03 84.6 484.29 84.2 482.37 84.2C479.61 84.2 477.25 85.08 475.29 86.84C473.37 88.6 472.27 91.04 471.99 94.16H492.75ZM521.617 79.52C525.617 79.52 528.857 80.74 531.337 83.18C533.817 85.58 535.057 89.06 535.057 93.62V113H529.657V94.4C529.657 91.12 528.837 88.62 527.197 86.9C525.557 85.14 523.317 84.26 520.477 84.26C517.597 84.26 515.297 85.16 513.577 86.96C511.897 88.76 511.057 91.38 511.057 94.82V113H505.597V80.12H511.057V84.8C512.137 83.12 513.597 81.82 515.437 80.9C517.317 79.98 519.377 79.52 521.617 79.52ZM541.935 96.44C541.935 93.08 542.615 90.14 543.975 87.62C545.335 85.06 547.195 83.08 549.555 81.68C551.955 80.28 554.635 79.58 557.595 79.58C560.155 79.58 562.535 80.18 564.735 81.38C566.935 82.54 568.615 84.08 569.775 86V68.6H575.295V113H569.775V106.82C568.695 108.78 567.095 110.4 564.975 111.68C562.855 112.92 560.375 113.54 557.535 113.54C554.615 113.54 551.955 112.82 549.555 111.38C547.195 109.94 545.335 107.92 543.975 105.32C542.615 102.72 541.935 99.76 541.935 96.44ZM569.775 96.5C569.775 94.02 569.275 91.86 568.275 90.02C567.275 88.18 565.915 86.78 564.195 85.82C562.515 84.82 560.655 84.32 558.615 84.32C556.575 84.32 554.715 84.8 553.035 85.76C551.355 86.72 550.015 88.12 549.015 89.96C548.015 91.8 547.515 93.96 547.515 96.44C547.515 98.96 548.015 101.16 549.015 103.04C550.015 104.88 551.355 106.3 553.035 107.3C554.715 108.26 556.575 108.74 558.615 108.74C560.655 108.74 562.515 108.26 564.195 107.3C565.915 106.3 567.275 104.88 568.275 103.04C569.275 101.16 569.775 98.98 569.775 96.5ZM614.522 95.3C614.522 96.34 614.462 97.44 614.342 98.6H588.062C588.262 101.84 589.362 104.38 591.362 106.22C593.402 108.02 595.862 108.92 598.742 108.92C601.102 108.92 603.062 108.38 604.622 107.3C606.222 106.18 607.342 104.7 607.982 102.86H613.862C612.982 106.02 611.222 108.6 608.582 110.6C605.942 112.56 602.662 113.54 598.742 113.54C595.622 113.54 592.822 112.84 590.342 111.44C587.902 110.04 585.982 108.06 584.582 105.5C583.182 102.9 582.482 99.9 582.482 96.5C582.482 93.1 583.162 90.12 584.522 87.56C585.882 85 587.782 83.04 590.222 81.68C592.702 80.28 595.542 79.58 598.742 79.58C601.862 79.58 604.622 80.26 607.022 81.62C609.422 82.98 611.262 84.86 612.542 87.26C613.862 89.62 614.522 92.3 614.522 95.3ZM608.882 94.16C608.882 92.08 608.422 90.3 607.502 88.82C606.582 87.3 605.322 86.16 603.722 85.4C602.162 84.6 600.422 84.2 598.502 84.2C595.742 84.2 593.382 85.08 591.422 86.84C589.502 88.6 588.402 91.04 588.122 94.16H608.882ZM640.089 113L627.189 98.48V113H621.729V68.6H627.189V94.7L639.849 80.12H647.469L631.989 96.5L647.529 113H640.089ZM675.264 84.62V104C675.264 105.6 675.604 106.74 676.284 107.42C676.964 108.06 678.144 108.38 679.824 108.38H683.844V113H678.924C675.884 113 673.604 112.3 672.084 110.9C670.564 109.5 669.804 107.2 669.804 104V84.62H665.544V80.12H669.804V71.84H675.264V80.12H683.844V84.62H675.264ZM688.42 96.44C688.42 93.08 689.1 90.14 690.46 87.62C691.82 85.06 693.68 83.08 696.04 81.68C698.44 80.28 701.1 79.58 704.02 79.58C706.9 79.58 709.4 80.2 711.52 81.44C713.64 82.68 715.22 84.24 716.26 86.12V80.12H721.78V113H716.26V106.88C715.18 108.8 713.56 110.4 711.4 111.68C709.28 112.92 706.8 113.54 703.96 113.54C701.04 113.54 698.4 112.82 696.04 111.38C693.68 109.94 691.82 107.92 690.46 105.32C689.1 102.72 688.42 99.76 688.42 96.44ZM716.26 96.5C716.26 94.02 715.76 91.86 714.76 90.02C713.76 88.18 712.4 86.78 710.68 85.82C709 84.82 707.14 84.32 705.1 84.32C703.06 84.32 701.2 84.8 699.52 85.76C697.84 86.72 696.5 88.12 695.5 89.96C694.5 91.8 694 93.96 694 96.44C694 98.96 694.5 101.16 695.5 103.04C696.5 104.88 697.84 106.3 699.52 107.3C701.2 108.26 703.06 108.74 705.1 108.74C707.14 108.74 709 108.26 710.68 107.3C712.4 106.3 713.76 104.88 714.76 103.04C715.76 101.16 716.26 98.98 716.26 96.5ZM760.167 80.12V113H754.707V108.14C753.667 109.82 752.207 111.14 750.327 112.1C748.487 113.02 746.447 113.48 744.207 113.48C741.647 113.48 739.347 112.96 737.307 111.92C735.267 110.84 733.647 109.24 732.447 107.12C731.287 105 730.707 102.42 730.707 99.38V80.12H736.107V98.66C736.107 101.9 736.927 104.4 738.567 106.16C740.207 107.88 742.447 108.74 745.287 108.74C748.207 108.74 750.507 107.84 752.187 106.04C753.867 104.24 754.707 101.62 754.707 98.18V80.12H760.167ZM776.046 84.62V104C776.046 105.6 776.386 106.74 777.066 107.42C777.746 108.06 778.926 108.38 780.606 108.38H784.626V113H779.706C776.666 113 774.386 112.3 772.866 110.9C771.346 109.5 770.586 107.2 770.586 104V84.62H766.326V80.12H770.586V71.84H776.046V80.12H784.626V84.62H776.046ZM789.201 96.44C789.201 93.08 789.881 90.14 791.241 87.62C792.601 85.06 794.461 83.08 796.821 81.68C799.221 80.28 801.881 79.58 804.801 79.58C807.681 79.58 810.181 80.2 812.301 81.44C814.421 82.68 816.001 84.24 817.041 86.12V80.12H822.561V113H817.041V106.88C815.961 108.8 814.341 110.4 812.181 111.68C810.061 112.92 807.581 113.54 804.741 113.54C801.821 113.54 799.181 112.82 796.821 111.38C794.461 109.94 792.601 107.92 791.241 105.32C789.881 102.72 789.201 99.76 789.201 96.44ZM817.041 96.5C817.041 94.02 816.541 91.86 815.541 90.02C814.541 88.18 813.181 86.78 811.461 85.82C809.781 84.82 807.921 84.32 805.881 84.32C803.841 84.32 801.981 84.8 800.301 85.76C798.621 86.72 797.281 88.12 796.281 89.96C795.281 91.8 794.781 93.96 794.781 96.44C794.781 98.96 795.281 101.16 796.281 103.04C797.281 104.88 798.621 106.3 800.301 107.3C801.981 108.26 803.841 108.74 805.881 108.74C807.921 108.74 809.781 108.26 811.461 107.3C813.181 106.3 814.541 104.88 815.541 103.04C816.541 101.16 817.041 98.98 817.041 96.5ZM847.808 79.52C851.808 79.52 855.048 80.74 857.528 83.18C860.008 85.58 861.248 89.06 861.248 93.62V113H855.848V94.4C855.848 91.12 855.028 88.62 853.388 86.9C851.748 85.14 849.508 84.26 846.668 84.26C843.788 84.26 841.488 85.16 839.768 86.96C838.088 88.76 837.248 91.38 837.248 94.82V113H831.788V80.12H837.248V84.8C838.328 83.12 839.788 81.82 841.628 80.9C843.508 79.98 845.568 79.52 847.808 79.52ZM914.483 80.12L894.683 128.48H889.043L895.523 112.64L882.263 80.12H888.323L898.643 106.76L908.843 80.12H914.483ZM917.932 96.44C917.932 93.08 918.612 90.14 919.972 87.62C921.332 85.06 923.192 83.08 925.552 81.68C927.952 80.28 930.612 79.58 933.532 79.58C936.412 79.58 938.912 80.2 941.032 81.44C943.152 82.68 944.732 84.24 945.772 86.12V80.12H951.292V113H945.772V106.88C944.692 108.8 943.072 110.4 940.912 111.68C938.792 112.92 936.312 113.54 933.472 113.54C930.552 113.54 927.912 112.82 925.552 111.38C923.192 109.94 921.332 107.92 919.972 105.32C918.612 102.72 917.932 99.76 917.932 96.44ZM945.772 96.5C945.772 94.02 945.272 91.86 944.272 90.02C943.272 88.18 941.912 86.78 940.192 85.82C938.512 84.82 936.652 84.32 934.612 84.32C932.572 84.32 930.712 84.8 929.032 85.76C927.352 86.72 926.012 88.12 925.012 89.96C924.012 91.8 923.512 93.96 923.512 96.44C923.512 98.96 924.012 101.16 925.012 103.04C926.012 104.88 927.352 106.3 929.032 107.3C930.712 108.26 932.572 108.74 934.612 108.74C936.652 108.74 938.512 108.26 940.192 107.3C941.912 106.3 943.272 104.88 944.272 103.04C945.272 101.16 945.772 98.98 945.772 96.5ZM976.538 79.52C980.538 79.52 983.778 80.74 986.258 83.18C988.738 85.58 989.978 89.06 989.978 93.62V113H984.578V94.4C984.578 91.12 983.758 88.62 982.118 86.9C980.478 85.14 978.238 84.26 975.398 84.26C972.518 84.26 970.218 85.16 968.498 86.96C966.818 88.76 965.978 91.38 965.978 94.82V113H960.518V80.12H965.978V84.8C967.058 83.12 968.518 81.82 970.358 80.9C972.238 79.98 974.298 79.52 976.538 79.52ZM1012.46 79.58C1015.3 79.58 1017.78 80.2 1019.9 81.44C1022.06 82.68 1023.66 84.24 1024.7 86.12V80.12H1030.22V113.72C1030.22 116.72 1029.58 119.38 1028.3 121.7C1027.02 124.06 1025.18 125.9 1022.78 127.22C1020.42 128.54 1017.66 129.2 1014.5 129.2C1010.18 129.2 1006.58 128.18 1003.7 126.14C1000.82 124.1 999.117 121.32 998.597 117.8H1004C1004.6 119.8 1005.84 121.4 1007.72 122.6C1009.6 123.84 1011.86 124.46 1014.5 124.46C1017.5 124.46 1019.94 123.52 1021.82 121.64C1023.74 119.76 1024.7 117.12 1024.7 113.72V106.82C1023.62 108.74 1022.02 110.34 1019.9 111.62C1017.78 112.9 1015.3 113.54 1012.46 113.54C1009.54 113.54 1006.88 112.82 1004.48 111.38C1002.12 109.94 1000.26 107.92 998.897 105.32C997.537 102.72 996.857 99.76 996.857 96.44C996.857 93.08 997.537 90.14 998.897 87.62C1000.26 85.06 1002.12 83.08 1004.48 81.68C1006.88 80.28 1009.54 79.58 1012.46 79.58ZM1024.7 96.5C1024.7 94.02 1024.2 91.86 1023.2 90.02C1022.2 88.18 1020.84 86.78 1019.12 85.82C1017.44 84.82 1015.58 84.32 1013.54 84.32C1011.5 84.32 1009.64 84.8 1007.96 85.76C1006.28 86.72 1004.94 88.12 1003.94 89.96C1002.94 91.8 1002.44 93.96 1002.44 96.44C1002.44 98.96 1002.94 101.16 1003.94 103.04C1004.94 104.88 1006.28 106.3 1007.96 107.3C1009.64 108.26 1011.5 108.74 1013.54 108.74C1015.58 108.74 1017.44 108.26 1019.12 107.3C1020.84 106.3 1022.2 104.88 1023.2 103.04C1024.2 101.16 1024.7 98.98 1024.7 96.5ZM568.244 186.44C568.244 183.08 568.924 180.14 570.284 177.62C571.644 175.06 573.504 173.08 575.864 171.68C578.264 170.28 580.944 169.58 583.904 169.58C586.464 169.58 588.844 170.18 591.044 171.38C593.244 172.54 594.924 174.08 596.084 176V158.6H601.604V203H596.084V196.82C595.004 198.78 593.404 200.4 591.284 201.68C589.164 202.92 586.684 203.54 583.844 203.54C580.924 203.54 578.264 202.82 575.864 201.38C573.504 199.94 571.644 197.92 570.284 195.32C568.924 192.72 568.244 189.76 568.244 186.44ZM596.084 186.5C596.084 184.02 595.584 181.86 594.584 180.02C593.584 178.18 592.224 176.78 590.504 175.82C588.824 174.82 586.964 174.32 584.924 174.32C582.884 174.32 581.024 174.8 579.344 175.76C577.664 176.72 576.324 178.12 575.324 179.96C574.324 181.8 573.824 183.96 573.824 186.44C573.824 188.96 574.324 191.16 575.324 193.04C576.324 194.88 577.664 196.3 579.344 197.3C581.024 198.26 582.884 198.74 584.924 198.74C586.964 198.74 588.824 198.26 590.504 197.3C592.224 196.3 593.584 194.88 594.584 193.04C595.584 191.16 596.084 188.98 596.084 186.5ZM608.791 186.44C608.791 183.08 609.471 180.14 610.831 177.62C612.191 175.06 614.051 173.08 616.411 171.68C618.811 170.28 621.471 169.58 624.391 169.58C627.271 169.58 629.771 170.2 631.891 171.44C634.011 172.68 635.591 174.24 636.631 176.12V170.12H642.151V203H636.631V196.88C635.551 198.8 633.931 200.4 631.771 201.68C629.651 202.92 627.171 203.54 624.331 203.54C621.411 203.54 618.771 202.82 616.411 201.38C614.051 199.94 612.191 197.92 610.831 195.32C609.471 192.72 608.791 189.76 608.791 186.44ZM636.631 186.5C636.631 184.02 636.131 181.86 635.131 180.02C634.131 178.18 632.771 176.78 631.051 175.82C629.371 174.82 627.511 174.32 625.471 174.32C623.431 174.32 621.571 174.8 619.891 175.76C618.211 176.72 616.871 178.12 615.871 179.96C614.871 181.8 614.371 183.96 614.371 186.44C614.371 188.96 614.871 191.16 615.871 193.04C616.871 194.88 618.211 196.3 619.891 197.3C621.571 198.26 623.431 198.74 625.471 198.74C627.511 198.74 629.371 198.26 631.051 197.3C632.771 196.3 634.131 194.88 635.131 193.04C636.131 191.16 636.631 188.98 636.631 186.5ZM667.398 169.52C671.398 169.52 674.638 170.74 677.118 173.18C679.598 175.58 680.838 179.06 680.838 183.62V203H675.438V184.4C675.438 181.12 674.618 178.62 672.978 176.9C671.338 175.14 669.098 174.26 666.258 174.26C663.378 174.26 661.078 175.16 659.358 176.96C657.678 178.76 656.838 181.38 656.838 184.82V203H651.378V170.12H656.838V174.8C657.918 173.12 659.378 171.82 661.218 170.9C663.098 169.98 665.158 169.52 667.398 169.52Z"/><path fill="#ED8936" d="M374.16 169.52C376.72 169.52 379 170.06 381 171.14C383 172.18 384.58 173.76 385.74 175.88C386.9 178 387.48 180.58 387.48 183.62V203H382.08V184.4C382.08 181.12 381.26 178.62 379.62 176.9C378.02 175.14 375.84 174.26 373.08 174.26C370.24 174.26 367.98 175.18 366.3 177.02C364.62 178.82 363.78 181.44 363.78 184.88V203H358.38V184.4C358.38 181.12 357.56 178.62 355.92 176.9C354.32 175.14 352.14 174.26 349.38 174.26C346.54 174.26 344.28 175.18 342.6 177.02C340.92 178.82 340.08 181.44 340.08 184.88V203H334.62V170.12H340.08V174.86C341.16 173.14 342.6 171.82 344.4 170.9C346.24 169.98 348.26 169.52 350.46 169.52C353.22 169.52 355.66 170.14 357.78 171.38C359.9 172.62 361.48 174.44 362.52 176.84C363.44 174.52 364.96 172.72 367.08 171.44C369.2 170.16 371.56 169.52 374.16 169.52ZM425.596 170.12V203H420.136V198.14C419.096 199.82 417.636 201.14 415.756 202.1C413.916 203.02 411.876 203.48 409.636 203.48C407.076 203.48 404.776 202.96 402.736 201.92C400.696 200.84 399.076 199.24 397.876 197.12C396.716 195 396.136 192.42 396.136 189.38V170.12H401.536V188.66C401.536 191.9 402.356 194.4 403.996 196.16C405.636 197.88 407.876 198.74 410.716 198.74C413.636 198.74 415.936 197.84 417.616 196.04C419.296 194.24 420.136 191.62 420.136 188.18V170.12H425.596ZM432.775 186.44C432.775 183.08 433.455 180.14 434.815 177.62C436.175 175.06 438.035 173.08 440.395 171.68C442.795 170.28 445.475 169.58 448.435 169.58C450.995 169.58 453.375 170.18 455.575 171.38C457.775 172.54 459.455 174.08 460.615 176V158.6H466.135V203H460.615V196.82C459.535 198.78 457.935 200.4 455.815 201.68C453.695 202.92 451.215 203.54 448.375 203.54C445.455 203.54 442.795 202.82 440.395 201.38C438.035 199.94 436.175 197.92 434.815 195.32C433.455 192.72 432.775 189.76 432.775 186.44ZM460.615 186.5C460.615 184.02 460.115 181.86 459.115 180.02C458.115 178.18 456.755 176.78 455.035 175.82C453.355 174.82 451.495 174.32 449.455 174.32C447.415 174.32 445.555 174.8 443.875 175.76C442.195 176.72 440.855 178.12 439.855 179.96C438.855 181.8 438.355 183.96 438.355 186.44C438.355 188.96 438.855 191.16 439.855 193.04C440.855 194.88 442.195 196.3 443.875 197.3C445.555 198.26 447.415 198.74 449.455 198.74C451.495 198.74 453.355 198.26 455.035 197.3C456.755 196.3 458.115 194.88 459.115 193.04C460.115 191.16 460.615 188.98 460.615 186.5ZM473.322 186.44C473.322 183.08 474.002 180.14 475.362 177.62C476.722 175.06 478.582 173.08 480.942 171.68C483.342 170.28 486.002 169.58 488.922 169.58C491.802 169.58 494.302 170.2 496.422 171.44C498.542 172.68 500.122 174.24 501.162 176.12V170.12H506.682V203H501.162V196.88C500.082 198.8 498.462 200.4 496.302 201.68C494.182 202.92 491.702 203.54 488.862 203.54C485.942 203.54 483.302 202.82 480.942 201.38C478.582 199.94 476.722 197.92 475.362 195.32C474.002 192.72 473.322 189.76 473.322 186.44ZM501.162 186.5C501.162 184.02 500.662 181.86 499.662 180.02C498.662 178.18 497.302 176.78 495.582 175.82C493.902 174.82 492.042 174.32 490.002 174.32C487.962 174.32 486.102 174.8 484.422 175.76C482.742 176.72 481.402 178.12 480.402 179.96C479.402 181.8 478.902 183.96 478.902 186.44C478.902 188.96 479.402 191.16 480.402 193.04C481.402 194.88 482.742 196.3 484.422 197.3C486.102 198.26 487.962 198.74 490.002 198.74C492.042 198.74 493.902 198.26 495.582 197.3C497.302 196.3 498.662 194.88 499.662 193.04C500.662 191.16 501.162 188.98 501.162 186.5ZM532.229 169.52C534.709 169.52 536.949 170.06 538.949 171.14C540.949 172.18 542.509 173.76 543.629 175.88C544.789 178 545.369 180.58 545.369 183.62V203H539.969V184.4C539.969 181.12 539.149 178.62 537.509 176.9C535.869 175.14 533.629 174.26 530.789 174.26C527.909 174.26 525.609 175.16 523.889 176.96C522.209 178.76 521.369 181.38 521.369 184.82V203H515.909V158.6H521.369V174.8C522.449 173.12 523.929 171.82 525.809 170.9C527.729 169.98 529.869 169.52 532.229 169.52ZM719.313 169.58C722.153 169.58 724.633 170.2 726.753 171.44C728.913 172.68 730.513 174.24 731.553 176.12V170.12H737.073V203.72C737.073 206.72 736.433 209.38 735.153 211.7C733.873 214.06 732.033 215.9 729.633 217.22C727.273 218.54 724.513 219.2 721.353 219.2C717.033 219.2 713.433 218.18 710.553 216.14C707.673 214.1 705.973 211.32 705.453 207.8H710.853C711.453 209.8 712.693 211.4 714.573 212.6C716.453 213.84 718.713 214.46 721.353 214.46C724.353 214.46 726.793 213.52 728.673 211.64C730.593 209.76 731.553 207.12 731.553 203.72V196.82C730.473 198.74 728.873 200.34 726.753 201.62C724.633 202.9 722.153 203.54 719.313 203.54C716.393 203.54 713.733 202.82 711.333 201.38C708.973 199.94 707.113 197.92 705.753 195.32C704.393 192.72 703.713 189.76 703.713 186.44C703.713 183.08 704.393 180.14 705.753 177.62C707.113 175.06 708.973 173.08 711.333 171.68C713.733 170.28 716.393 169.58 719.313 169.58ZM731.553 186.5C731.553 184.02 731.053 181.86 730.053 180.02C729.053 178.18 727.693 176.78 725.973 175.82C724.293 174.82 722.433 174.32 720.393 174.32C718.353 174.32 716.493 174.8 714.813 175.76C713.133 176.72 711.793 178.12 710.793 179.96C709.793 181.8 709.293 183.96 709.293 186.44C709.293 188.96 709.793 191.16 710.793 193.04C711.793 194.88 713.133 196.3 714.813 197.3C716.493 198.26 718.353 198.74 720.393 198.74C722.433 198.74 724.293 198.26 725.973 197.3C727.693 196.3 729.053 194.88 730.053 193.04C731.053 191.16 731.553 188.98 731.553 186.5ZM751.76 175.46C752.72 173.58 754.08 172.12 755.84 171.08C757.64 170.04 759.82 169.52 762.38 169.52V175.16H760.94C754.82 175.16 751.76 178.48 751.76 185.12V203H746.3V170.12H751.76V175.46ZM766.643 186.44C766.643 183.08 767.323 180.14 768.683 177.62C770.043 175.06 771.903 173.08 774.263 171.68C776.663 170.28 779.323 169.58 782.243 169.58C785.123 169.58 787.623 170.2 789.743 171.44C791.863 172.68 793.443 174.24 794.483 176.12V170.12H800.003V203H794.483V196.88C793.403 198.8 791.783 200.4 789.623 201.68C787.503 202.92 785.023 203.54 782.183 203.54C779.263 203.54 776.623 202.82 774.263 201.38C771.903 199.94 770.043 197.92 768.683 195.32C767.323 192.72 766.643 189.76 766.643 186.44ZM794.483 186.5C794.483 184.02 793.983 181.86 792.983 180.02C791.983 178.18 790.623 176.78 788.903 175.82C787.223 174.82 785.363 174.32 783.323 174.32C781.283 174.32 779.423 174.8 777.743 175.76C776.063 176.72 774.723 178.12 773.723 179.96C772.723 181.8 772.223 183.96 772.223 186.44C772.223 188.96 772.723 191.16 773.723 193.04C774.723 194.88 776.063 196.3 777.743 197.3C779.423 198.26 781.283 198.74 783.323 198.74C785.363 198.74 787.223 198.26 788.903 197.3C790.623 196.3 791.983 194.88 792.983 193.04C793.983 191.16 794.483 188.98 794.483 186.5ZM815.889 174.62V194C815.889 195.6 816.229 196.74 816.909 197.42C817.589 198.06 818.769 198.38 820.449 198.38H824.469V203H819.549C816.509 203 814.229 202.3 812.709 200.9C811.189 199.5 810.429 197.2 810.429 194V174.62H806.169V170.12H810.429V161.84H815.889V170.12H824.469V174.62H815.889ZM833.905 164.78C832.865 164.78 831.985 164.42 831.265 163.7C830.545 162.98 830.185 162.1 830.185 161.06C830.185 160.02 830.545 159.14 831.265 158.42C831.985 157.7 832.865 157.34 833.905 157.34C834.905 157.34 835.745 157.7 836.425 158.42C837.145 159.14 837.505 160.02 837.505 161.06C837.505 162.1 837.145 162.98 836.425 163.7C835.745 164.42 834.905 164.78 833.905 164.78ZM836.545 170.12V203H831.085V170.12H836.545ZM857.49 203.54C854.97 203.54 852.71 203.12 850.71 202.28C848.71 201.4 847.13 200.2 845.97 198.68C844.81 197.12 844.17 195.34 844.05 193.34H849.69C849.85 194.98 850.61 196.32 851.97 197.36C853.37 198.4 855.19 198.92 857.43 198.92C859.51 198.92 861.15 198.46 862.35 197.54C863.55 196.62 864.15 195.46 864.15 194.06C864.15 192.62 863.51 191.56 862.23 190.88C860.95 190.16 858.97 189.46 856.29 188.78C853.85 188.14 851.85 187.5 850.29 186.86C848.77 186.18 847.45 185.2 846.33 183.92C845.25 182.6 844.71 180.88 844.71 178.76C844.71 177.08 845.21 175.54 846.21 174.14C847.21 172.74 848.63 171.64 850.47 170.84C852.31 170 854.41 169.58 856.77 169.58C860.41 169.58 863.35 170.5 865.59 172.34C867.83 174.18 869.03 176.7 869.19 179.9H863.73C863.61 178.18 862.91 176.8 861.63 175.76C860.39 174.72 858.71 174.2 856.59 174.2C854.63 174.2 853.07 174.62 851.91 175.46C850.75 176.3 850.17 177.4 850.17 178.76C850.17 179.84 850.51 180.74 851.19 181.46C851.91 182.14 852.79 182.7 853.83 183.14C854.91 183.54 856.39 184 858.27 184.52C860.63 185.16 862.55 185.8 864.03 186.44C865.51 187.04 866.77 187.96 867.81 189.2C868.89 190.44 869.45 192.06 869.49 194.06C869.49 195.86 868.99 197.48 867.99 198.92C866.99 200.36 865.57 201.5 863.73 202.34C861.93 203.14 859.85 203.54 857.49 203.54Z"/><path fill="#ED8936" fill-opacity=".3" fill-rule="evenodd" d="M0 406.085L53 380.085C107 354.085 213 303.085 320 316.085C427 329.085 533 406.085 640 457.085C747 508.085 853 534.085 960 553.085C1067 572.085 1173 585.085 1227 591.085L1280 598.085V636.085H1227C1173 636.085 1067 636.085 960 636.085C853 636.085 747 636.085 640 636.085C533 636.085 427 636.085 320 636.085C213 636.085 107 636.085 53 636.085H0V406.085Z" clip-rule="evenodd"/><path fill="#ED8936" fill-opacity=".5" fill-rule="evenodd" d="M0 385L36 413.743C71 441.749 142 498.497 213 508.078C284 517.659 356 479.335 427 460.91C498 441.749 569 441.749 640 455.751C711 470.491 782 498.497 853 488.916C924 479.335 996 432.168 1067 408.584C1138 385 1209 385 1244 385H1280V640H1244C1209 640 1138 640 1067 640C996 640 924 640 853 640C782 640 711 640 640 640C569 640 498 640 427 640C356 640 284 640 213 640C142 640 71 640 36 640H0V385Z" clip-rule="evenodd"/><path fill="#ED8936" fill-opacity=".4" fill-rule="evenodd" d="M0 564H71C142 564 284 564 427 571C569 577 711 590 853 551C996 513 1138 423 1209 379L1280 334V641H1209C1138 641 996 641 853 641C711 641 569 641 427 641C284 641 142 641 71 641H0V564Z" clip-rule="evenodd"/></svg>