<svg fill="none" height="339" viewBox="0 0 511 339" width="511" xmlns="http://www.w3.org/2000/svg"><path d="m0 0h511v339h-511z" fill="#fff"/><path d="m73.29 221v-3.06h7.82l-19.21-39.44-3.23.85v38.59h7.82v3.06h-48.79v-3.06h9.35v-121.38h-10.03v-3.06h41.65v82.45l2.72-1.02 38.25-31.79h-15.98v-3.06h33.49v3.06h-11.9l-20.23 17.17 29.41 57.63h6.12v3.06zm53.74 1.7v-30.43h2.04c2.947 9.86 6.913 16.773 11.9 20.74s11.22 5.95 18.7 5.95c11.56 0 17.34-3.683 17.34-11.05 0-3.173-1.417-5.553-4.25-7.14-4.42-2.493-10.087-4.42-17-5.78-7.707-2.04-14.167-4.76-19.38-8.16-6.233-4.08-9.35-10.54-9.35-19.38s2.72-15.867 8.16-21.08c5.44-5.327 12.693-7.99 21.76-7.99 5.553 0 11.277 1.303 17.17 3.91 2.153.907 3.797 1.36 4.93 1.36s2.097-.397 2.89-1.19 1.757-2.267 2.89-4.42h1.87v26.01h-2.04c-5.78-14.733-14.733-22.1-26.86-22.1-5.327 0-9.293.963-11.9 2.89-2.607 1.813-3.91 4.137-3.91 6.97 0 1.7.397 3.06 1.19 4.08.793.907 1.417 1.587 1.87 2.04s1.19.963 2.21 1.53c1.02.453 1.87.85 2.55 1.19.68.227 1.7.567 3.06 1.02 1.473.453 2.55.737 3.23.85 7.707 1.927 13.26 3.627 16.66 5.1 3.4 1.36 6.63 3.06 9.69 5.1 6.233 4.307 9.35 11.277 9.35 20.91 0 9.52-2.833 16.773-8.5 21.76-5.667 4.873-13.43 7.31-23.29 7.31-7.027 0-13.827-1.643-20.4-4.93-1.36-.907-2.437-1.36-3.23-1.36-2.493 0-4.93 2.097-7.31 6.29zm110.601-41.65h4.93v-13.09c0-10.767-.623-17.963-1.87-21.59-1.133-3.74-3.4-5.61-6.8-5.61-2.04 0-3.91.567-5.61 1.7-1.587 1.02-2.38 2.493-2.38 4.42 0 1.813.34 3.683 1.02 5.61h4.25c.907 2.38 1.36 5.27 1.36 8.67 0 3.287-1.417 6.177-4.25 8.67-2.833 2.38-6.403 3.57-10.71 3.57-9.747 0-14.62-4.703-14.62-14.11 0-13.94 11.843-20.91 35.53-20.91 13.487 0 22.78 2.323 27.88 6.97 5.213 4.533 7.82 12.92 7.82 25.16v34.51c0 5.893 1.643 8.84 4.93 8.84 3.853 0 6.12-5.837 6.8-17.51l2.55.17c-.453 9.973-2.323 16.83-5.61 20.57s-8.67 5.61-16.15 5.61c-13.6 0-21.42-4.193-23.46-12.58-1.473 4.307-3.683 7.48-6.63 9.52s-7.253 3.06-12.92 3.06c-16.773 0-25.16-6.857-25.16-20.57 0-8.047 3.173-13.543 9.52-16.49 6.46-3.06 16.32-4.59 29.58-4.59zm-6.8 20.91c0 5.893.283 9.69.85 11.39.68 1.7 1.87 2.55 3.57 2.55 1.813 0 3.457-1.417 4.93-4.25 1.587-2.947 2.38-6.97 2.38-12.07v-15.81h-1.19c-7.027 0-10.54 5.157-10.54 15.47zm59.641-61.88h40.97v15.64c1.813-5.213 4.59-9.407 8.33-12.58s9.406-4.76 17-4.76c17.566 0 26.35 9.463 26.35 28.39v51.17h9.52v3.06h-48.11v-3.06h6.97v-55.25c0-6.8-.454-11.163-1.36-13.09-.907-2.04-2.55-3.06-4.93-3.06-3.627 0-6.857 2.38-9.69 7.14-2.72 4.76-4.08 10.54-4.08 17.34v46.92h7.31v3.06h-48.28v-3.06h9.35v-74.8h-9.35zm145.216 40.97h4.93v-13.09c0-10.767-.624-17.963-1.87-21.59-1.134-3.74-3.4-5.61-6.8-5.61-2.04 0-3.91.567-5.61 1.7-1.587 1.02-2.38 2.493-2.38 4.42 0 1.813.34 3.683 1.02 5.61h4.25c.906 2.38 1.36 5.27 1.36 8.67 0 3.287-1.417 6.177-4.25 8.67-2.834 2.38-6.404 3.57-10.711 3.57-9.746 0-14.619-4.703-14.619-14.11 0-13.94 11.843-20.91 35.53-20.91 13.486 0 22.78 2.323 27.88 6.97 5.213 4.533 7.82 12.92 7.82 25.16v34.51c0 5.893 1.643 8.84 4.93 8.84 3.853 0 6.12-5.837 6.8-17.51l2.55.17c-.454 9.973-2.324 16.83-5.61 20.57-3.287 3.74-8.67 5.61-16.15 5.61-13.6 0-21.42-4.193-23.46-12.58-1.474 4.307-3.684 7.48-6.63 9.52-2.947 2.04-7.254 3.06-12.92 3.06-16.774 0-25.16-6.857-25.16-20.57 0-8.047 3.173-13.543 9.52-16.49 6.46-3.06 16.32-4.59 29.58-4.59zm-6.8 20.91c0 5.893.283 9.69.85 11.39.68 1.7 1.87 2.55 3.57 2.55 1.813 0 3.456-1.417 4.93-4.25 1.586-2.947 2.38-6.97 2.38-12.07v-15.81h-1.19c-7.027 0-10.54 5.157-10.54 15.47z" fill="#ed8936"/><path d="m380.1 302c-2.867 0-5.033-.833-6.5-2.5-1.4-1.733-2.1-3.8-2.1-6.2 0-2.467.733-4.533 2.2-6.2 1.533-1.667 3.667-2.5 6.4-2.5s4.9.7 6.5 2.1 2.4 3.5 2.4 6.3-.767 5-2.3 6.6c-1.467 1.6-3.667 2.4-6.6 2.4zm29.065-55.5c-3.533 0-6.067-.9-7.6-2.7-1.467-1.8-2.2-4.033-2.2-6.7s.8-4.867 2.4-6.6c1.667-1.733 4.167-2.6 7.5-2.6s5.867.8 7.6 2.4c1.733 1.533 2.6 3.767 2.6 6.7 0 2.867-.833 5.167-2.5 6.9s-4.267 2.6-7.8 2.6zm-15.1 6.9h24.5v45.8h5.6v1.8h-29.7v-1.8h5.5v-44h-5.9zm32.338 0h24.1v9.2c1.067-3.067 2.7-5.533 4.9-7.4s5.533-2.8 10-2.8c10.333 0 15.5 5.567 15.5 16.7v30.1h5.6v1.8h-28.3v-1.8h4.1v-32.5c0-4-.267-6.567-.8-7.7-.533-1.2-1.5-1.8-2.9-1.8-2.133 0-4.033 1.4-5.7 4.2-1.6 2.8-2.4 6.2-2.4 10.2v27.6h4.3v1.8h-28.4v-1.8h5.5v-44h-5.5z" fill="#ed8936"/><path d="m16.66 15.2h12.936c4.4293 0 7.7293.6453 9.9 1.936 2.1707 1.2613 3.256 3.5347 3.256 6.82 0 3.6373-1.32 6.1453-3.96 7.524-2.464 1.2613-5.9107 1.892-10.34 1.892h-.352v11.792h5.5v.836h-16.94v-.836h2.86v-29.128h-2.86zm11.44.836v16.5h.924c1.76 0 2.9773-.6013 3.652-1.804s1.012-3.1533 1.012-5.852v-2.112c0-2.4933-.3227-4.2387-.968-5.236-.616-.9973-1.76-1.496-3.432-1.496zm26.4667 30.404c-3.784 0-6.6293-.968-8.536-2.904-1.8773-1.9653-2.816-4.6787-2.816-8.14 0-3.4907 1.056-6.16 3.168-8.008 2.1413-1.848 4.8547-2.772 8.14-2.772 6.6587 0 9.856 3.344 9.592 10.032h-12.408v1.716c0 2.8747.3667 5.0453 1.1 6.512s2.0093 2.2 3.828 2.2c3.4027 0 5.632-1.8187 6.688-5.456l.792.132c-.5573 2.112-1.5693 3.7547-3.036 4.928-1.4373 1.1733-3.608 1.76-6.512 1.76zm-2.816-12.672h4.532v-2.156c0-2.376-.1467-3.9893-.44-4.84-.264-.88-.8213-1.32-1.672-1.32-.8213 0-1.4373.4693-1.848 1.408-.3813.9093-.572 2.4933-.572 4.752zm13.9315-8.712h10.604v4.048c.968-2.992 3.0947-4.488 6.38-4.488 3.3147 0 5.324 1.584 6.028 4.752 1.0267-3.168 3.1827-4.752 6.468-4.752 4.312 0 6.4678 2.4493 6.4678 7.348v13.244h2.464v.792h-12.1878v-.792h1.54v-14.3c0-2.2293-.1907-3.5347-.572-3.916-.176-.176-.4107-.264-.704-.264-.8507 0-1.5987.572-2.244 1.716s-.968 2.596-.968 4.356v12.408h1.584v.792h-11.308v-.792h1.54v-14.3c0-2.2293-.1907-3.5347-.572-3.916-.176-.176-.4107-.264-.704-.264-.8213 0-1.5693.6307-2.244 1.892-.6453 1.232-.968 2.7133-.968 4.444v12.144h1.584v.792h-12.188v-.792h2.42v-19.36h-2.42zm50.6308 21.384c-3.784 0-6.63-.968-8.536-2.904-1.878-1.9653-2.816-4.6787-2.816-8.14 0-3.4907 1.056-6.16 3.168-8.008 2.141-1.848 4.854-2.772 8.14-2.772 6.658 0 9.856 3.344 9.592 10.032h-12.408v1.716c0 2.8747.366 5.0453 1.1 6.512.733 1.4667 2.009 2.2 3.828 2.2 3.402 0 5.632-1.8187 6.688-5.456l.792.132c-.558 2.112-1.57 3.7547-3.036 4.928-1.438 1.1733-3.608 1.76-6.512 1.76zm-2.816-12.672h4.532v-2.156c0-2.376-.147-3.9893-.44-4.84-.264-.88-.822-1.32-1.672-1.32-.822 0-1.438.4693-1.848 1.408-.382.9093-.572 2.4933-.572 4.752zm14.019-8.712h10.604v4.048c.47-1.3493 1.188-2.4347 2.156-3.256s2.435-1.232 4.4-1.232c4.547 0 6.82 2.4493 6.82 7.348v13.244h2.464v.792h-12.452v-.792h1.804v-14.3c0-1.76-.117-2.8893-.352-3.388-.234-.528-.66-.792-1.276-.792-.938 0-1.774.616-2.508 1.848-.704 1.232-1.056 2.728-1.056 4.488v12.144h1.892v.792h-12.496v-.792h2.42v-19.36h-2.42zm35.958 11.836c0 3.08.161 5.1333.484 6.16.322.9973.909 1.496 1.76 1.496.88 0 1.628-.3813 2.244-1.144.645-.7627.968-1.892.968-3.388v-9.592c0-1.2613-.25-2.332-.748-3.212-.499-.88-1.232-1.32-2.2-1.32s-1.628.6453-1.98 1.936-.528 3.5493-.528 6.776zm6.028 9.108-.484-3.08c-.998 2.3467-3.022 3.52-6.072 3.52-2.523 0-4.488-.9093-5.896-2.728-1.379-1.8187-2.068-4.532-2.068-8.14 0-7.304 2.904-10.956 8.712-10.956 2.581 0 4.282.7187 5.104 2.156v-12.98h-2.684v-.792h11v32.208h2.156v.792zm22.479.44c-3.784 0-6.63-.968-8.536-2.904-1.878-1.9653-2.816-4.6787-2.816-8.14 0-3.4907 1.056-6.16 3.168-8.008 2.141-1.848 4.854-2.772 8.14-2.772 6.658 0 9.856 3.344 9.592 10.032h-12.408v1.716c0 2.8747.366 5.0453 1.1 6.512.733 1.4667 2.009 2.2 3.828 2.2 3.402 0 5.632-1.8187 6.688-5.456l.792.132c-.558 2.112-1.57 3.7547-3.036 4.928-1.438 1.1733-3.608 1.76-6.512 1.76zm-2.816-12.672h4.532v-2.156c0-2.376-.147-3.9893-.44-4.84-.264-.88-.822-1.32-1.672-1.32-.822 0-1.438.4693-1.848 1.408-.382.9093-.572 2.4933-.572 4.752zm28.319 12.232v-.792h2.024l-4.972-10.208-.836.22v9.988h2.024v.792h-12.628v-.792h2.42v-31.416h-2.596v-.792h10.78v21.34l.704-.264 9.9-8.228h-4.136v-.792h8.668v.792h-3.08l-5.236 4.444 7.612 14.916h1.584v.792zm23.004-6.292v-13.86h-2.42v-.792h2.42v-5.676l8.184-2.024v7.7h5.72v.792h-5.72v14.828c0 1.3787.132 2.3907.396 3.036.293.6453.88.968 1.76.968s1.642-.44 2.288-1.32c.674-.88 1.114-2.0827 1.32-3.608l.748.088c-.235 2.024-.88 3.6373-1.936 4.84-1.056 1.1733-2.802 1.76-5.236 1.76-2.435 0-4.298-.484-5.588-1.452-1.291-.968-1.936-2.728-1.936-5.28zm25.676-4.048h1.276v-3.388c0-2.7867-.161-4.6493-.484-5.588-.293-.968-.88-1.452-1.76-1.452-.528 0-1.012.1467-1.452.44-.411.264-.616.6453-.616 1.144 0 .4693.088.9533.264 1.452h1.1c.235.616.352 1.364.352 2.244 0 .8507-.367 1.5987-1.1 2.244-.733.616-1.657.924-2.772.924-2.523 0-3.784-1.2173-3.784-3.652 0-3.608 3.065-5.412 9.196-5.412 3.491 0 5.896.6013 7.216 1.804 1.349 1.1733 2.024 3.344 2.024 6.512v8.932c0 1.5253.425 2.288 1.276 2.288.997 0 1.584-1.5107 1.76-4.532l.66.044c-.117 2.5813-.601 4.356-1.452 5.324s-2.244 1.452-4.18 1.452c-3.52 0-5.544-1.0853-6.072-3.256-.381 1.1147-.953 1.936-1.716 2.464s-1.877.792-3.344.792c-4.341 0-6.512-1.7747-6.512-5.324 0-2.0827.821-3.5053 2.464-4.268 1.672-.792 4.224-1.188 7.656-1.188zm-1.76 5.412c0 1.5253.073 2.508.22 2.948.176.44.484.66.924.66.469 0 .895-.3667 1.276-1.1.411-.7627.616-1.804.616-3.124v-4.092h-.308c-1.819 0-2.728 1.3347-2.728 4.004zm40.659 4.928h-10.032l-.484-3.212c-.47 1.1733-1.174 2.0827-2.112 2.728-.91.616-2.274.924-4.092.924-4.547 0-6.82-2.4493-6.82-7.348v-13.244h-2.464v-.792h10.648v15.092c0 1.76.117 2.9187.352 3.476.264.5573.762.836 1.496.836.762 0 1.437-.4547 2.024-1.364.586-.9093.88-2.1707.88-3.784v-13.464h-2.024v-.792h10.208v20.152h2.42zm3.1-6.292v-13.86h-2.42v-.792h2.42v-5.676l8.184-2.024v7.7h5.72v.792h-5.72v14.828c0 1.3787.132 2.3907.396 3.036.294.6453.88.968 1.76.968s1.643-.44 2.288-1.32c.675-.88 1.115-2.0827 1.32-3.608l.748.088c-.234 2.024-.88 3.6373-1.936 4.84-1.056 1.1733-2.801 1.76-5.236 1.76-2.434 0-4.297-.484-5.588-1.452-1.29-.968-1.936-2.728-1.936-5.28zm25.677-4.048h1.276v-3.388c0-2.7867-.161-4.6493-.484-5.588-.293-.968-.88-1.452-1.76-1.452-.528 0-1.012.1467-1.452.44-.411.264-.616.6453-.616 1.144 0 .4693.088.9533.264 1.452h1.1c.235.616.352 1.364.352 2.244 0 .8507-.367 1.5987-1.1 2.244-.733.616-1.657.924-2.772.924-2.523 0-3.784-1.2173-3.784-3.652 0-3.608 3.065-5.412 9.196-5.412 3.491 0 5.896.6013 7.216 1.804 1.349 1.1733 2.024 3.344 2.024 6.512v8.932c0 1.5253.425 2.288 1.276 2.288.997 0 1.584-1.5107 1.76-4.532l.66.044c-.117 2.5813-.601 4.356-1.452 5.324s-2.244 1.452-4.18 1.452c-3.52 0-5.544-1.0853-6.072-3.256-.381 1.1147-.953 1.936-1.716 2.464s-1.877.792-3.344.792c-4.341 0-6.512-1.7747-6.512-5.324 0-2.0827.821-3.5053 2.464-4.268 1.672-.792 4.224-1.188 7.656-1.188zm-1.76 5.412c0 1.5253.073 2.508.22 2.948.176.44.484.66.924.66.469 0 .895-.3667 1.276-1.1.411-.7627.616-1.804.616-3.124v-4.092h-.308c-1.819 0-2.728 1.3347-2.728 4.004zm15.436-16.016h10.604v4.048c.47-1.3493 1.188-2.4347 2.156-3.256s2.435-1.232 4.4-1.232c4.547 0 6.82 2.4493 6.82 7.348v13.244h2.464v.792h-12.452v-.792h1.804v-14.3c0-1.76-.117-2.8893-.352-3.388-.234-.528-.66-.792-1.276-.792-.938 0-1.774.616-2.508 1.848-.704 1.232-1.056 2.728-1.056 4.488v12.144h1.892v.792h-12.496v-.792h2.42v-19.36h-2.42zm34.712.792v-.792h12.76v.792h-2.376l4.796 14.608 5.104-14.608h-2.948v-.792h6.204v.792h-2.2l-8.228 23.716c-.968 2.7573-2.054 4.6787-3.256 5.764-1.203 1.1147-2.67 1.672-4.4 1.672-1.731 0-3.095-.396-4.092-1.188-.998-.792-1.496-1.804-1.496-3.036s.322-2.1707.968-2.816c.645-.6453 1.496-.968 2.552-.968 2.434 0 3.652 1.012 3.652 3.036 0 .44-.088.968-.264 1.584h-1.54c-.235.6747-.264 1.232-.088 1.672s.572.66 1.188.66c1.202 0 2.273-.6013 3.212-1.804.938-1.1733 1.833-2.9773 2.684-5.412l.968-2.728h-3.872l-7.524-20.152zm32.866 9.812h1.276v-3.388c0-2.7867-.162-4.6493-.484-5.588-.294-.968-.88-1.452-1.76-1.452-.528 0-1.012.1467-1.452.44-.411.264-.616.6453-.616 1.144 0 .4693.088.9533.264 1.452h1.1c.234.616.352 1.364.352 2.244 0 .8507-.367 1.5987-1.1 2.244-.734.616-1.658.924-2.772.924-2.523 0-3.784-1.2173-3.784-3.652 0-3.608 3.065-5.412 9.196-5.412 3.49 0 5.896.6013 7.216 1.804 1.349 1.1733 2.024 3.344 2.024 6.512v8.932c0 1.5253.425 2.288 1.276 2.288.997 0 1.584-1.5107 1.76-4.532l.66.044c-.118 2.5813-.602 4.356-1.452 5.324-.851.968-2.244 1.452-4.18 1.452-3.52 0-5.544-1.0853-6.072-3.256-.382 1.1147-.954 1.936-1.716 2.464-.763.528-1.878.792-3.344.792-4.342 0-6.512-1.7747-6.512-5.324 0-2.0827.821-3.5053 2.464-4.268 1.672-.792 4.224-1.188 7.656-1.188zm-1.76 5.412c0 1.5253.073 2.508.22 2.948.176.44.484.66.924.66.469 0 .894-.3667 1.276-1.1.41-.7627.616-1.804.616-3.124v-4.092h-.308c-1.819 0-2.728 1.3347-2.728 4.004zm15.436-16.016h10.604v4.048c.47-1.3493 1.188-2.4347 2.156-3.256s2.435-1.232 4.4-1.232c4.547 0 6.82 2.4493 6.82 7.348v13.244h2.464v.792h-12.452v-.792h1.804v-14.3c0-1.76-.117-2.8893-.352-3.388-.234-.528-.66-.792-1.276-.792-.938 0-1.774.616-2.508 1.848-.704 1.232-1.056 2.728-1.056 4.488v12.144h1.892v.792h-12.496v-.792h2.42v-19.36h-2.42zm44.669-2.288 1.232-.748c.176-.9093-.176-1.364-1.056-1.364-1.261 0-1.892.968-1.892 2.904 0 .7627.103 1.6427.308 2.64 2.23 1.496 3.344 3.4173 3.344 5.764 0 2.3173-.806 4.1213-2.42 5.412-1.613 1.2907-3.798 1.936-6.556 1.936-1.144 0-2.332-.1173-3.564-.352-1.29.8213-1.936 1.4373-1.936 1.848s.939.616 2.816.616h4.488c6.659 0 9.988 2.3907 9.988 7.172 0 2.5813-1.012 4.62-3.036 6.116-1.994 1.5253-5.118 2.288-9.372 2.288-7.245 0-10.868-1.5693-10.868-4.708 0-1.7013 1.13-2.8747 3.388-3.52l2.64 1.188c-.234.8507-.352 1.6573-.352 2.42 0 2.5227 1.878 3.784 5.632 3.784 2.288 0 4.048-.4253 5.28-1.276s1.848-1.9067 1.848-3.168-.381-2.112-1.144-2.552c-.733-.4107-2.214-.616-4.444-.616h-4.268c-2.376 0-4.077-.396-5.104-1.188-1.026-.792-1.54-1.76-1.54-2.904 0-1.1733.367-2.1413 1.1-2.904.734-.792 2.039-1.76 3.916-2.904-3.402-.968-5.104-3.1973-5.104-6.688 0-2.2.792-3.9747 2.376-5.324s3.96-2.024 7.128-2.024c1.907 0 3.535.3667 4.884 1.1-.176-.792-.264-1.5107-.264-2.156 0-1.6427.44-2.8307 1.32-3.564s1.863-1.1 2.948-1.1c1.086 0 1.951.2933 2.596.88.675.5573 1.012 1.3347 1.012 2.332s-.264 1.7453-.792 2.244c-.528.4693-1.173.704-1.936.704-.733 0-1.349-.1907-1.848-.572-.469-.4107-.718-.9827-.748-1.716zm-9.328 8.228v2.376c0 1.9653.162 3.3.484 4.004.352.704.866 1.056 1.54 1.056.704 0 1.203-.3373 1.496-1.012.323-.704.484-2.1267.484-4.268v-2.156c0-2.288-.146-3.784-.44-4.488-.293-.7333-.792-1.1-1.496-1.1-.674 0-1.188.3813-1.54 1.144-.352.7333-.528 2.2147-.528 4.444zm-336.983 53.06h10.604v4.048c.968-2.992 3.094-4.488 6.38-4.488 3.314 0 5.324 1.584 6.028 4.752 1.026-3.168 3.182-4.752 6.468-4.752 4.312 0 6.468 2.4493 6.468 7.348v13.244h2.464v.792h-12.188v-.792h1.54v-14.3c0-2.2293-.191-3.5347-.572-3.916-.176-.176-.411-.264-.704-.264-.851 0-1.599.572-2.244 1.716-.646 1.144-.968 2.596-.968 4.356v12.408h1.584v.792h-11.308v-.792h1.54v-14.3c0-2.2293-.191-3.5347-.572-3.916-.176-.176-.411-.264-.704-.264-.822 0-1.57.6307-2.244 1.892-.646 1.232-.968 2.7133-.968 4.444v12.144h1.584v.792h-12.188v-.792h2.42v-19.36h-2.42zm63.939 20.944h-10.032l-.484-3.212c-.47 1.173-1.174 2.083-2.112 2.728-.91.616-2.274.924-4.092.924-4.547 0-6.82-2.449-6.82-7.348v-13.244h-2.464v-.792h10.648v15.092c0 1.76.117 2.919.352 3.476.264.557.762.836 1.496.836.762 0 1.437-.455 2.024-1.364.586-.909.88-2.1707.88-3.784v-13.464h-2.024v-.792h10.208v20.152h2.42zm9.832-9.108c0 3.08.162 5.133.484 6.16.323.997.91 1.496 1.76 1.496.88 0 1.628-.381 2.244-1.144.646-.763.968-1.892.968-3.388v-9.592c0-1.2613-.249-2.332-.748-3.212-.498-.88-1.232-1.32-2.2-1.32s-1.628.6453-1.98 1.936-.528 3.5493-.528 6.776zm6.028 9.108-.484-3.08c-.997 2.347-3.021 3.52-6.072 3.52-2.522 0-4.488-.909-5.896-2.728-1.378-1.819-2.068-4.532-2.068-8.14 0-7.304 2.904-10.956 8.712-10.956 2.582 0 4.283.7187 5.104 2.156v-12.98h-2.684v-.792h11v32.208h2.156v.792zm21.468-10.34h1.276v-3.388c0-2.7867-.162-4.6493-.484-5.588-.294-.968-.88-1.452-1.76-1.452-.528 0-1.012.1467-1.452.44-.411.264-.616.6453-.616 1.144 0 .4693.088.9533.264 1.452h1.1c.234.616.352 1.364.352 2.244 0 .8507-.367 1.5987-1.1 2.244-.734.616-1.658.924-2.772.924-2.523 0-3.784-1.2173-3.784-3.652 0-3.608 3.065-5.412 9.196-5.412 3.49 0 5.896.6013 7.216 1.804 1.349 1.1733 2.024 3.344 2.024 6.512v8.932c0 1.525.425 2.288 1.276 2.288.997 0 1.584-1.511 1.76-4.532l.66.044c-.118 2.581-.602 4.356-1.452 5.324-.851.968-2.244 1.452-4.18 1.452-3.52 0-5.544-1.085-6.072-3.256-.382 1.115-.954 1.936-1.716 2.464-.763.528-1.878.792-3.344.792-4.342 0-6.512-1.775-6.512-5.324 0-2.0827.821-3.5053 2.464-4.268 1.672-.792 4.224-1.188 7.656-1.188zm-1.76 5.412c0 1.525.073 2.508.22 2.948.176.44.484.66.924.66.469 0 .894-.367 1.276-1.1.41-.763.616-1.804.616-3.124v-4.092h-.308c-1.819 0-2.728 1.3347-2.728 4.004zm15.348-28.072h10.604v16.104c.469-1.3493 1.188-2.4347 2.156-3.256s2.435-1.232 4.4-1.232c4.547 0 6.82 2.4493 6.82 7.348v13.244h2.464v.792h-12.452v-.792h1.804v-14.3c0-1.76-.117-2.8893-.352-3.388-.235-.528-.66-.792-1.276-.792-.939 0-1.775.616-2.508 1.848-.704 1.232-1.056 2.728-1.056 4.488v12.144h1.892v.792h-12.496v-.792h2.42v-31.416h-2.42zm43.952 23.892c0 3.08.161 5.133.484 6.16.322.997.909 1.496 1.759 1.496.88 0 1.629-.381 2.245-1.144.645-.763.968-1.892.968-3.388v-9.592c0-1.2613-.25-2.332-.748-3.212-.499-.88-1.232-1.32-2.2-1.32s-1.628.6453-1.98 1.936-.528 3.5493-.528 6.776zm6.028 9.108-.484-3.08c-.998 2.347-3.022 3.52-6.072 3.52-2.523 0-4.488-.909-5.896-2.728-1.379-1.819-2.068-4.532-2.068-8.14 0-7.304 2.904-10.956 8.712-10.956 2.581 0 4.282.7187 5.104 2.156v-12.98h-2.684v-.792h11v32.208h2.156v.792zm21.467-10.34h1.276v-3.388c0-2.7867-.162-4.6493-.484-5.588-.294-.968-.88-1.452-1.76-1.452-.528 0-1.012.1467-1.452.44-.411.264-.616.6453-.616 1.144 0 .4693.088.9533.264 1.452h1.1c.234.616.352 1.364.352 2.244 0 .8507-.367 1.5987-1.1 2.244-.734.616-1.658.924-2.772.924-2.523 0-3.784-1.2173-3.784-3.652 0-3.608 3.065-5.412 9.196-5.412 3.49 0 5.896.6013 7.216 1.804 1.349 1.1733 2.024 3.344 2.024 6.512v8.932c0 1.525.425 2.288 1.276 2.288.997 0 1.584-1.511 1.76-4.532l.66.044c-.118 2.581-.602 4.356-1.452 5.324-.851.968-2.244 1.452-4.18 1.452-3.52 0-5.544-1.085-6.072-3.256-.382 1.115-.954 1.936-1.716 2.464-.763.528-1.878.792-3.344.792-4.342 0-6.512-1.775-6.512-5.324 0-2.0827.821-3.5053 2.464-4.268 1.672-.792 4.224-1.188 7.656-1.188zm-1.76 5.412c0 1.525.073 2.508.22 2.948.176.44.484.66.924.66.469 0 .894-.367 1.276-1.1.41-.763.616-1.804.616-3.124v-4.092h-.308c-1.819 0-2.728 1.3347-2.728 4.004zm15.436-16.016h10.604v4.048c.469-1.3493 1.188-2.4347 2.156-3.256s2.435-1.232 4.4-1.232c4.547 0 6.82 2.4493 6.82 7.348v13.244h2.464v.792h-12.452v-.792h1.804v-14.3c0-1.76-.117-2.8893-.352-3.388-.235-.528-.66-.792-1.276-.792-.939 0-1.775.616-2.508 1.848-.704 1.232-1.056 2.728-1.056 4.488v12.144h1.892v.792h-12.496v-.792h2.42v-19.36h-2.42zm52.576-2.288 1.232-.748c.176-.9093-.176-1.364-1.056-1.364-1.262 0-1.892.968-1.892 2.904 0 .7627.102 1.6427.308 2.64 2.229 1.496 3.344 3.4173 3.344 5.764 0 2.3173-.807 4.1213-2.42 5.412-1.614 1.2907-3.799 1.936-6.556 1.936-1.144 0-2.332-.1173-3.564-.352-1.291.8213-1.936 1.4373-1.936 1.848 0 .411.938.616 2.816.616h4.488c6.658 0 9.988 2.391 9.988 7.172 0 2.581-1.012 4.62-3.036 6.116-1.995 1.525-5.119 2.288-9.372 2.288-7.246 0-10.868-1.569-10.868-4.708 0-1.701 1.129-2.875 3.388-3.52l2.64 1.188c-.235.851-.352 1.657-.352 2.42 0 2.523 1.877 3.784 5.632 3.784 2.288 0 4.048-.425 5.28-1.276s1.848-1.907 1.848-3.168-.382-2.112-1.144-2.552c-.734-.411-2.215-.616-4.444-.616h-4.268c-2.376 0-4.078-.396-5.104-1.188-1.027-.792-1.54-1.76-1.54-2.904 0-1.173.366-2.141 1.1-2.904.733-.792 2.038-1.76 3.916-2.904-3.403-.968-5.104-3.1973-5.104-6.688 0-2.2.792-3.9747 2.376-5.324s3.96-2.024 7.128-2.024c1.906 0 3.534.3667 4.884 1.1-.176-.792-.264-1.5107-.264-2.156 0-1.6427.44-2.8307 1.32-3.564s1.862-1.1 2.948-1.1c1.085 0 1.95.2933 2.596.88.674.5573 1.012 1.3347 1.012 2.332s-.264 1.7453-.792 2.244c-.528.4693-1.174.704-1.936.704-.734 0-1.35-.1907-1.848-.572-.47-.4107-.719-.9827-.748-1.716zm-9.328 8.228v2.376c0 1.9653.161 3.3.484 4.004.352.704.865 1.056 1.54 1.056.704 0 1.202-.3373 1.496-1.012.322-.704.484-2.1267.484-4.268v-2.156c0-2.288-.147-3.784-.44-4.488-.294-.7333-.792-1.1-1.496-1.1-.675 0-1.188.3813-1.54 1.144-.352.7333-.528 2.2147-.528 4.444zm29.368-4.708c-1.085 0-2.039.704-2.86 2.112s-1.232 3.08-1.232 5.016v11.792h3.124v.792h-13.728v-.792h2.42v-19.36h-2.42v-.792h10.604v4.224c.381-1.496 1.115-2.64 2.2-3.432 1.085-.8213 2.317-1.232 3.696-1.232s2.493.396 3.344 1.188c.88.7627 1.32 1.8627 1.32 3.3 0 1.408-.323 2.4933-.968 3.256s-1.643 1.144-2.992 1.144c-1.32 0-2.303-.44-2.948-1.32-.616-.88-.689-2.0973-.22-3.652h1.584c.733-1.496.425-2.244-.924-2.244zm17.005 9.372h1.276v-3.388c0-2.7867-.162-4.6493-.484-5.588-.294-.968-.88-1.452-1.76-1.452-.528 0-1.012.1467-1.452.44-.411.264-.616.6453-.616 1.144 0 .4693.088.9533.264 1.452h1.1c.234.616.352 1.364.352 2.244 0 .8507-.367 1.5987-1.1 2.244-.734.616-1.658.924-2.772.924-2.523 0-3.784-1.2173-3.784-3.652 0-3.608 3.065-5.412 9.196-5.412 3.49 0 5.896.6013 7.216 1.804 1.349 1.1733 2.024 3.344 2.024 6.512v8.932c0 1.525.425 2.288 1.276 2.288.997 0 1.584-1.511 1.76-4.532l.66.044c-.118 2.581-.602 4.356-1.452 5.324-.851.968-2.244 1.452-4.18 1.452-3.52 0-5.544-1.085-6.072-3.256-.382 1.115-.954 1.936-1.716 2.464-.763.528-1.878.792-3.344.792-4.342 0-6.512-1.775-6.512-5.324 0-2.0827.821-3.5053 2.464-4.268 1.672-.792 4.224-1.188 7.656-1.188zm-1.76 5.412c0 1.525.073 2.508.22 2.948.176.44.484.66.924.66.469 0 .894-.367 1.276-1.1.41-.763.616-1.804.616-3.124v-4.092h-.308c-1.819 0-2.728 1.3347-2.728 4.004zm16.903-1.364v-13.86h-2.42v-.792h2.42v-5.676l8.184-2.024v7.7h5.72v.792h-5.72v14.828c0 1.379.132 2.391.396 3.036.294.645.88.968 1.76.968s1.643-.44 2.288-1.32c.675-.88 1.115-2.083 1.32-3.608l.748.088c-.234 2.024-.88 3.637-1.936 4.84-1.056 1.173-2.801 1.76-5.236 1.76-2.434 0-4.297-.484-5.588-1.452-1.29-.968-1.936-2.728-1.936-5.28zm21.585-17.688c-1.555 0-2.669-.396-3.344-1.188-.645-.792-.968-1.7747-.968-2.948s.352-2.1413 1.056-2.904c.733-.7627 1.833-1.144 3.3-1.144s2.581.352 3.344 1.056c.763.6747 1.144 1.6573 1.144 2.948 0 1.2613-.367 2.2733-1.1 3.036s-1.877 1.144-3.432 1.144zm-6.644 3.036h10.78v20.152h2.464v.792h-13.068v-.792h2.42v-19.36h-2.596zm15.153 21.384v-7.876h.528c.762 2.552 1.789 4.341 3.08 5.368 1.29 1.027 2.904 1.54 4.84 1.54 2.992 0 4.488-.953 4.488-2.86 0-.821-.367-1.437-1.1-1.848-1.144-.6453-2.611-1.144-4.4-1.496-1.995-.528-3.667-1.232-5.016-2.112-1.614-1.056-2.42-2.728-2.42-5.016s.704-4.1067 2.112-5.456c1.408-1.3787 3.285-2.068 5.632-2.068 1.437 0 2.918.3373 4.444 1.012.557.2347.982.352 1.276.352.293 0 .542-.1027.748-.308.205-.2053.454-.5867.748-1.144h.484v6.732h-.528c-1.496-3.8133-3.814-5.72-6.952-5.72-1.379 0-2.406.2493-3.08.748-.675.4693-1.012 1.0707-1.012 1.804 0 .44.102.792.308 1.056.205.2347.366.4107.484.528.117.1173.308.2493.572.396.264.1173.484.22.66.308.176.0587.44.1467.792.264.381.1173.66.1907.836.22 1.994.4987 3.432.9387 4.312 1.32.88.352 1.716.792 2.508 1.32 1.613 1.1147 2.42 2.9187 2.42 5.412 0 2.464-.734 4.341-2.2 5.632-1.467 1.261-3.476 1.892-6.028 1.892-1.819 0-3.579-.425-5.28-1.276-.352-.235-.631-.352-.836-.352-.646 0-1.276.543-1.892 1.628z" fill="#000"/></svg>