<svg fill="none" height="640" viewBox="0 0 1280 640" width="1280" xmlns="http://www.w3.org/2000/svg"><path d="m0 0h1280v640h-1280z" fill="#fff"/><path d="m383.29 362v-3.06h7.82l-19.21-39.44-3.23.85v38.59h7.82v3.06h-48.79v-3.06h9.35v-121.38h-10.03v-3.06h41.65v82.45l2.72-1.02 38.25-31.79h-15.98v-3.06h33.49v3.06h-11.9l-20.23 17.17 29.41 57.63h6.12v3.06zm53.74 1.7v-30.43h2.04c2.947 9.86 6.913 16.773 11.9 20.74s11.22 5.95 18.7 5.95c11.56 0 17.34-3.683 17.34-11.05 0-3.173-1.417-5.553-4.25-7.14-4.42-2.493-10.087-4.42-17-5.78-7.707-2.04-14.167-4.76-19.38-8.16-6.233-4.08-9.35-10.54-9.35-19.38s2.72-15.867 8.16-21.08c5.44-5.327 12.693-7.99 21.76-7.99 5.553 0 11.277 1.303 17.17 3.91 2.153.907 3.797 1.36 4.93 1.36s2.097-.397 2.89-1.19 1.757-2.267 2.89-4.42h1.87v26.01h-2.04c-5.78-14.733-14.733-22.1-26.86-22.1-5.327 0-9.293.963-11.9 2.89-2.607 1.813-3.91 4.137-3.91 6.97 0 1.7.397 3.06 1.19 4.08.793.907 1.417 1.587 1.87 2.04s1.19.963 2.21 1.53c1.02.453 1.87.85 2.55 1.19.68.227 1.7.567 3.06 1.02 1.473.453 2.55.737 3.23.85 7.707 1.927 13.26 3.627 16.66 5.1 3.4 1.36 6.63 3.06 9.69 5.1 6.233 4.307 9.35 11.277 9.35 20.91 0 9.52-2.833 16.773-8.5 21.76-5.667 4.873-13.43 7.31-23.29 7.31-7.027 0-13.827-1.643-20.4-4.93-1.36-.907-2.437-1.36-3.23-1.36-2.493 0-4.93 2.097-7.31 6.29zm110.601-41.65h4.93v-13.09c0-10.767-.623-17.963-1.87-21.59-1.133-3.74-3.4-5.61-6.8-5.61-2.04 0-3.91.567-5.61 1.7-1.587 1.02-2.38 2.493-2.38 4.42 0 1.813.34 3.683 1.02 5.61h4.25c.907 2.38 1.36 5.27 1.36 8.67 0 3.287-1.417 6.177-4.25 8.67-2.833 2.38-6.403 3.57-10.71 3.57-9.747 0-14.62-4.703-14.62-14.11 0-13.94 11.843-20.91 35.53-20.91 13.487 0 22.78 2.323 27.88 6.97 5.213 4.533 7.82 12.92 7.82 25.16v34.51c0 5.893 1.643 8.84 4.93 8.84 3.853 0 6.12-5.837 6.8-17.51l2.55.17c-.453 9.973-2.323 16.83-5.61 20.57s-8.67 5.61-16.15 5.61c-13.6 0-21.42-4.193-23.46-12.58-1.473 4.307-3.683 7.48-6.63 9.52s-7.253 3.06-12.92 3.06c-16.773 0-25.16-6.857-25.16-20.57 0-8.047 3.173-13.543 9.52-16.49 6.46-3.06 16.32-4.59 29.58-4.59zm-6.8 20.91c0 5.893.283 9.69.85 11.39.68 1.7 1.87 2.55 3.57 2.55 1.813 0 3.457-1.417 4.93-4.25 1.587-2.947 2.38-6.97 2.38-12.07v-15.81h-1.19c-7.027 0-10.54 5.157-10.54 15.47zm59.641-61.88h40.97v15.64c1.813-5.213 4.59-9.407 8.33-12.58s9.406-4.76 17-4.76c17.566 0 26.35 9.463 26.35 28.39v51.17h9.52v3.06h-48.11v-3.06h6.97v-55.25c0-6.8-.454-11.163-1.36-13.09-.907-2.04-2.55-3.06-4.93-3.06-3.627 0-6.857 2.38-9.69 7.14-2.72 4.76-4.08 10.54-4.08 17.34v46.92h7.31v3.06h-48.28v-3.06h9.35v-74.8h-9.35zm145.216 40.97h4.93v-13.09c0-10.767-.624-17.963-1.87-21.59-1.134-3.74-3.4-5.61-6.8-5.61-2.04 0-3.91.567-5.61 1.7-1.587 1.02-2.38 2.493-2.38 4.42 0 1.813.34 3.683 1.02 5.61h4.25c.906 2.38 1.36 5.27 1.36 8.67 0 3.287-1.417 6.177-4.25 8.67-2.834 2.38-6.404 3.57-10.711 3.57-9.746 0-14.619-4.703-14.619-14.11 0-13.94 11.843-20.91 35.53-20.91 13.486 0 22.78 2.323 27.88 6.97 5.213 4.533 7.82 12.92 7.82 25.16v34.51c0 5.893 1.643 8.84 4.93 8.84 3.853 0 6.12-5.837 6.8-17.51l2.55.17c-.454 9.973-2.324 16.83-5.61 20.57-3.287 3.74-8.67 5.61-16.15 5.61-13.6 0-21.42-4.193-23.46-12.58-1.474 4.307-3.684 7.48-6.63 9.52-2.947 2.04-7.254 3.06-12.92 3.06-16.774 0-25.16-6.857-25.16-20.57 0-8.047 3.173-13.543 9.52-16.49 6.46-3.06 16.32-4.59 29.58-4.59zm-6.8 20.91c0 5.893.283 9.69.85 11.39.68 1.7 1.87 2.55 3.57 2.55 1.813 0 3.456-1.417 4.93-4.25 1.586-2.947 2.38-6.97 2.38-12.07v-15.81h-1.19c-7.027 0-10.54 5.157-10.54 15.47z" fill="#ed8936"/><path d="m675.942 455c-2.867 0-5.033-.833-6.5-2.5-1.4-1.733-2.1-3.8-2.1-6.2 0-2.467.733-4.533 2.2-6.2 1.533-1.667 3.667-2.5 6.4-2.5s4.9.7 6.5 2.1 2.4 3.5 2.4 6.3-.767 5-2.3 6.6c-1.467 1.6-3.667 2.4-6.6 2.4zm29.065-55.5c-3.533 0-6.067-.9-7.6-2.7-1.467-1.8-2.2-4.033-2.2-6.7s.8-4.867 2.4-6.6c1.667-1.733 4.167-2.6 7.5-2.6s5.867.8 7.6 2.4c1.733 1.533 2.6 3.767 2.6 6.7 0 2.867-.833 5.167-2.5 6.9s-4.267 2.6-7.8 2.6zm-15.1 6.9h24.5v45.8h5.6v1.8h-29.7v-1.8h5.5v-44h-5.9zm32.338 0h24.1v9.2c1.067-3.067 2.7-5.533 4.9-7.4s5.534-2.8 10-2.8c10.334 0 15.5 5.567 15.5 16.7v30.1h5.6v1.8h-28.3v-1.8h4.1v-32.5c0-4-.266-6.567-.8-7.7-.533-1.2-1.5-1.8-2.9-1.8-2.133 0-4.033 1.4-5.7 4.2-1.6 2.8-2.4 6.2-2.4 10.2v27.6h4.3v1.8h-28.4v-1.8h5.5v-44h-5.5z" fill="#ed8936"/><path d="m362.58 83.42c0 3.48-1.2 6.38-3.6 8.7-2.36 2.28-5.98 3.42-10.86 3.42h-8.04v17.46h-5.46v-41.82h13.5c4.72 0 8.3 1.14 10.74 3.42 2.48 2.28 3.72 5.22 3.72 8.82zm-14.46 7.62c3.04 0 5.28-.66 6.72-1.98s2.16-3.2 2.16-5.64c0-5.16-2.96-7.74-8.88-7.74h-8.04v15.36zm51.246 4.26c0 1.04-.06 2.14-.18 3.3h-26.28c.2 3.24 1.3 5.78 3.3 7.62 2.04 1.8 4.5 2.7 7.38 2.7 2.36 0 4.32-.54 5.88-1.62 1.6-1.12 2.72-2.6 3.36-4.44h5.88c-.88 3.16-2.64 5.74-5.28 7.74-2.64 1.96-5.92 2.94-9.84 2.94-3.12 0-5.92-.7-8.4-2.1-2.44-1.4-4.36-3.38-5.76-5.94-1.4-2.6-2.1-5.6-2.1-9s.68-6.38 2.04-8.94 3.26-4.52 5.7-5.88c2.48-1.4 5.32-2.1 8.52-2.1 3.12 0 5.88.68 8.28 2.04s4.24 3.24 5.52 5.64c1.32 2.36 1.98 5.04 1.98 8.04zm-5.64-1.14c0-2.08-.46-3.86-1.38-5.34-.92-1.52-2.18-2.66-3.78-3.42-1.56-.8-3.3-1.2-5.22-1.2-2.76 0-5.12.88-7.08 2.64-1.92 1.76-3.02 4.2-3.3 7.32zm52.387-14.64c2.56 0 4.84.54 6.84 1.62 2 1.04 3.58 2.62 4.74 4.74s1.74 4.7 1.74 7.74v19.38h-5.4v-18.6c0-3.28-.82-5.78-2.46-7.5-1.6-1.76-3.78-2.64-6.54-2.64-2.84 0-5.1.92-6.78 2.76-1.68 1.8-2.52 4.42-2.52 7.86v18.12h-5.4v-18.6c0-3.28-.82-5.78-2.46-7.5-1.6-1.76-3.78-2.64-6.54-2.64-2.84 0-5.1.92-6.78 2.76-1.68 1.8-2.52 4.42-2.52 7.86v18.12h-5.46v-32.88h5.46v4.74c1.08-1.72 2.52-3.04 4.32-3.96 1.84-.92 3.86-1.38 6.06-1.38 2.76 0 5.2.62 7.32 1.86s3.7 3.06 4.74 5.46c.92-2.32 2.44-4.12 4.56-5.4s4.48-1.92 7.08-1.92zm52.277 15.78c0 1.04-.06 2.14-.18 3.3h-26.28c.2 3.24 1.3 5.78 3.3 7.62 2.04 1.8 4.5 2.7 7.38 2.7 2.36 0 4.32-.54 5.88-1.62 1.6-1.12 2.72-2.6 3.36-4.44h5.88c-.88 3.16-2.64 5.74-5.28 7.74-2.64 1.96-5.92 2.94-9.84 2.94-3.12 0-5.92-.7-8.4-2.1-2.44-1.4-4.36-3.38-5.76-5.94-1.4-2.6-2.1-5.6-2.1-9s.68-6.38 2.04-8.94 3.26-4.52 5.7-5.88c2.48-1.4 5.32-2.1 8.52-2.1 3.12 0 5.88.68 8.28 2.04s4.24 3.24 5.52 5.64c1.32 2.36 1.98 5.04 1.98 8.04zm-5.64-1.14c0-2.08-.46-3.86-1.38-5.34-.92-1.52-2.18-2.66-3.78-3.42-1.56-.8-3.3-1.2-5.22-1.2-2.76 0-5.12.88-7.08 2.64-1.92 1.76-3.02 4.2-3.3 7.32zm28.867-14.64c4 0 7.24 1.22 9.72 3.66 2.48 2.4 3.72 5.88 3.72 10.44v19.38h-5.4v-18.6c0-3.28-.82-5.78-2.46-7.5-1.64-1.76-3.88-2.64-6.72-2.64-2.88 0-5.18.9-6.9 2.7-1.68 1.8-2.52 4.42-2.52 7.86v18.18h-5.46v-32.88h5.46v4.68c1.08-1.68 2.54-2.98 4.38-3.9 1.88-.92 3.94-1.38 6.18-1.38zm20.318 16.92c0-3.36.68-6.3 2.04-8.82 1.36-2.56 3.22-4.54 5.58-5.94 2.4-1.4 5.08-2.1 8.04-2.1 2.56 0 4.94.6 7.14 1.8 2.2 1.16 3.88 2.7 5.04 4.62v-17.4h5.52v44.4h-5.52v-6.18c-1.08 1.96-2.68 3.58-4.8 4.86-2.12 1.24-4.6 1.86-7.44 1.86-2.92 0-5.58-.72-7.98-2.16-2.36-1.44-4.22-3.46-5.58-6.06s-2.04-5.56-2.04-8.88zm27.84.06c0-2.48-.5-4.64-1.5-6.48s-2.36-3.24-4.08-4.2c-1.68-1-3.54-1.5-5.58-1.5s-3.9.48-5.58 1.44-3.02 2.36-4.02 4.2-1.5 4-1.5 6.48c0 2.52.5 4.72 1.5 6.6 1 1.84 2.34 3.26 4.02 4.26 1.68.96 3.54 1.44 5.58 1.44s3.9-.48 5.58-1.44c1.72-1 3.08-2.42 4.08-4.26 1-1.88 1.5-4.06 1.5-6.54zm44.747-1.2c0 1.04-.06 2.14-.18 3.3h-26.28c.2 3.24 1.3 5.78 3.3 7.62 2.04 1.8 4.5 2.7 7.38 2.7 2.36 0 4.32-.54 5.88-1.62 1.6-1.12 2.72-2.6 3.36-4.44h5.88c-.88 3.16-2.64 5.74-5.28 7.74-2.64 1.96-5.92 2.94-9.84 2.94-3.12 0-5.92-.7-8.4-2.1-2.44-1.4-4.36-3.38-5.76-5.94-1.4-2.6-2.1-5.6-2.1-9s.68-6.38 2.04-8.94 3.26-4.52 5.7-5.88c2.48-1.4 5.32-2.1 8.52-2.1 3.12 0 5.88.68 8.28 2.04s4.24 3.24 5.52 5.64c1.32 2.36 1.98 5.04 1.98 8.04zm-5.64-1.14c0-2.08-.46-3.86-1.38-5.34-.92-1.52-2.18-2.66-3.78-3.42-1.56-.8-3.3-1.2-5.22-1.2-2.76 0-5.12.88-7.08 2.64-1.92 1.76-3.02 4.2-3.3 7.32zm31.207 18.84-12.9-14.52v14.52h-5.46v-44.4h5.46v26.1l12.66-14.58h7.62l-15.48 16.38 15.54 16.5zm35.175-28.38v19.38c0 1.6.34 2.74 1.02 3.42.68.64 1.86.96 3.54.96h4.02v4.62h-4.92c-3.04 0-5.32-.7-6.84-2.1s-2.28-3.7-2.28-6.9v-19.38h-4.26v-4.5h4.26v-8.28h5.46v8.28h8.58v4.5zm13.156 11.82c0-3.36.68-6.3 2.04-8.82 1.36-2.56 3.22-4.54 5.58-5.94 2.4-1.4 5.06-2.1 7.98-2.1 2.88 0 5.38.62 7.5 1.86s3.7 2.8 4.74 4.68v-6h5.52v32.88h-5.52v-6.12c-1.08 1.92-2.7 3.52-4.86 4.8-2.12 1.24-4.6 1.86-7.44 1.86-2.92 0-5.56-.72-7.92-2.16s-4.22-3.46-5.58-6.06-2.04-5.56-2.04-8.88zm27.84.06c0-2.48-.5-4.64-1.5-6.48s-2.36-3.24-4.08-4.2c-1.68-1-3.54-1.5-5.58-1.5s-3.9.48-5.58 1.44-3.02 2.36-4.02 4.2-1.5 4-1.5 6.48c0 2.52.5 4.72 1.5 6.6 1 1.84 2.34 3.26 4.02 4.26 1.68.96 3.54 1.44 5.58 1.44s3.9-.48 5.58-1.44c1.72-1 3.08-2.42 4.08-4.26 1-1.88 1.5-4.06 1.5-6.54zm43.907-16.38v32.88h-5.46v-4.86c-1.04 1.68-2.5 3-4.38 3.96-1.84.92-3.88 1.38-6.12 1.38-2.56 0-4.86-.52-6.9-1.56-2.04-1.08-3.66-2.68-4.86-4.8-1.16-2.12-1.74-4.7-1.74-7.74v-19.26h5.4v18.54c0 3.24.82 5.74 2.46 7.5 1.64 1.72 3.88 2.58 6.72 2.58 2.92 0 5.22-.9 6.9-2.7s2.52-4.42 2.52-7.86v-18.06zm15.879 4.5v19.38c0 1.6.34 2.74 1.02 3.42.68.64 1.86.96 3.54.96h4.02v4.62h-4.92c-3.04 0-5.32-.7-6.84-2.1s-2.28-3.7-2.28-6.9v-19.38h-4.26v-4.5h4.26v-8.28h5.46v8.28h8.58v4.5zm13.155 11.82c0-3.36.68-6.3 2.04-8.82 1.36-2.56 3.22-4.54 5.58-5.94 2.4-1.4 5.06-2.1 7.98-2.1 2.88 0 5.38.62 7.5 1.86s3.7 2.8 4.74 4.68v-6h5.52v32.88h-5.52v-6.12c-1.08 1.92-2.7 3.52-4.86 4.8-2.12 1.24-4.6 1.86-7.44 1.86-2.92 0-5.56-.72-7.92-2.16s-4.22-3.46-5.58-6.06-2.04-5.56-2.04-8.88zm27.84.06c0-2.48-.5-4.64-1.5-6.48s-2.36-3.24-4.08-4.2c-1.68-1-3.54-1.5-5.58-1.5s-3.9.48-5.58 1.44-3.02 2.36-4.02 4.2-1.5 4-1.5 6.48c0 2.52.5 4.72 1.5 6.6 1 1.84 2.34 3.26 4.02 4.26 1.68.96 3.54 1.44 5.58 1.44s3.9-.48 5.58-1.44c1.72-1 3.08-2.42 4.08-4.26 1-1.88 1.5-4.06 1.5-6.54zm30.767-16.98c4 0 7.24 1.22 9.72 3.66 2.48 2.4 3.72 5.88 3.72 10.44v19.38h-5.4v-18.6c0-3.28-.82-5.78-2.46-7.5-1.64-1.76-3.88-2.64-6.72-2.64-2.88 0-5.18.9-6.9 2.7-1.68 1.8-2.52 4.42-2.52 7.86v18.18h-5.46v-32.88h5.46v4.68c1.08-1.68 2.54-2.98 4.38-3.9 1.88-.92 3.94-1.38 6.18-1.38zm66.675.6-19.8 48.36h-5.64l6.48-15.84-13.26-32.52h6.06l10.32 26.64 10.2-26.64zm3.449 16.32c0-3.36.68-6.3 2.04-8.82 1.36-2.56 3.22-4.54 5.58-5.94 2.4-1.4 5.06-2.1 7.98-2.1 2.88 0 5.38.62 7.5 1.86s3.7 2.8 4.74 4.68v-6h5.52v32.88h-5.52v-6.12c-1.08 1.92-2.7 3.52-4.86 4.8-2.12 1.24-4.6 1.86-7.44 1.86-2.92 0-5.56-.72-7.92-2.16s-4.22-3.46-5.58-6.06-2.04-5.56-2.04-8.88zm27.84.06c0-2.48-.5-4.64-1.5-6.48s-2.36-3.24-4.08-4.2c-1.68-1-3.54-1.5-5.58-1.5s-3.9.48-5.58 1.44-3.02 2.36-4.02 4.2-1.5 4-1.5 6.48c0 2.52.5 4.72 1.5 6.6 1 1.84 2.34 3.26 4.02 4.26 1.68.96 3.54 1.44 5.58 1.44s3.9-.48 5.58-1.44c1.72-1 3.08-2.42 4.08-4.26 1-1.88 1.5-4.06 1.5-6.54zm30.766-16.98c4 0 7.24 1.22 9.72 3.66 2.48 2.4 3.72 5.88 3.72 10.44v19.38h-5.4v-18.6c0-3.28-.82-5.78-2.46-7.5-1.64-1.76-3.88-2.64-6.72-2.64-2.88 0-5.18.9-6.9 2.7-1.68 1.8-2.52 4.42-2.52 7.86v18.18h-5.46v-32.88h5.46v4.68c1.08-1.68 2.54-2.98 4.38-3.9 1.88-.92 3.94-1.38 6.18-1.38zm35.922.06c2.84 0 5.32.62 7.44 1.86 2.16 1.24 3.76 2.8 4.8 4.68v-6h5.52v33.6c0 3-.64 5.66-1.92 7.98-1.28 2.36-3.12 4.2-5.52 5.52-2.36 1.32-5.12 1.98-8.28 1.98-4.32 0-7.92-1.02-10.8-3.06s-4.583-4.82-5.103-8.34h5.403c.6 2 1.84 3.6 3.72 4.8 1.88 1.24 4.14 1.86 6.78 1.86 3 0 5.44-.94 7.32-2.82 1.92-1.88 2.88-4.52 2.88-7.92v-6.9c-1.08 1.92-2.68 3.52-4.8 4.8s-4.6 1.92-7.44 1.92c-2.92 0-5.58-.72-7.98-2.16-2.36-1.44-4.22-3.46-5.583-6.06-1.36-2.6-2.04-5.56-2.04-8.88 0-3.36.68-6.3 2.04-8.82 1.363-2.56 3.223-4.54 5.583-5.94 2.4-1.4 5.06-2.1 7.98-2.1zm12.24 16.92c0-2.48-.5-4.64-1.5-6.48s-2.36-3.24-4.08-4.2c-1.68-1-3.54-1.5-5.58-1.5s-3.9.48-5.58 1.44-3.02 2.36-4.02 4.2-1.5 4-1.5 6.48c0 2.52.5 4.72 1.5 6.6 1 1.84 2.34 3.26 4.02 4.26 1.68.96 3.54 1.44 5.58 1.44s3.9-.48 5.58-1.44c1.72-1 3.08-2.42 4.08-4.26 1-1.88 1.5-4.06 1.5-6.54zm-456.456 89.94c0-3.36.68-6.3 2.04-8.82 1.36-2.56 3.22-4.54 5.58-5.94 2.4-1.4 5.08-2.1 8.04-2.1 2.56 0 4.94.6 7.14 1.8 2.2 1.16 3.88 2.7 5.04 4.62v-17.4h5.52v44.4h-5.52v-6.18c-1.08 1.96-2.68 3.58-4.8 4.86-2.12 1.24-4.6 1.86-7.44 1.86-2.92 0-5.58-.72-7.98-2.16-2.36-1.44-4.22-3.46-5.58-6.06s-2.04-5.56-2.04-8.88zm27.84.06c0-2.48-.5-4.64-1.5-6.48s-2.36-3.24-4.08-4.2c-1.68-1-3.54-1.5-5.58-1.5s-3.9.48-5.58 1.44-3.02 2.36-4.02 4.2-1.5 4-1.5 6.48c0 2.52.5 4.72 1.5 6.6 1 1.84 2.34 3.26 4.02 4.26 1.68.96 3.54 1.44 5.58 1.44s3.9-.48 5.58-1.44c1.72-1 3.08-2.42 4.08-4.26 1-1.88 1.5-4.06 1.5-6.54zm12.707-.06c0-3.36.68-6.3 2.04-8.82 1.36-2.56 3.22-4.54 5.58-5.94 2.4-1.4 5.06-2.1 7.98-2.1 2.88 0 5.38.62 7.5 1.86s3.7 2.8 4.74 4.68v-6h5.52v32.88h-5.52v-6.12c-1.08 1.92-2.7 3.52-4.86 4.8-2.12 1.24-4.6 1.86-7.44 1.86-2.92 0-5.56-.72-7.92-2.16s-4.22-3.46-5.58-6.06-2.04-5.56-2.04-8.88zm27.84.06c0-2.48-.5-4.64-1.5-6.48s-2.36-3.24-4.08-4.2c-1.68-1-3.54-1.5-5.58-1.5s-3.9.48-5.58 1.44-3.02 2.36-4.02 4.2-1.5 4-1.5 6.48c0 2.52.5 4.72 1.5 6.6 1 1.84 2.34 3.26 4.02 4.26 1.68.96 3.54 1.44 5.58 1.44s3.9-.48 5.58-1.44c1.72-1 3.08-2.42 4.08-4.26 1-1.88 1.5-4.06 1.5-6.54zm30.767-16.98c4 0 7.24 1.22 9.72 3.66 2.48 2.4 3.72 5.88 3.72 10.44v19.38h-5.4v-18.6c0-3.28-.82-5.78-2.46-7.5-1.64-1.76-3.88-2.64-6.72-2.64-2.88 0-5.18.9-6.9 2.7-1.68 1.8-2.52 4.42-2.52 7.86v18.18h-5.46v-32.88h5.46v4.68c1.08-1.68 2.54-2.98 4.38-3.9 1.88-.92 3.94-1.38 6.18-1.38z" fill="#000"/><path d="m374.16 169.52c2.56 0 4.84.54 6.84 1.62 2 1.04 3.58 2.62 4.74 4.74s1.74 4.7 1.74 7.74v19.38h-5.4v-18.6c0-3.28-.82-5.78-2.46-7.5-1.6-1.76-3.78-2.64-6.54-2.64-2.84 0-5.1.92-6.78 2.76-1.68 1.8-2.52 4.42-2.52 7.86v18.12h-5.4v-18.6c0-3.28-.82-5.78-2.46-7.5-1.6-1.76-3.78-2.64-6.54-2.64-2.84 0-5.1.92-6.78 2.76-1.68 1.8-2.52 4.42-2.52 7.86v18.12h-5.46v-32.88h5.46v4.74c1.08-1.72 2.52-3.04 4.32-3.96 1.84-.92 3.86-1.38 6.06-1.38 2.76 0 5.2.62 7.32 1.86s3.7 3.06 4.74 5.46c.92-2.32 2.44-4.12 4.56-5.4s4.48-1.92 7.08-1.92zm51.436.6v32.88h-5.46v-4.86c-1.04 1.68-2.5 3-4.38 3.96-1.84.92-3.88 1.38-6.12 1.38-2.56 0-4.86-.52-6.9-1.56-2.04-1.08-3.66-2.68-4.86-4.8-1.16-2.12-1.74-4.7-1.74-7.74v-19.26h5.4v18.54c0 3.24.82 5.74 2.46 7.5 1.64 1.72 3.88 2.58 6.72 2.58 2.92 0 5.22-.9 6.9-2.7s2.52-4.42 2.52-7.86v-18.06zm7.179 16.32c0-3.36.68-6.3 2.04-8.82 1.36-2.56 3.22-4.54 5.58-5.94 2.4-1.4 5.08-2.1 8.04-2.1 2.56 0 4.94.6 7.14 1.8 2.2 1.16 3.88 2.7 5.04 4.62v-17.4h5.52v44.4h-5.52v-6.18c-1.08 1.96-2.68 3.58-4.8 4.86-2.12 1.24-4.6 1.86-7.44 1.86-2.92 0-5.58-.72-7.98-2.16-2.36-1.44-4.22-3.46-5.58-6.06s-2.04-5.56-2.04-8.88zm27.84.06c0-2.48-.5-4.64-1.5-6.48s-2.36-3.24-4.08-4.2c-1.68-1-3.54-1.5-5.58-1.5s-3.9.48-5.58 1.44-3.02 2.36-4.02 4.2-1.5 4-1.5 6.48c0 2.52.5 4.72 1.5 6.6 1 1.84 2.34 3.26 4.02 4.26 1.68.96 3.54 1.44 5.58 1.44s3.9-.48 5.58-1.44c1.72-1 3.08-2.42 4.08-4.26 1-1.88 1.5-4.06 1.5-6.54zm12.707-.06c0-3.36.68-6.3 2.04-8.82 1.36-2.56 3.22-4.54 5.58-5.94 2.4-1.4 5.06-2.1 7.98-2.1 2.88 0 5.38.62 7.5 1.86s3.7 2.8 4.74 4.68v-6h5.52v32.88h-5.52v-6.12c-1.08 1.92-2.7 3.52-4.86 4.8-2.12 1.24-4.6 1.86-7.44 1.86-2.92 0-5.56-.72-7.92-2.16s-4.22-3.46-5.58-6.06-2.04-5.56-2.04-8.88zm27.84.06c0-2.48-.5-4.64-1.5-6.48s-2.36-3.24-4.08-4.2c-1.68-1-3.54-1.5-5.58-1.5s-3.9.48-5.58 1.44-3.02 2.36-4.02 4.2-1.5 4-1.5 6.48c0 2.52.5 4.72 1.5 6.6 1 1.84 2.34 3.26 4.02 4.26 1.68.96 3.54 1.44 5.58 1.44s3.9-.48 5.58-1.44c1.72-1 3.08-2.42 4.08-4.26 1-1.88 1.5-4.06 1.5-6.54zm31.067-16.98c2.48 0 4.72.54 6.72 1.62 2 1.04 3.56 2.62 4.68 4.74 1.16 2.12 1.74 4.7 1.74 7.74v19.38h-5.4v-18.6c0-3.28-.82-5.78-2.46-7.5-1.64-1.76-3.88-2.64-6.72-2.64-2.88 0-5.18.9-6.9 2.7-1.68 1.8-2.52 4.42-2.52 7.86v18.18h-5.46v-44.4h5.46v16.2c1.08-1.68 2.56-2.98 4.44-3.9 1.92-.92 4.06-1.38 6.42-1.38zm187.084.06c2.84 0 5.32.62 7.44 1.86 2.16 1.24 3.76 2.8 4.8 4.68v-6h5.52v33.6c0 3-.64 5.66-1.92 7.98-1.28 2.36-3.12 4.2-5.52 5.52-2.36 1.32-5.12 1.98-8.28 1.98-4.32 0-7.92-1.02-10.8-3.06s-4.58-4.82-5.1-8.34h5.4c.6 2 1.84 3.6 3.72 4.8 1.88 1.24 4.14 1.86 6.78 1.86 3 0 5.44-.94 7.32-2.82 1.92-1.88 2.88-4.52 2.88-7.92v-6.9c-1.08 1.92-2.68 3.52-4.8 4.8s-4.6 1.92-7.44 1.92c-2.92 0-5.58-.72-7.98-2.16-2.36-1.44-4.22-3.46-5.58-6.06s-2.04-5.56-2.04-8.88c0-3.36.68-6.3 2.04-8.82 1.36-2.56 3.22-4.54 5.58-5.94 2.4-1.4 5.06-2.1 7.98-2.1zm12.24 16.92c0-2.48-.5-4.64-1.5-6.48s-2.36-3.24-4.08-4.2c-1.68-1-3.54-1.5-5.58-1.5s-3.9.48-5.58 1.44-3.02 2.36-4.02 4.2-1.5 4-1.5 6.48c0 2.52.5 4.72 1.5 6.6 1 1.84 2.34 3.26 4.02 4.26 1.68.96 3.54 1.44 5.58 1.44s3.9-.48 5.58-1.44c1.72-1 3.08-2.42 4.08-4.26 1-1.88 1.5-4.06 1.5-6.54zm20.207-11.04c.96-1.88 2.32-3.34 4.08-4.38 1.8-1.04 3.98-1.56 6.54-1.56v5.64h-1.44c-6.12 0-9.18 3.32-9.18 9.96v17.88h-5.46v-32.88h5.46zm14.883 10.98c0-3.36.68-6.3 2.04-8.82 1.36-2.56 3.22-4.54 5.58-5.94 2.4-1.4 5.06-2.1 7.98-2.1 2.88 0 5.38.62 7.5 1.86s3.7 2.8 4.74 4.68v-6h5.52v32.88h-5.52v-6.12c-1.08 1.92-2.7 3.52-4.86 4.8-2.12 1.24-4.6 1.86-7.44 1.86-2.92 0-5.56-.72-7.92-2.16s-4.22-3.46-5.58-6.06-2.04-5.56-2.04-8.88zm27.84.06c0-2.48-.5-4.64-1.5-6.48s-2.36-3.24-4.08-4.2c-1.68-1-3.54-1.5-5.58-1.5s-3.9.48-5.58 1.44-3.02 2.36-4.02 4.2-1.5 4-1.5 6.48c0 2.52.5 4.72 1.5 6.6 1 1.84 2.34 3.26 4.02 4.26 1.68.96 3.54 1.44 5.58 1.44s3.9-.48 5.58-1.44c1.72-1 3.08-2.42 4.08-4.26 1-1.88 1.5-4.06 1.5-6.54zm21.406-11.88v19.38c0 1.6.34 2.74 1.02 3.42.68.64 1.86.96 3.54.96h4.02v4.62h-4.92c-3.04 0-5.32-.7-6.84-2.1s-2.28-3.7-2.28-6.9v-19.38h-4.26v-4.5h4.26v-8.28h5.46v8.28h8.58v4.5zm18.016-9.84c-1.04 0-1.92-.36-2.64-1.08s-1.08-1.6-1.08-2.64.36-1.92 1.08-2.64 1.6-1.08 2.64-1.08c1 0 1.84.36 2.52 1.08.72.72 1.08 1.6 1.08 2.64s-.36 1.92-1.08 2.64c-.68.72-1.52 1.08-2.52 1.08zm2.64 5.34v32.88h-5.46v-32.88zm20.945 33.42c-2.52 0-4.78-.42-6.78-1.26-2-.88-3.58-2.08-4.74-3.6-1.16-1.56-1.8-3.34-1.92-5.34h5.64c.16 1.64.92 2.98 2.28 4.02 1.4 1.04 3.22 1.56 5.46 1.56 2.08 0 3.72-.46 4.92-1.38s1.8-2.08 1.8-3.48c0-1.44-.64-2.5-1.92-3.18-1.28-.72-3.26-1.42-5.94-2.1-2.44-.64-4.44-1.28-6-1.92-1.52-.68-2.84-1.66-3.96-2.94-1.08-1.32-1.62-3.04-1.62-5.16 0-1.68.5-3.22 1.5-4.62s2.42-2.5 4.26-3.3c1.84-.84 3.94-1.26 6.3-1.26 3.64 0 6.58.92 8.82 2.76s3.44 4.36 3.6 7.56h-5.46c-.12-1.72-.82-3.1-2.1-4.14-1.24-1.04-2.92-1.56-5.04-1.56-1.96 0-3.52.42-4.68 1.26s-1.74 1.94-1.74 3.3c0 1.08.34 1.98 1.02 2.7.72.68 1.6 1.24 2.64 1.68 1.08.4 2.56.86 4.44 1.38 2.36.64 4.28 1.28 5.76 1.92 1.48.6 2.74 1.52 3.78 2.76 1.08 1.24 1.64 2.86 1.68 4.86 0 1.8-.5 3.42-1.5 4.86s-2.42 2.58-4.26 3.42c-1.8.8-3.88 1.2-6.24 1.2z" fill="#ed8936"/></svg>