<svg width="511" height="339" viewBox="0 0 511 339" fill="none" xmlns="http://www.w3.org/2000/svg">
<rect width="511" height="339" fill="white"/>
<path d="M73.29 221V217.94H81.11L61.9 178.5L58.67 179.35V217.94H66.49V221H17.7V217.94H27.05V96.56H17.02V93.5H58.67V175.95L61.39 174.93L99.64 143.14H83.66V140.08H117.15V143.14H105.25L85.02 160.31L114.43 217.94H120.55V221H73.29ZM127.03 222.7V192.27H129.07C132.017 202.13 135.983 209.043 140.97 213.01C145.957 216.977 152.19 218.96 159.67 218.96C171.23 218.96 177.01 215.277 177.01 207.91C177.01 204.737 175.593 202.357 172.76 200.77C168.34 198.277 162.673 196.35 155.76 194.99C148.053 192.95 141.593 190.23 136.38 186.83C130.147 182.75 127.03 176.29 127.03 167.45C127.03 158.61 129.75 151.583 135.19 146.37C140.63 141.043 147.883 138.38 156.95 138.38C162.503 138.38 168.227 139.683 174.12 142.29C176.273 143.197 177.917 143.65 179.05 143.65C180.183 143.65 181.147 143.253 181.94 142.46C182.733 141.667 183.697 140.193 184.83 138.04H186.7V164.05H184.66C178.88 149.317 169.927 141.95 157.8 141.95C152.473 141.95 148.507 142.913 145.9 144.84C143.293 146.653 141.99 148.977 141.99 151.81C141.99 153.51 142.387 154.87 143.18 155.89C143.973 156.797 144.597 157.477 145.05 157.93C145.503 158.383 146.24 158.893 147.26 159.46C148.28 159.913 149.13 160.31 149.81 160.65C150.49 160.877 151.51 161.217 152.87 161.67C154.343 162.123 155.42 162.407 156.1 162.52C163.807 164.447 169.36 166.147 172.76 167.62C176.16 168.98 179.39 170.68 182.45 172.72C188.683 177.027 191.8 183.997 191.8 193.63C191.8 203.15 188.967 210.403 183.3 215.39C177.633 220.263 169.87 222.7 160.01 222.7C152.983 222.7 146.183 221.057 139.61 217.77C138.25 216.863 137.173 216.41 136.38 216.41C133.887 216.41 131.45 218.507 129.07 222.7H127.03ZM237.631 181.05H242.561V167.96C242.561 157.193 241.938 149.997 240.691 146.37C239.558 142.63 237.291 140.76 233.891 140.76C231.851 140.76 229.981 141.327 228.281 142.46C226.694 143.48 225.901 144.953 225.901 146.88C225.901 148.693 226.241 150.563 226.921 152.49H231.171C232.078 154.87 232.531 157.76 232.531 161.16C232.531 164.447 231.114 167.337 228.281 169.83C225.448 172.21 221.878 173.4 217.571 173.4C207.824 173.4 202.951 168.697 202.951 159.29C202.951 145.35 214.794 138.38 238.481 138.38C251.968 138.38 261.261 140.703 266.361 145.35C271.574 149.883 274.181 158.27 274.181 170.51V205.02C274.181 210.913 275.824 213.86 279.111 213.86C282.964 213.86 285.231 208.023 285.911 196.35L288.461 196.52C288.008 206.493 286.138 213.35 282.851 217.09C279.564 220.83 274.181 222.7 266.701 222.7C253.101 222.7 245.281 218.507 243.241 210.12C241.768 214.427 239.558 217.6 236.611 219.64C233.664 221.68 229.358 222.7 223.691 222.7C206.918 222.7 198.531 215.843 198.531 202.13C198.531 194.083 201.704 188.587 208.051 185.64C214.511 182.58 224.371 181.05 237.631 181.05ZM230.831 201.96C230.831 207.853 231.114 211.65 231.681 213.35C232.361 215.05 233.551 215.9 235.251 215.9C237.064 215.9 238.708 214.483 240.181 211.65C241.768 208.703 242.561 204.68 242.561 199.58V183.77H241.371C234.344 183.77 230.831 188.927 230.831 199.24V201.96ZM290.472 140.08H331.442V155.72C333.255 150.507 336.032 146.313 339.772 143.14C343.512 139.967 349.178 138.38 356.772 138.38C374.338 138.38 383.122 147.843 383.122 166.77V217.94H392.642V221H344.532V217.94H351.502V162.69C351.502 155.89 351.048 151.527 350.142 149.6C349.235 147.56 347.592 146.54 345.212 146.54C341.585 146.54 338.355 148.92 335.522 153.68C332.802 158.44 331.442 164.22 331.442 171.02V217.94H338.752V221H290.472V217.94H299.822V143.14H290.472V140.08ZM435.688 181.05H440.618V167.96C440.618 157.193 439.994 149.997 438.748 146.37C437.614 142.63 435.348 140.76 431.948 140.76C429.908 140.76 428.038 141.327 426.338 142.46C424.751 143.48 423.958 144.953 423.958 146.88C423.958 148.693 424.298 150.563 424.978 152.49H429.228C430.134 154.87 430.588 157.76 430.588 161.16C430.588 164.447 429.171 167.337 426.338 169.83C423.504 172.21 419.934 173.4 415.627 173.4C405.881 173.4 401.008 168.697 401.008 159.29C401.008 145.35 412.851 138.38 436.538 138.38C450.024 138.38 459.318 140.703 464.418 145.35C469.631 149.883 472.238 158.27 472.238 170.51V205.02C472.238 210.913 473.881 213.86 477.168 213.86C481.021 213.86 483.288 208.023 483.968 196.35L486.518 196.52C486.064 206.493 484.194 213.35 480.908 217.09C477.621 220.83 472.238 222.7 464.758 222.7C451.158 222.7 443.338 218.507 441.298 210.12C439.824 214.427 437.614 217.6 434.668 219.64C431.721 221.68 427.414 222.7 421.748 222.7C404.974 222.7 396.588 215.843 396.588 202.13C396.588 194.083 399.761 188.587 406.108 185.64C412.568 182.58 422.428 181.05 435.688 181.05ZM428.888 201.96C428.888 207.853 429.171 211.65 429.738 213.35C430.418 215.05 431.608 215.9 433.308 215.9C435.121 215.9 436.764 214.483 438.238 211.65C439.824 208.703 440.618 204.68 440.618 199.58V183.77H439.428C432.401 183.77 428.888 188.927 428.888 199.24V201.96Z" fill="#ED8936"/>
<path d="M380.1 302C377.233 302 375.067 301.167 373.6 299.5C372.2 297.767 371.5 295.7 371.5 293.3C371.5 290.833 372.233 288.767 373.7 287.1C375.233 285.433 377.367 284.6 380.1 284.6C382.833 284.6 385 285.3 386.6 286.7C388.2 288.1 389 290.2 389 293C389 295.8 388.233 298 386.7 299.6C385.233 301.2 383.033 302 380.1 302ZM409.165 246.5C405.632 246.5 403.098 245.6 401.565 243.8C400.098 242 399.365 239.767 399.365 237.1C399.365 234.433 400.165 232.233 401.765 230.5C403.432 228.767 405.932 227.9 409.265 227.9C412.598 227.9 415.132 228.7 416.865 230.3C418.598 231.833 419.465 234.067 419.465 237C419.465 239.867 418.632 242.167 416.965 243.9C415.298 245.633 412.698 246.5 409.165 246.5ZM394.065 253.4H418.565V299.2H424.165V301H394.465V299.2H399.965V255.2H394.065V253.4ZM426.403 253.4H450.503V262.6C451.57 259.533 453.203 257.067 455.403 255.2C457.603 253.333 460.936 252.4 465.403 252.4C475.736 252.4 480.903 257.967 480.903 269.1V299.2H486.503V301H458.203V299.2H462.303V266.7C462.303 262.7 462.036 260.133 461.503 259C460.97 257.8 460.003 257.2 458.603 257.2C456.47 257.2 454.57 258.6 452.903 261.4C451.303 264.2 450.503 267.6 450.503 271.6V299.2H454.803V301H426.403V299.2H431.903V255.2H426.403V253.4Z" fill="#ED8936"/>
<path d="M16.66 15.2H29.596C34.0253 15.2 37.3253 15.8453 39.496 17.136C41.6667 18.3973 42.752 20.6707 42.752 23.956C42.752 27.5933 41.432 30.1013 38.792 31.48C36.328 32.7413 32.8813 33.372 28.452 33.372H28.1V45.164H33.6V46H16.66V45.164H19.52V16.036H16.66V15.2ZM28.1 16.036V32.536H29.024C30.784 32.536 32.0013 31.9347 32.676 30.732C33.3507 29.5293 33.688 27.5787 33.688 24.88V22.768C33.688 20.2747 33.3653 18.5293 32.72 17.532C32.104 16.5347 30.96 16.036 29.288 16.036H28.1ZM54.5667 46.44C50.7827 46.44 47.9374 45.472 46.0307 43.536C44.1534 41.5707 43.2147 38.8573 43.2147 35.396C43.2147 31.9053 44.2707 29.236 46.3827 27.388C48.524 25.54 51.2374 24.616 54.5227 24.616C61.1814 24.616 64.3787 27.96 64.1147 34.648H51.7067V36.364C51.7067 39.2387 52.0734 41.4093 52.8067 42.876C53.54 44.3427 54.816 45.076 56.6347 45.076C60.0374 45.076 62.2667 43.2573 63.3227 39.62L64.1147 39.752C63.5574 41.864 62.5454 43.5067 61.0787 44.68C59.6414 45.8533 57.4707 46.44 54.5667 46.44ZM51.7507 33.768H56.2827V31.612C56.2827 29.236 56.136 27.6227 55.8427 26.772C55.5787 25.892 55.0214 25.452 54.1707 25.452C53.3494 25.452 52.7334 25.9213 52.3227 26.86C51.9414 27.7693 51.7507 29.3533 51.7507 31.612V33.768ZM65.6822 25.056H76.2862V29.104C77.2542 26.112 79.3809 24.616 82.6662 24.616C85.9809 24.616 87.9902 26.2 88.6942 29.368C89.7209 26.2 91.8769 24.616 95.1622 24.616C99.4742 24.616 101.63 27.0653 101.63 31.964V45.208H104.094V46H91.9062V45.208H93.4462V30.908C93.4462 28.6787 93.2555 27.3733 92.8742 26.992C92.6982 26.816 92.4635 26.728 92.1702 26.728C91.3195 26.728 90.5715 27.3 89.9262 28.444C89.2809 29.588 88.9582 31.04 88.9582 32.8V45.208H90.5422V46H79.2342V45.208H80.7742V30.908C80.7742 28.6787 80.5835 27.3733 80.2022 26.992C80.0262 26.816 79.7915 26.728 79.4982 26.728C78.6769 26.728 77.9289 27.3587 77.2542 28.62C76.6089 29.852 76.2862 31.3333 76.2862 33.064V45.208H77.8702V46H65.6822V45.208H68.1022V25.848H65.6822V25.056ZM116.313 46.44C112.529 46.44 109.683 45.472 107.777 43.536C105.899 41.5707 104.961 38.8573 104.961 35.396C104.961 31.9053 106.017 29.236 108.129 27.388C110.27 25.54 112.983 24.616 116.269 24.616C122.927 24.616 126.125 27.96 125.861 34.648H113.453V36.364C113.453 39.2387 113.819 41.4093 114.553 42.876C115.286 44.3427 116.562 45.076 118.381 45.076C121.783 45.076 124.013 43.2573 125.069 39.62L125.861 39.752C125.303 41.864 124.291 43.5067 122.825 44.68C121.387 45.8533 119.217 46.44 116.313 46.44ZM113.497 33.768H118.029V31.612C118.029 29.236 117.882 27.6227 117.589 26.772C117.325 25.892 116.767 25.452 115.917 25.452C115.095 25.452 114.479 25.9213 114.069 26.86C113.687 27.7693 113.497 29.3533 113.497 31.612V33.768ZM127.516 25.056H138.12V29.104C138.59 27.7547 139.308 26.6693 140.276 25.848C141.244 25.0267 142.711 24.616 144.676 24.616C149.223 24.616 151.496 27.0653 151.496 31.964V45.208H153.96V46H141.508V45.208H143.312V30.908C143.312 29.148 143.195 28.0187 142.96 27.52C142.726 26.992 142.3 26.728 141.684 26.728C140.746 26.728 139.91 27.344 139.176 28.576C138.472 29.808 138.12 31.304 138.12 33.064V45.208H140.012V46H127.516V45.208H129.936V25.848H127.516V25.056ZM163.474 36.892C163.474 39.972 163.635 42.0253 163.958 43.052C164.28 44.0493 164.867 44.548 165.718 44.548C166.598 44.548 167.346 44.1667 167.962 43.404C168.607 42.6413 168.93 41.512 168.93 40.016V30.424C168.93 29.1627 168.68 28.092 168.182 27.212C167.683 26.332 166.95 25.892 165.982 25.892C165.014 25.892 164.354 26.5373 164.002 27.828C163.65 29.1187 163.474 31.3773 163.474 34.604V36.892ZM169.502 46L169.018 42.92C168.02 45.2667 165.996 46.44 162.946 46.44C160.423 46.44 158.458 45.5307 157.05 43.712C155.671 41.8933 154.982 39.18 154.982 35.572C154.982 28.268 157.886 24.616 163.694 24.616C166.275 24.616 167.976 25.3347 168.798 26.772V13.792H166.114V13H177.114V45.208H179.27V46H169.502ZM191.981 46.44C188.197 46.44 185.351 45.472 183.445 43.536C181.567 41.5707 180.629 38.8573 180.629 35.396C180.629 31.9053 181.685 29.236 183.797 27.388C185.938 25.54 188.651 24.616 191.937 24.616C198.595 24.616 201.793 27.96 201.529 34.648H189.121V36.364C189.121 39.2387 189.487 41.4093 190.221 42.876C190.954 44.3427 192.23 45.076 194.049 45.076C197.451 45.076 199.681 43.2573 200.737 39.62L201.529 39.752C200.971 41.864 199.959 43.5067 198.493 44.68C197.055 45.8533 194.885 46.44 191.981 46.44ZM189.165 33.768H193.697V31.612C193.697 29.236 193.55 27.6227 193.257 26.772C192.993 25.892 192.435 25.452 191.585 25.452C190.763 25.452 190.147 25.9213 189.737 26.86C189.355 27.7693 189.165 29.3533 189.165 31.612V33.768ZM217.484 46V45.208H219.508L214.536 35L213.7 35.22V45.208H215.724V46H203.096V45.208H205.516V13.792H202.92V13H213.7V34.34L214.404 34.076L224.304 25.848H220.168V25.056H228.836V25.848H225.756L220.52 30.292L228.132 45.208H229.716V46H217.484ZM240.488 39.708V25.848H238.068V25.056H240.488V19.38L248.672 17.356V25.056H254.392V25.848H248.672V40.676C248.672 42.0547 248.804 43.0667 249.068 43.712C249.361 44.3573 249.948 44.68 250.828 44.68C251.708 44.68 252.47 44.24 253.116 43.36C253.79 42.48 254.23 41.2773 254.436 39.752L255.184 39.84C254.949 41.864 254.304 43.4773 253.248 44.68C252.192 45.8533 250.446 46.44 248.012 46.44C245.577 46.44 243.714 45.956 242.424 44.988C241.133 44.02 240.488 42.26 240.488 39.708ZM266.164 35.66H267.44V32.272C267.44 29.4853 267.279 27.6227 266.956 26.684C266.663 25.716 266.076 25.232 265.196 25.232C264.668 25.232 264.184 25.3787 263.744 25.672C263.333 25.936 263.128 26.3173 263.128 26.816C263.128 27.2853 263.216 27.7693 263.392 28.268H264.492C264.727 28.884 264.844 29.632 264.844 30.512C264.844 31.3627 264.477 32.1107 263.744 32.756C263.011 33.372 262.087 33.68 260.972 33.68C258.449 33.68 257.188 32.4627 257.188 30.028C257.188 26.42 260.253 24.616 266.384 24.616C269.875 24.616 272.28 25.2173 273.6 26.42C274.949 27.5933 275.624 29.764 275.624 32.932V41.864C275.624 43.3893 276.049 44.152 276.9 44.152C277.897 44.152 278.484 42.6413 278.66 39.62L279.32 39.664C279.203 42.2453 278.719 44.02 277.868 44.988C277.017 45.956 275.624 46.44 273.688 46.44C270.168 46.44 268.144 45.3547 267.616 43.184C267.235 44.2987 266.663 45.12 265.9 45.648C265.137 46.176 264.023 46.44 262.556 46.44C258.215 46.44 256.044 44.6653 256.044 41.116C256.044 39.0333 256.865 37.6107 258.508 36.848C260.18 36.056 262.732 35.66 266.164 35.66ZM264.404 41.072C264.404 42.5973 264.477 43.58 264.624 44.02C264.8 44.46 265.108 44.68 265.548 44.68C266.017 44.68 266.443 44.3133 266.824 43.58C267.235 42.8173 267.44 41.776 267.44 40.456V36.364H267.132C265.313 36.364 264.404 37.6987 264.404 40.368V41.072ZM305.063 46H295.031L294.547 42.788C294.077 43.9613 293.373 44.8707 292.435 45.516C291.525 46.132 290.161 46.44 288.343 46.44C283.796 46.44 281.523 43.9907 281.523 39.092V25.848H279.059V25.056H289.707V40.148C289.707 41.908 289.824 43.0667 290.059 43.624C290.323 44.1813 290.821 44.46 291.555 44.46C292.317 44.46 292.992 44.0053 293.579 43.096C294.165 42.1867 294.459 40.9253 294.459 39.312V25.848H292.435V25.056H302.643V45.208H305.063V46ZM308.163 39.708V25.848H305.743V25.056H308.163V19.38L316.347 17.356V25.056H322.067V25.848H316.347V40.676C316.347 42.0547 316.479 43.0667 316.743 43.712C317.037 44.3573 317.623 44.68 318.503 44.68C319.383 44.68 320.146 44.24 320.791 43.36C321.466 42.48 321.906 41.2773 322.111 39.752L322.859 39.84C322.625 41.864 321.979 43.4773 320.923 44.68C319.867 45.8533 318.122 46.44 315.687 46.44C313.253 46.44 311.39 45.956 310.099 44.988C308.809 44.02 308.163 42.26 308.163 39.708ZM333.84 35.66H335.116V32.272C335.116 29.4853 334.955 27.6227 334.632 26.684C334.339 25.716 333.752 25.232 332.872 25.232C332.344 25.232 331.86 25.3787 331.42 25.672C331.009 25.936 330.804 26.3173 330.804 26.816C330.804 27.2853 330.892 27.7693 331.068 28.268H332.168C332.403 28.884 332.52 29.632 332.52 30.512C332.52 31.3627 332.153 32.1107 331.42 32.756C330.687 33.372 329.763 33.68 328.648 33.68C326.125 33.68 324.864 32.4627 324.864 30.028C324.864 26.42 327.929 24.616 334.06 24.616C337.551 24.616 339.956 25.2173 341.276 26.42C342.625 27.5933 343.3 29.764 343.3 32.932V41.864C343.3 43.3893 343.725 44.152 344.576 44.152C345.573 44.152 346.16 42.6413 346.336 39.62L346.996 39.664C346.879 42.2453 346.395 44.02 345.544 44.988C344.693 45.956 343.3 46.44 341.364 46.44C337.844 46.44 335.82 45.3547 335.292 43.184C334.911 44.2987 334.339 45.12 333.576 45.648C332.813 46.176 331.699 46.44 330.232 46.44C325.891 46.44 323.72 44.6653 323.72 41.116C323.72 39.0333 324.541 37.6107 326.184 36.848C327.856 36.056 330.408 35.66 333.84 35.66ZM332.08 41.072C332.08 42.5973 332.153 43.58 332.3 44.02C332.476 44.46 332.784 44.68 333.224 44.68C333.693 44.68 334.119 44.3133 334.5 43.58C334.911 42.8173 335.116 41.776 335.116 40.456V36.364H334.808C332.989 36.364 332.08 37.6987 332.08 40.368V41.072ZM347.516 25.056H358.12V29.104C358.59 27.7547 359.308 26.6693 360.276 25.848C361.244 25.0267 362.711 24.616 364.676 24.616C369.223 24.616 371.496 27.0653 371.496 31.964V45.208H373.96V46H361.508V45.208H363.312V30.908C363.312 29.148 363.195 28.0187 362.96 27.52C362.726 26.992 362.3 26.728 361.684 26.728C360.746 26.728 359.91 27.344 359.176 28.576C358.472 29.808 358.12 31.304 358.12 33.064V45.208H360.012V46H347.516V45.208H349.936V25.848H347.516V25.056ZM382.228 25.848V25.056H394.988V25.848H392.612L397.408 40.456L402.512 25.848H399.564V25.056H405.768V25.848H403.568L395.34 49.564C394.372 52.3213 393.286 54.2427 392.084 55.328C390.881 56.4427 389.414 57 387.684 57C385.953 57 384.589 56.604 383.592 55.812C382.594 55.02 382.096 54.008 382.096 52.776C382.096 51.544 382.418 50.6053 383.064 49.96C383.709 49.3147 384.56 48.992 385.616 48.992C388.05 48.992 389.268 50.004 389.268 52.028C389.268 52.468 389.18 52.996 389.004 53.612H387.464C387.229 54.2867 387.2 54.844 387.376 55.284C387.552 55.724 387.948 55.944 388.564 55.944C389.766 55.944 390.837 55.3427 391.776 54.14C392.714 52.9667 393.609 51.1627 394.46 48.728L395.428 46H391.556L384.032 25.848H382.228ZM415.094 35.66H416.37V32.272C416.37 29.4853 416.208 27.6227 415.886 26.684C415.592 25.716 415.006 25.232 414.126 25.232C413.598 25.232 413.114 25.3787 412.674 25.672C412.263 25.936 412.058 26.3173 412.058 26.816C412.058 27.2853 412.146 27.7693 412.322 28.268H413.422C413.656 28.884 413.774 29.632 413.774 30.512C413.774 31.3627 413.407 32.1107 412.674 32.756C411.94 33.372 411.016 33.68 409.902 33.68C407.379 33.68 406.118 32.4627 406.118 30.028C406.118 26.42 409.183 24.616 415.314 24.616C418.804 24.616 421.21 25.2173 422.53 26.42C423.879 27.5933 424.554 29.764 424.554 32.932V41.864C424.554 43.3893 424.979 44.152 425.83 44.152C426.827 44.152 427.414 42.6413 427.59 39.62L428.25 39.664C428.132 42.2453 427.648 44.02 426.798 44.988C425.947 45.956 424.554 46.44 422.618 46.44C419.098 46.44 417.074 45.3547 416.546 43.184C416.164 44.2987 415.592 45.12 414.83 45.648C414.067 46.176 412.952 46.44 411.486 46.44C407.144 46.44 404.974 44.6653 404.974 41.116C404.974 39.0333 405.795 37.6107 407.438 36.848C409.11 36.056 411.662 35.66 415.094 35.66ZM413.334 41.072C413.334 42.5973 413.407 43.58 413.554 44.02C413.73 44.46 414.038 44.68 414.478 44.68C414.947 44.68 415.372 44.3133 415.754 43.58C416.164 42.8173 416.37 41.776 416.37 40.456V36.364H416.062C414.243 36.364 413.334 37.6987 413.334 40.368V41.072ZM428.77 25.056H439.374V29.104C439.844 27.7547 440.562 26.6693 441.53 25.848C442.498 25.0267 443.965 24.616 445.93 24.616C450.477 24.616 452.75 27.0653 452.75 31.964V45.208H455.214V46H442.762V45.208H444.566V30.908C444.566 29.148 444.449 28.0187 444.214 27.52C443.98 26.992 443.554 26.728 442.938 26.728C442 26.728 441.164 27.344 440.43 28.576C439.726 29.808 439.374 31.304 439.374 33.064V45.208H441.266V46H428.77V45.208H431.19V25.848H428.77V25.056ZM473.439 22.768L474.671 22.02C474.847 21.1107 474.495 20.656 473.615 20.656C472.354 20.656 471.723 21.624 471.723 23.56C471.723 24.3227 471.826 25.2027 472.031 26.2C474.261 27.696 475.375 29.6173 475.375 31.964C475.375 34.2813 474.569 36.0853 472.955 37.376C471.342 38.6667 469.157 39.312 466.399 39.312C465.255 39.312 464.067 39.1947 462.835 38.96C461.545 39.7813 460.899 40.3973 460.899 40.808C460.899 41.2187 461.838 41.424 463.715 41.424H468.203C474.862 41.424 478.191 43.8147 478.191 48.596C478.191 51.1773 477.179 53.216 475.155 54.712C473.161 56.2373 470.037 57 465.783 57C458.538 57 454.915 55.4307 454.915 52.292C454.915 50.5907 456.045 49.4173 458.303 48.772L460.943 49.96C460.709 50.8107 460.591 51.6173 460.591 52.38C460.591 54.9027 462.469 56.164 466.223 56.164C468.511 56.164 470.271 55.7387 471.503 54.888C472.735 54.0373 473.351 52.9813 473.351 51.72C473.351 50.4587 472.97 49.608 472.207 49.168C471.474 48.7573 469.993 48.552 467.763 48.552H463.495C461.119 48.552 459.418 48.156 458.391 47.364C457.365 46.572 456.851 45.604 456.851 44.46C456.851 43.2867 457.218 42.3187 457.951 41.556C458.685 40.764 459.99 39.796 461.867 38.652C458.465 37.684 456.763 35.4547 456.763 31.964C456.763 29.764 457.555 27.9893 459.139 26.64C460.723 25.2907 463.099 24.616 466.267 24.616C468.174 24.616 469.802 24.9827 471.151 25.716C470.975 24.924 470.887 24.2053 470.887 23.56C470.887 21.9173 471.327 20.7293 472.207 19.996C473.087 19.2627 474.07 18.896 475.155 18.896C476.241 18.896 477.106 19.1893 477.751 19.776C478.426 20.3333 478.763 21.1107 478.763 22.108C478.763 23.1053 478.499 23.8533 477.971 24.352C477.443 24.8213 476.798 25.056 476.035 25.056C475.302 25.056 474.686 24.8653 474.187 24.484C473.718 24.0733 473.469 23.5013 473.439 22.768ZM464.111 30.996V33.372C464.111 35.3373 464.273 36.672 464.595 37.376C464.947 38.08 465.461 38.432 466.135 38.432C466.839 38.432 467.338 38.0947 467.631 37.42C467.954 36.716 468.115 35.2933 468.115 33.152V30.996C468.115 28.708 467.969 27.212 467.675 26.508C467.382 25.7747 466.883 25.408 466.179 25.408C465.505 25.408 464.991 25.7893 464.639 26.552C464.287 27.2853 464.111 28.7667 464.111 30.996ZM127.128 84.056H137.732V88.104C138.7 85.112 140.826 83.616 144.112 83.616C147.426 83.616 149.436 85.2 150.14 88.368C151.166 85.2 153.322 83.616 156.608 83.616C160.92 83.616 163.076 86.0653 163.076 90.964V104.208H165.54V105H153.352V104.208H154.892V89.908C154.892 87.6787 154.701 86.3733 154.32 85.992C154.144 85.816 153.909 85.728 153.616 85.728C152.765 85.728 152.017 86.3 151.372 87.444C150.726 88.588 150.404 90.04 150.404 91.8V104.208H151.988V105H140.68V104.208H142.22V89.908C142.22 87.6787 142.029 86.3733 141.648 85.992C141.472 85.816 141.237 85.728 140.944 85.728C140.122 85.728 139.374 86.3587 138.7 87.62C138.054 88.852 137.732 90.3333 137.732 92.064V104.208H139.316V105H127.128V104.208H129.548V84.848H127.128V84.056ZM191.067 105H181.035L180.551 101.788C180.081 102.961 179.377 103.871 178.439 104.516C177.529 105.132 176.165 105.44 174.347 105.44C169.8 105.44 167.527 102.991 167.527 98.092V84.848H165.063V84.056H175.711V99.148C175.711 100.908 175.828 102.067 176.063 102.624C176.327 103.181 176.825 103.46 177.559 103.46C178.321 103.46 178.996 103.005 179.583 102.096C180.169 101.187 180.463 99.9253 180.463 98.312V84.848H178.439V84.056H188.647V104.208H191.067V105ZM200.899 95.892C200.899 98.972 201.061 101.025 201.383 102.052C201.706 103.049 202.293 103.548 203.143 103.548C204.023 103.548 204.771 103.167 205.387 102.404C206.033 101.641 206.355 100.512 206.355 99.016V89.424C206.355 88.1627 206.106 87.092 205.607 86.212C205.109 85.332 204.375 84.892 203.407 84.892C202.439 84.892 201.779 85.5373 201.427 86.828C201.075 88.1187 200.899 90.3773 200.899 93.604V95.892ZM206.927 105L206.443 101.92C205.446 104.267 203.422 105.44 200.371 105.44C197.849 105.44 195.883 104.531 194.475 102.712C193.097 100.893 192.407 98.18 192.407 94.572C192.407 87.268 195.311 83.616 201.119 83.616C203.701 83.616 205.402 84.3347 206.223 85.772V72.792H203.539V72H214.539V104.208H216.695V105H206.927ZM228.395 94.66H229.671V91.272C229.671 88.4853 229.509 86.6227 229.187 85.684C228.893 84.716 228.307 84.232 227.427 84.232C226.899 84.232 226.415 84.3787 225.975 84.672C225.564 84.936 225.359 85.3173 225.359 85.816C225.359 86.2853 225.447 86.7693 225.623 87.268H226.723C226.957 87.884 227.075 88.632 227.075 89.512C227.075 90.3627 226.708 91.1107 225.975 91.756C225.241 92.372 224.317 92.68 223.203 92.68C220.68 92.68 219.419 91.4627 219.419 89.028C219.419 85.42 222.484 83.616 228.615 83.616C232.105 83.616 234.511 84.2173 235.831 85.42C237.18 86.5933 237.855 88.764 237.855 91.932V100.864C237.855 102.389 238.28 103.152 239.131 103.152C240.128 103.152 240.715 101.641 240.891 98.62L241.551 98.664C241.433 101.245 240.949 103.02 240.099 103.988C239.248 104.956 237.855 105.44 235.919 105.44C232.399 105.44 230.375 104.355 229.847 102.184C229.465 103.299 228.893 104.12 228.131 104.648C227.368 105.176 226.253 105.44 224.787 105.44C220.445 105.44 218.275 103.665 218.275 100.116C218.275 98.0333 219.096 96.6107 220.739 95.848C222.411 95.056 224.963 94.66 228.395 94.66ZM226.635 100.072C226.635 101.597 226.708 102.58 226.855 103.02C227.031 103.46 227.339 103.68 227.779 103.68C228.248 103.68 228.673 103.313 229.055 102.58C229.465 101.817 229.671 100.776 229.671 99.456V95.364H229.363C227.544 95.364 226.635 96.6987 226.635 99.368V100.072ZM241.983 72H252.587V88.104C253.056 86.7547 253.775 85.6693 254.743 84.848C255.711 84.0267 257.178 83.616 259.143 83.616C263.69 83.616 265.963 86.0653 265.963 90.964V104.208H268.427V105H255.975V104.208H257.779V89.908C257.779 88.148 257.662 87.0187 257.427 86.52C257.192 85.992 256.767 85.728 256.151 85.728C255.212 85.728 254.376 86.344 253.643 87.576C252.939 88.808 252.587 90.304 252.587 92.064V104.208H254.479V105H241.983V104.208H244.403V72.792H241.983V72ZM285.935 95.892C285.935 98.972 286.096 101.025 286.419 102.052C286.741 103.049 287.328 103.548 288.178 103.548C289.058 103.548 289.807 103.167 290.423 102.404C291.068 101.641 291.391 100.512 291.391 99.016V89.424C291.391 88.1627 291.141 87.092 290.643 86.212C290.144 85.332 289.411 84.892 288.443 84.892C287.475 84.892 286.815 85.5373 286.463 86.828C286.111 88.1187 285.935 90.3773 285.935 93.604V95.892ZM291.963 105L291.479 101.92C290.481 104.267 288.457 105.44 285.407 105.44C282.884 105.44 280.919 104.531 279.511 102.712C278.132 100.893 277.443 98.18 277.443 94.572C277.443 87.268 280.347 83.616 286.155 83.616C288.736 83.616 290.437 84.3347 291.259 85.772V72.792H288.575V72H299.575V104.208H301.731V105H291.963ZM313.43 94.66H314.706V91.272C314.706 88.4853 314.544 86.6227 314.222 85.684C313.928 84.716 313.342 84.232 312.462 84.232C311.934 84.232 311.45 84.3787 311.01 84.672C310.599 84.936 310.394 85.3173 310.394 85.816C310.394 86.2853 310.482 86.7693 310.658 87.268H311.758C311.992 87.884 312.11 88.632 312.11 89.512C312.11 90.3627 311.743 91.1107 311.01 91.756C310.276 92.372 309.352 92.68 308.238 92.68C305.715 92.68 304.454 91.4627 304.454 89.028C304.454 85.42 307.519 83.616 313.65 83.616C317.14 83.616 319.546 84.2173 320.866 85.42C322.215 86.5933 322.89 88.764 322.89 91.932V100.864C322.89 102.389 323.315 103.152 324.166 103.152C325.163 103.152 325.75 101.641 325.926 98.62L326.586 98.664C326.468 101.245 325.984 103.02 325.134 103.988C324.283 104.956 322.89 105.44 320.954 105.44C317.434 105.44 315.41 104.355 314.882 102.184C314.5 103.299 313.928 104.12 313.166 104.648C312.403 105.176 311.288 105.44 309.822 105.44C305.48 105.44 303.31 103.665 303.31 100.116C303.31 98.0333 304.131 96.6107 305.774 95.848C307.446 95.056 309.998 94.66 313.43 94.66ZM311.67 100.072C311.67 101.597 311.743 102.58 311.89 103.02C312.066 103.46 312.374 103.68 312.814 103.68C313.283 103.68 313.708 103.313 314.09 102.58C314.5 101.817 314.706 100.776 314.706 99.456V95.364H314.398C312.579 95.364 311.67 96.6987 311.67 99.368V100.072ZM327.106 84.056H337.71V88.104C338.179 86.7547 338.898 85.6693 339.866 84.848C340.834 84.0267 342.301 83.616 344.266 83.616C348.813 83.616 351.086 86.0653 351.086 90.964V104.208H353.55V105H341.098V104.208H342.902V89.908C342.902 88.148 342.785 87.0187 342.55 86.52C342.315 85.992 341.89 85.728 341.274 85.728C340.335 85.728 339.499 86.344 338.766 87.576C338.062 88.808 337.71 90.304 337.71 92.064V104.208H339.602V105H327.106V104.208H329.526V84.848H327.106V84.056ZM379.682 81.768L380.914 81.02C381.09 80.1107 380.738 79.656 379.858 79.656C378.596 79.656 377.966 80.624 377.966 82.56C377.966 83.3227 378.068 84.2027 378.274 85.2C380.503 86.696 381.618 88.6173 381.618 90.964C381.618 93.2813 380.811 95.0853 379.198 96.376C377.584 97.6667 375.399 98.312 372.642 98.312C371.498 98.312 370.31 98.1947 369.078 97.96C367.787 98.7813 367.142 99.3973 367.142 99.808C367.142 100.219 368.08 100.424 369.958 100.424H374.446C381.104 100.424 384.434 102.815 384.434 107.596C384.434 110.177 383.422 112.216 381.398 113.712C379.403 115.237 376.279 116 372.026 116C364.78 116 361.158 114.431 361.158 111.292C361.158 109.591 362.287 108.417 364.546 107.772L367.186 108.96C366.951 109.811 366.834 110.617 366.834 111.38C366.834 113.903 368.711 115.164 372.466 115.164C374.754 115.164 376.514 114.739 377.746 113.888C378.978 113.037 379.594 111.981 379.594 110.72C379.594 109.459 379.212 108.608 378.45 108.168C377.716 107.757 376.235 107.552 374.006 107.552H369.738C367.362 107.552 365.66 107.156 364.634 106.364C363.607 105.572 363.094 104.604 363.094 103.46C363.094 102.287 363.46 101.319 364.194 100.556C364.927 99.764 366.232 98.796 368.11 97.652C364.707 96.684 363.006 94.4547 363.006 90.964C363.006 88.764 363.798 86.9893 365.382 85.64C366.966 84.2907 369.342 83.616 372.51 83.616C374.416 83.616 376.044 83.9827 377.394 84.716C377.218 83.924 377.13 83.2053 377.13 82.56C377.13 80.9173 377.57 79.7293 378.45 78.996C379.33 78.2627 380.312 77.896 381.398 77.896C382.483 77.896 383.348 78.1893 383.994 78.776C384.668 79.3333 385.006 80.1107 385.006 81.108C385.006 82.1053 384.742 82.8533 384.214 83.352C383.686 83.8213 383.04 84.056 382.278 84.056C381.544 84.056 380.928 83.8653 380.43 83.484C379.96 83.0733 379.711 82.5013 379.682 81.768ZM370.354 89.996V92.372C370.354 94.3373 370.515 95.672 370.838 96.376C371.19 97.08 371.703 97.432 372.378 97.432C373.082 97.432 373.58 97.0947 373.874 96.42C374.196 95.716 374.358 94.2933 374.358 92.152V89.996C374.358 87.708 374.211 86.212 373.918 85.508C373.624 84.7747 373.126 84.408 372.422 84.408C371.747 84.408 371.234 84.7893 370.882 85.552C370.53 86.2853 370.354 87.7667 370.354 89.996ZM399.722 85.288C398.637 85.288 397.683 85.992 396.862 87.4C396.041 88.808 395.63 90.48 395.63 92.416V104.208H398.754V105H385.026V104.208H387.446V84.848H385.026V84.056H395.63V88.28C396.011 86.784 396.745 85.64 397.83 84.848C398.915 84.0267 400.147 83.616 401.526 83.616C402.905 83.616 404.019 84.012 404.87 84.804C405.75 85.5667 406.19 86.6667 406.19 88.104C406.19 89.512 405.867 90.5973 405.222 91.36C404.577 92.1227 403.579 92.504 402.23 92.504C400.91 92.504 399.927 92.064 399.282 91.184C398.666 90.304 398.593 89.0867 399.062 87.532H400.646C401.379 86.036 401.071 85.288 399.722 85.288ZM416.727 94.66H418.003V91.272C418.003 88.4853 417.841 86.6227 417.519 85.684C417.225 84.716 416.639 84.232 415.759 84.232C415.231 84.232 414.747 84.3787 414.307 84.672C413.896 84.936 413.691 85.3173 413.691 85.816C413.691 86.2853 413.779 86.7693 413.955 87.268H415.055C415.289 87.884 415.407 88.632 415.407 89.512C415.407 90.3627 415.04 91.1107 414.307 91.756C413.573 92.372 412.649 92.68 411.535 92.68C409.012 92.68 407.751 91.4627 407.751 89.028C407.751 85.42 410.816 83.616 416.947 83.616C420.437 83.616 422.843 84.2173 424.163 85.42C425.512 86.5933 426.187 88.764 426.187 91.932V100.864C426.187 102.389 426.612 103.152 427.463 103.152C428.46 103.152 429.047 101.641 429.223 98.62L429.883 98.664C429.765 101.245 429.281 103.02 428.431 103.988C427.58 104.956 426.187 105.44 424.251 105.44C420.731 105.44 418.707 104.355 418.179 102.184C417.797 103.299 417.225 104.12 416.463 104.648C415.7 105.176 414.585 105.44 413.119 105.44C408.777 105.44 406.607 103.665 406.607 100.116C406.607 98.0333 407.428 96.6107 409.071 95.848C410.743 95.056 413.295 94.66 416.727 94.66ZM414.967 100.072C414.967 101.597 415.04 102.58 415.187 103.02C415.363 103.46 415.671 103.68 416.111 103.68C416.58 103.68 417.005 103.313 417.387 102.58C417.797 101.817 418.003 100.776 418.003 99.456V95.364H417.695C415.876 95.364 414.967 96.6987 414.967 99.368V100.072ZM431.87 98.708V84.848H429.45V84.056H431.87V78.38L440.054 76.356V84.056H445.774V84.848H440.054V99.676C440.054 101.055 440.186 102.067 440.45 102.712C440.744 103.357 441.33 103.68 442.21 103.68C443.09 103.68 443.853 103.24 444.498 102.36C445.173 101.48 445.613 100.277 445.818 98.752L446.566 98.84C446.332 100.864 445.686 102.477 444.63 103.68C443.574 104.853 441.829 105.44 439.394 105.44C436.96 105.44 435.097 104.956 433.806 103.988C432.516 103.02 431.87 101.26 431.87 98.708ZM453.455 81.02C451.9 81.02 450.786 80.624 450.111 79.832C449.466 79.04 449.143 78.0573 449.143 76.884C449.143 75.7107 449.495 74.7427 450.199 73.98C450.932 73.2173 452.032 72.836 453.499 72.836C454.966 72.836 456.08 73.188 456.843 73.892C457.606 74.5667 457.987 75.5493 457.987 76.84C457.987 78.1013 457.62 79.1133 456.887 79.876C456.154 80.6387 455.01 81.02 453.455 81.02ZM446.811 84.056H457.591V104.208H460.055V105H446.987V104.208H449.407V84.848H446.811V84.056ZM461.964 105.44V97.564H462.492C463.254 100.116 464.281 101.905 465.572 102.932C466.862 103.959 468.476 104.472 470.412 104.472C473.404 104.472 474.9 103.519 474.9 101.612C474.9 100.791 474.533 100.175 473.8 99.764C472.656 99.1187 471.189 98.62 469.4 98.268C467.405 97.74 465.733 97.036 464.384 96.156C462.77 95.1 461.964 93.428 461.964 91.14C461.964 88.852 462.668 87.0333 464.076 85.684C465.484 84.3053 467.361 83.616 469.708 83.616C471.145 83.616 472.626 83.9533 474.152 84.628C474.709 84.8627 475.134 84.98 475.428 84.98C475.721 84.98 475.97 84.8773 476.176 84.672C476.381 84.4667 476.63 84.0853 476.924 83.528H477.408V90.26H476.88C475.384 86.4467 473.066 84.54 469.928 84.54C468.549 84.54 467.522 84.7893 466.848 85.288C466.173 85.7573 465.836 86.3587 465.836 87.092C465.836 87.532 465.938 87.884 466.144 88.148C466.349 88.3827 466.51 88.5587 466.628 88.676C466.745 88.7933 466.936 88.9253 467.2 89.072C467.464 89.1893 467.684 89.292 467.86 89.38C468.036 89.4387 468.3 89.5267 468.652 89.644C469.033 89.7613 469.312 89.8347 469.488 89.864C471.482 90.3627 472.92 90.8027 473.8 91.184C474.68 91.536 475.516 91.976 476.308 92.504C477.921 93.6187 478.728 95.4227 478.728 97.916C478.728 100.38 477.994 102.257 476.528 103.548C475.061 104.809 473.052 105.44 470.5 105.44C468.681 105.44 466.921 105.015 465.22 104.164C464.868 103.929 464.589 103.812 464.384 103.812C463.738 103.812 463.108 104.355 462.492 105.44H461.964Z" fill="black"/>
</svg>
